{
.formatVersion = 3;
classes = (
{
code = "zero.dnom one.dnom two.dnom three.dnom four.dnom five.dnom six.dnom seven.dnom eight.dnom nine.dnom equal.dnom hyphen.dnom minus.dnom parenleft.dnom parenright.dnom plus.dnom";
name = dnom_frac;
},
{
code = "zero one two three four five six seven eight nine";
name = dnom_frac_numr_ordn_sinf_subs_sups;
},
{
code = "slash zero one two three four five six seven eight nine";
name = frac;
},
{
code = "A O a o zero.numr one.numr two.numr three.numr four.numr five.numr six.numr seven.numr eight.numr nine.numr equal.numr hyphen.numr minus.numr parenleft.numr parenright.numr plus.numr";
name = frac_ordn;
},
{
code = "ordfeminine ordmasculine ordfeminine ordmasculine zero.dnom one.dnom two.dnom three.dnom four.dnom five.dnom six.dnom seven.dnom eight.dnom nine.dnom equal.dnom hyphen.dnom minus.dnom parenleft.dnom parenright.dnom plus.dnom";
name = frac_ordn2;
},
{
code = "zero.numr one.numr two.numr three.numr four.numr five.numr six.numr seven.numr eight.numr nine.numr equal.numr hyphen.numr minus.numr parenleft.numr parenright.numr plus.numr";
name = frac_numr;
},
{
code = "zero.inferior one.inferior two.inferior three.inferior four.inferior five.inferior six.inferior seven.inferior eight.inferior nine.inferior plus.inferior minus.inferior equal.inferior parenleft.inferior parenright.inferior hyphen.inferior";
name = sinf_subs;
},
{
code = "zero.superior onesuperior twosuperior threesuperior four.superior five.superior six.superior seven.superior eight.superior nine.superior plus.superior minus.superior equal.superior parenleft.superior parenright.superior hyphen.superior";
name = sups;
},
{

glyphs = (
{
glyphname = .notdef;
layers = (
{
layerId = "84EF03BF-F357-4104-A115-739D7CF90CE5";
shapes = (
{
closed = 1;
nodes = (
(435,379,l),
(432,379,l),
(423,368,o),
(382,355,o),
(351,358,c),
(344,328,l),
(349,379,o),
(301,392,o),
(257,376,cs),
(216,361,o),
(185,323,o),
(173,264,cs),
(155,174,o),
(207,157,o),
(241,157,cs),
(283,157,o),
(301,184,o),
(316,212,c),
(313,195,o),
(312,166,o),
(337,161,c),
(402,161,l),
(402,162,o),
(402,162,o),
(402,162,c),
(388,172,o),
(387,179,o),
(394,208,cs)
);
},
{
closed = 1;
nodes = (
(326,256,ls),
(317,219,o),
(288,168,o),
(266,168,cs),
(249,168,o),
(242,199,o),
(260,274,cs),
(276,337,o),
(294,367,o),
(316,367,cs),
(343,367,o),
(341,319,o),
(334,288,cs)
);
},
{
closed = 1;
nodes = (
(472,380,o),
(434,380,o),
(434,380,c),
(429,375,l),
(476,375,l),
(443,209,ls),
(437,180,o),
(433,173,o),
(415,163,c),
(531,162,l),
(522,168,o),
(518,174,o),
(518,184,cs),
(518,191,o),
(520,198,o),
(522,209,cs),
(556,373,l),
(556,373,o),
(537,380,o),
(527,396,cs),
(505,432,o),
(556,471,o),
(602,480,cs),
(641,487,o),
(703,477,o),
(693,438,c),
(693,438,o),
(696,438,o),
(697,438,c),
(707,482,o),
(648,493,o),
(600,485,cs),
(540,475,o),
(488,433,o),
(478,380,c)
);
},
{
closed = 1;
nodes = (
(686,384,l),
(697,438,l),
(693,438,l),
(684,410,o),
(625,378,o),
(585,377,c),
(584,374,l),
(605,374,l),
(572,219,ls),
(566,191,o),
(566,157,o),
(622,157,cs),
(667,157,o),
(690,179,o),
(706,219,c),
(706,219,o),
(704,226,o),
(704,231,c),
(700,220,o),
(681,177,o),
(655,177,cs),
(644,177,o),
(644,185,o),
(649,209,cs),
(683,374,l),
(731,374,l),
(733,384,l)
);
},
{
closed = 1;
nodes = (
(152,384,l),
(163,438,l),
(159,438,l),
(150,410,o),
(91,378,o),
(51,377,c),
(50,374,l),
(71,374,l),
(38,219,ls),
(32,191,o),
(32,157,o),
(88,157,cs),
(133,157,o),
(156,179,o),
(172,219,c),
(172,219,o),
(171,228,o),
(171,233,c),
(167,222,o),
(147,177,o),
(121,177,cs),
(110,177,o),
(110,185,o),
(115,209,cs),
(149,374,l),
(197,374,l),
(199,384,l)
);
},
{
closed = 1;
nodes = (
(316,23,o),
(310,20,o),
(310,11,cs),
(310,2,o),
(316,-2,o),
(322,-2,cs),
(328,-2,o),
(334,2,o),
(334,11,cs),
(334,20,o),
(328,23,o),
(322,23,cs)
);
},
{
closed = 1;
nodes = (
(335,92,l),
(362,0,l),
(383,0,l),
(401,70,l),
(420,0,l),
(440,0,l),
(468,92,l),
(450,92,l),
(433,25,l),
(432,23,o),
(432,21,o),
(432,20,c),
(429,20,l),
(429,21,o),
(428,23,o),
(428,25,c),
(413,92,l),
(390,92,l),
(375,25,l),
(375,23,o),
(374,21,o),
(374,20,c),
(371,20,l),
(371,21,o),
(370,23,o),
(370,25,c),
(353,92,l)
);
},
{
closed = 1;
nodes = (
(490,93,o),
(474,82,o),
(474,46,cs),
(474,10,o),
(490,-1,o),
(517,-1,cs),
(544,-1,o),
(562,10,o),
(562,46,cs),
(562,82,o),
(544,93,o),
(517,93,cs)
);
},
{
closed = 1;
nodes = (
(500,13,o),
(491,23,o),
(491,47,cs),
(491,71,o),
(500,79,o),
(516,79,cs),
(534,79,o),
(544,70,o),
(544,46,cs),
(544,22,o),
(534,13,o),
(517,13,cs)
);
},
{
closed = 1;
nodes = (
(633,92,l),
(631,93,o),
(629,93,o),
(629,93,cs),
(606,93,o),
(595,80,o),
(595,69,c),
(591,92,l),
(577,90,l),
(577,0,l),
(595,0,l),
(595,50,ls),
(595,68,o),
(606,78,o),
(622,78,cs),
(627,78,o),
(632,77,o),
(633,76,c)
);
},
{
closed = 1;
nodes = (
(662,0,l),
(662,34,l),
(674,46,l),
(707,0,l),
(728,0,l),
(687,58,l),
(724,92,l),
(699,92,l),
(662,53,l),
(662,128,l),
(645,126,l),
(645,0,l)
);
}
);
width = 755;
}
);
},
{
glyphname = m;
layers = (
{
anchors = (
{
name = top;
position = "{472, 520}";
},
{
name = bottom;
position = "{472, -20}";
}
);
layerId = "84EF03BF-F357-4104-A115-739D7CF90CE5";
shapes = (
{
closed = 1;
nodes = (
(84,0,l,{name = ab01;}),
(204,0,l,{name = sh01;}),
(204,500,l,{name = av01;}),
(84,500,l)
);
},
{
closed = 1;
nodes = (
(197,280,l),
(204,217,l,{name = iv01;}),
(204,345.204,o),
(249,430,o),
(334,430,cs,{name = sv01;}),
(384,430,o),
(414,399.86,o),
(414,291.355,cs),
(414,0,l,{name = ab01;}),
(534,0,l),
(534,314,ls),
(534,458,o),
(470,520,o),
(379,520,cs,{name = at01;}),
(283,520,o),
(209,452,o),
(196,355,c)
);
},
{
closed = 1;
nodes = (
(523,280,l),
(534,217,l,{name = iv01;}),
(534,345.204,o),
(578,430,o),
(661,430,cs,{name = sv01;}),
(710,430,o),
(739,399.86,o),
(739,291.355,cs),
(739,0,l,{name = ab01;}),
(859,0,l),
(859,314,ls),
(859,458,o),
(795,520,o),
(704,520,cs,{name = at01;}),
(608,520,o),
(534,452,o),
(521,355,c)
);
}
);
width = 943;
}
);
leftKerningGroup = i;
rightKerningGroup = h;
unicode = 109;
},
{
glyphname = u;
layers = (
{
anchors = (
{
name = top;
position = "{300, 520}";
},
{
name = bottom;
position = "{300, -20}";
},
{
name = ogonek;
position = "{401, -2}";
}
);
layerId = "84EF03BF-F357-4104-A115-739D7CF90CE5";
shapes = (
{
closed = 1;
nodes = (
(76,500,l,{name = av01;}),
(76,185,ls),
(76,62,o),
(159,-20,o),
(300,-20,cs,{name = dv01;}),
(442,-20,o),
(523,65,o),
(523,185,cs),
(523,500,l,{name = av02;}),
(403,500,l),
(403,198.298,ls),
(403,109.091,o),
(366,70,o),
(301,70,cs,{name = dv02;}),
(237,70,o),
(196,106.084,o),
(196,198.298,cs),
(196,500,l)
);
}
);
width = 600;
}
);
leftKerningGroup = u;
unicode = 117;
},
{
glyphname = h;
layers = (
{
anchors = (
{
name = bottom;
position = "{318, -20}";
},
{
name = top;
position = "{144, 750}";
}
);
layerId = "84EF03BF-F357-4104-A115-739D7CF90CE5";
shapes = (
{
closed = 1;
nodes = (
(84,0,l,{name = ab03;}),
(204,0,l),
(204,750,l,{name = ab01;}),
(84,750,l)
);
},
{
closed = 1;
nodes = (
(197,280,l),
(204,217,l,{name = iv01;}),
(204,345.204,o),
(252,430,o),
(340,430,cs,{name = sv01;}),
(399,430,o),
(431,399.86,o),
(431,291.355,cs),
(431,0,l,{name = ab01;}),
(551,0,l),
(551,314,ls),
(551,458,o),
(484,520,o),
(380,520,cs,{name = at01;}),
(287,520,o),
(210,452,o),
(196,355,c)
);
}
);
width = 635;
}
);
leftKerningGroup = b;
rightKerningGroup = h;
unicode = 104;
},
{
glyphname = l;
layers = (
{
anchors = (
{
name = top;
position = "{148, 750}";
},
{
name = bottom;
position = "{200, -20}";
},
{
name = topright;
position = "{250, 750}";
}
);
layerId = "84EF03BF-F357-4104-A115-739D7CF90CE5";
shapes = (
{
closed = 1;
nodes = (
(314,88,l),
(296,79,o),
(273,73,o),
(252,73,cs,{name = dv02;}),
(216,73,o),
(204,90,o),
(204,161,cs),
(204,750,l,{name = ab01;}),
(84,750,l),
(84,132,ls),
(84,30,o),
(126,-20,o),
(233,-20,cs,{name = dv01;}),
(263,-20,o),
(284,-16,o),
(330,2,c)
);
}
);
width = 350;
}
);
leftKerningGroup = b;
rightKerningGroup = l;
unicode = 108;
},
{
glyphname = p;
layers = (
{
anchors = (
{
name = bottom;
position = "{361, -20}";
},
{
name = top;
position = "{352, 520}";
}
);
layerId = "84EF03BF-F357-4104-A115-739D7CF90CE5";
shapes = (
{
closed = 1;
nodes = (
(203,500,l,{name = av02;}),
(83,500,l),
(83,-200,l,{name = av01;}),
(203,-200,l)
);
},
{
closed = 1;
nodes = (
(181,88,o),
(246,-20,o),
(363,-20,cs,{name = dv01;}),
(501,-20,o),
(585,99,o),
(585,255,cs),
(585,411,o),
(510,520,o),
(369,520,cs,{name = at01;}),
(249,520,o),
(181,422,o),
(181,255,cs)
);
},
{
closed = 1;
nodes = (
(465,142.201,o),
(416,70,o),
(338,70,cs,{name = dv02;}),
(258,70,o),
(203,151.226,o),
(203,256.518,cs),
(203,357.799,o),
(260,430,o),
(339,430,cs,{name = sv01;}),
(419,430,o),
(465,366.825,o),
(465,255.515,cs)
);
}
);
width = 635;
}
);
leftKerningGroup = i;
rightKerningGroup = b1;
unicode = 112;
},
{
glyphname = d;
layers = (
{
anchors = (
{
name = bottom;
position = "{295, -20}";
},
{
name = top;
position = "{291, 750}";
},
{
name = topright;
position = "{590, 750}";
}
);
layerId = "84EF03BF-F357-4104-A115-739D7CF90CE5";
shapes = (
{
closed = 1;
nodes = (
(432,0,l,{name = ab02;}),
(552,0,l),
(552,750,l,{name = ab01;}),
(432,750,l)
);
},
{
closed = 1;
nodes = (
(454,422,o),
(386,520,o),
(266,520,cs,{name = at01;}),
(125,520,o),
(50,411,o),
(50,255,cs),
(50,99,o),
(134,-20,o),
(272,-20,cs,{name = dv01;}),
(389,-20,o),
(454,78,o),
(454,255,cs)
);
},
{
closed = 1;
nodes = (
(170,366.825,o),
(215,430,o),
(296,430,cs,{name = sv01;}),
(375,430,o),
(432,357.799,o),
(432,256.518,cs),
(432,151.226,o),
(377,70,o),
(297,70,cs,{name = dv02;}),
(219,70,o),
(170,142.201,o),
(170,255.515,cs)
);
}
);
width = 635;
}
);
leftKerningGroup = a;
unicode = 100;
},
{
glyphname = o;
layers = (
{
anchors = (
{
name = ogonek;
position = "{413, -3}";
},
{
name = top;
position = "{308, 520}";
},
{
name = bottom;
position = "{308, -20}";
},
{
name = topgr;
position = "{308, 520}";
}
);
layerId = "84EF03BF-F357-4104-A115-739D7CF90CE5";
shapes = (
{
closed = 1;
nodes = (
(59,79,o),
(153,-20,o),
(308,-20,cs,{name = dv01;}),
(476,-20,o),
(557,79,o),
(557,255,cs),
(557,421,o),
(475,520,o),
(308,520,cs,{name = at01;}),
(152,520,o),
(59,421,o),
(59,255,cs)
);
},
{
closed = 1;
nodes = (
(437,135.363,o),
(394,70,o),
(308,70,cs,{name = dv02;}),
(225,70,o),
(179,132.346,o),
(179,255.028,cs),
(179,373.687,o),
(222,430,o),
(308,430,cs,{name = sv01;}),
(395,430,o),
(437,369.665,o),
(437,253.017,cs)
);
}
);
width = 616;
}
);
leftKerningGroup = a;
rightKerningGroup = b1;
unicode = 111;
},
{
glyphname = q;
layers = (
{
anchors = (
{
name = bottom;
position = "{290, -20}";
},
{
name = top;
position = "{291, 520}";
}
);
layerId = "84EF03BF-F357-4104-A115-739D7CF90CE5";
shapes = (
{
closed = 1;
nodes = (
(432,-200,l),
(552,-200,l),
(552,500,l),
(432,500,l)
);
},
{
closed = 1;
nodes = (
(454,422,o),
(386,520,o),
(266,520,cs,{name = at01;}),
(125,520,o),
(50,411,o),
(50,255,cs),
(50,99,o),
(134,-20,o),
(272,-20,cs,{name = dv01;}),
(389,-20,o),
(454,88,o),
(454,255,cs)
);
},
{
closed = 1;
nodes = (
(170,363.816,o),
(218,430,o),
(296,430,cs,{name = sv01;}),
(375,430,o),
(432,357.799,o),
(432,256.518,cs),
(432,151.226,o),
(377,70,o),
(297,70,cs,{name = dv02;}),
(221,70,o),
(170,145.209,o),
(170,255.515,cs)
);
}
);
width = 635;
}
);
leftKerningGroup = a;
unicode = 113;
},
{
glyphname = b;
layers = (
{
anchors = (
{
name = bottom;
position = "{345, -20}";
},
{
name = top;
position = "{353, 750}";
}
);
layerId = "84EF03BF-F357-4104-A115-739D7CF90CE5";
shapes = (
{
closed = 1;
nodes = (
(203,0,l,{name = ab02;}),
(203,750,l,{name = ab01;}),
(83,750,l,{name = sh01;}),
(83,0,l)
);
},
{
closed = 1;
nodes = (
(181,78,o),
(246,-20,o),
(367.316,-20,cs,{name = dv01;}),
(501,-20,o),
(585,99,o),
(585,255,cs),
(585,411,o),
(510,520,o),
(376.03,520,cs,{name = at01;}),
(249,520,o),
(181,422,o),
(181,255,cs)
);
},
{
closed = 1;
nodes = (
(465,144.206,o),
(415,70,o),
(338,70,cs,{name = dv02;}),
(258,70,o),
(203,151.226,o),
(203,256.518,cs),
(203,357.799,o),
(260,430,o),
(339,430,cs,{name = sv01;}),
(418,430,o),
(465,364.819,o),
(465,255.515,cs)
);
}
);
width = 635;
}
);
leftKerningGroup = b;
rightKerningGroup = b1;
unicode = 98;
},
{
glyphname = c;
layers = (
{
anchors = (
{
name = top;
position = "{303, 520}";
},
{
name = bottom;
position = "{303, -20}";
}
);
layerId = "84EF03BF-F357-4104-A115-739D7CF90CE5";
shapes = (
{
closed = 1;
nodes = (
(191,68.997,o),
(170,167.544,o),
(170,255.029,cs),
(170,373.688,o),
(211,430,o),
(297,430,cs,{name = sv01;}),
(352,430,o),
(410,406.657,o),
(442,362,c),
(510,430,l),
(468,483,o),
(392,520,o),
(294,520,cs),
(138,520,o),
(50,421,o),
(50,255,cs),
(50,79,o),
(138,-20,o),
(293,-20,cs,{name = dv01;}),
(393,-20,o),
(474,17,o),
(516,70,c),
(448,138,l),
(418,95.373,o),
(350,70,o),
(299,70,cs,{name = dv02;})
);
}
);
width = 563;
}
);
leftKerningGroup = a;
rightKerningGroup = b1;
unicode = 99;
},
{
glyphname = e;
layers = (
{
anchors = (
{
name = top;
position = "{299, 520}";
},
{
name = bottom;
position = "{299, -20}";
},
{
name = ogonek;
position = "{421, -2}";
}
);
layerId = "84EF03BF-F357-4104-A115-739D7CF90CE5";
shapes = (
{
closed = 1;
nodes = (
(172,307,l,{name = sv02;}),
(181,385.639,o),
(232.207,430,o),
(303.496,430,cs,{name = sv01;}),
(373.78,430,o),
(418.963,385.639,o),
(428,307,c,{name = dv04;})
);
},
{
closed = 1;
nodes = (
(409,-20,o),
(485,17,o),
(527,70,c),
(459,138,l),
(427.893,94.358,o),
(363.672,70,o),
(303.466,70,cs,{name = dv02;}),
(213.155,70,o),
(168,125.353,o),
(168,227,c,{name = sv04;}),
(551,227,l,{name = dv03;}),
(551,424,o),
(462,520,o),
(305,520,cs,{name = at01;}),
(151,520,o),
(48,427,o),
(48,251,cs,{name = sv03;}),
(48,72,o),
(154,-20,o),
(310,-20,cs,{name = dv01;})
);
}
);
width = 598;
}
);
leftKerningGroup = a;
rightKerningGroup = b1;
unicode = 101;
},
{
glyphname = f;
layers = (
{
anchors = (
{
name = top;
position = "{250, 750}";
},
{
name = bottom;
position = "{183, -20}";
}
);
layerId = "84EF03BF-F357-4104-A115-739D7CF90CE5";
shapes = (
{
closed = 1;
nodes = (
(124,410,l,{name = dv03;}),
(124,0,l,{name = ab01;}),
(244,0,l),
(244,410,l,{name = sv01;}),
(380,410,l),
(380,500,l,{name = sv02;}),
(244,500,l),
(244,579,ls),
(244,633,o),
(262,660,o),
(300,660,cs,{name = dv01;}),
(314,660,o),
(348,656,o),
(371,648,c),
(386,728,l),
(331,745.217,o),
(303,750,o),
(274,750,cs,{name = dv02;}),
(179,750,o),
(124,698.207,o),
(124,607.57,cs),
(124,500,l,{name = dv04;}),
(32,500,l),
(32,410,l)
);
}
);
width = 423;
}
);
leftKerningGroup = f;
rightKerningGroup = f1;
unicode = 102;
},
{
glyphname = r;
layers = (
{
anchors = (
{
name = top;
position = "{235, 520}";
},
{
name = bottom;
position = "{132, -20}";
}
);
layerId = "84EF03BF-F357-4104-A115-739D7CF90CE5";
shapes = (
{
closed = 1;
nodes = (
(84,500,l,{name = av01;}),
(84,0,l,{name = ab01;}),
(204,0,l),
(204,210.981,ls),
(204,337.57,o),
(244,430,o),
(385,430,c,{name = sv01;}),
(385,520,l,{name = at01;}),
(289,519,o),
(234,466,o),
(204,390,c,{name = iv01;}),
(204,500,l)
);
}
);
width = 422;
}
);
leftKerningGroup = i;
rightKerningGroup = r;
unicode = 114;
},
{
glyphname = t;
layers = (
{
anchors = (
{
name = top;
position = "{167, 630}";
},
{
name = bottom;
position = "{220, -20}";
},
{
name = topright;
position = "{262, 700}";
}
);
layerId = "84EF03BF-F357-4104-A115-739D7CF90CE5";
shapes = (
{
closed = 1;
nodes = (
(15,500,l,{name = dv04;}),
(15,410,l,{name = dv03;}),
(325,410,l),
(325,500,l)
);
},
{
closed = 1;
nodes = (
(225,620,l,{name = av01;}),
(105,620,l),
(105,132,ls),
(105,29,o),
(146,-21,o),
(228,-21,cs,{name = dv01;}),
(263,-21,o),
(298,-12,o),
(348,7,c),
(329,89,l),
(297,74.263,o),
(282,69,o),
(266,69,cs,{name = dv02;}),
(235,69,o),
(225,88.034,o),
(225,148.141,cs)
);
}
);
width = 365;
}
);
leftKerningGroup = f;
rightKerningGroup = l;
unicode = 116;
},
{
glyphname = k;
layers = (
{
anchors = (
{
name = bottom;
position = "{297, -20}";
},
{
name = top;
position = "{135, 750}";
}
);
layerId = "84EF03BF-F357-4104-A115-739D7CF90CE5";
shapes = (
{
closed = 1;
nodes = (
(194,0,l,{name = ab02;}),
(194,750,l,{name = ab01;}),
(74,750,l),
(74,0,l,{name = sv03;})
);
},
{
closed = 1;
nodes = (
(331,312,l,{name = iv02;}),
(88,312,l),
(95,222,l),
(323,222,l,{name = iv01;}),
(422,0,l,{name = ab02;}),
(558,0,l),
(418,263,l),
(544,500,l,{name = av02;}),
(419,500,l)
);
}
);
width = 594;
}
);
leftKerningGroup = b;
rightKerningGroup = k;
unicode = 107;
},
{
glyphname = a;
layers = (
{
anchors = (
{
name = top;
position = "{323, 520}";
},
{
name = bottom;
position = "{323, -20}";
},
{
name = ogonek;
position = "{556, -2}";
}
);
layerId = "84EF03BF-F357-4104-A115-739D7CF90CE5";
shapes = (
{
closed = 1;
nodes = (
(442,0,l,{name = ab01;}),
(562,0,l),
(562,500,l,{name = av01;}),
(442,500,l)
);
},
{
closed = 1;
nodes = (
(464,422,o),
(394,520,o),
(264,520,cs,{name = at01;}),
(127,520,o),
(50,411,o),
(50,259,cs),
(50,99,o),
(136,-20,o),
(273,-20,cs,{name = dv01;}),
(397,-20,o),
(464,78,o),
(464,248,cs)
);
},
{
closed = 1;
nodes = (
(170,365.822,o),
(218,430,o),
(298,430,cs,{name = sv01;}),
(383,430,o),
(442,357.799,o),
(442,253.51,cs),
(442,151.226,o),
(385,70,o),
(301,70,cs,{name = dv02;}),
(221,70,o),
(170,143.203,o),
(170,256.518,cs)
);
}
);
width = 645;
}
);
leftKerningGroup = a;
rightKerningGroup = a1;
unicode = 97;
},
{
glyphname = v;
layers = (
{
anchors = (
{
name = top;
position = "{275, 520}";
},
{
name = bottom;
position = "{275, -20}";
}
);
layerId = "84EF03BF-F357-4104-A115-739D7CF90CE5";
shapes = (
{
closed = 1;
nodes = (
(275,148,l),
(154,500,l),
(25,500,l),
(217,0,l),
(333,0,l),
(525,500,l),
(396,500,l)
);
}
);
width = 550;
}
);
leftKerningGroup = v;
rightKerningGroup = v1;
unicode = 118;
},
{
glyphname = w;
layers = (
{
anchors = (
{
name = top;
position = "{427, 520}";
},
{
name = bottom;
position = "{427, -20}";
}
);
layerId = "84EF03BF-F357-4104-A115-739D7CF90CE5";
shapes = (
{
closed = 1;
nodes = (
(269,148,l),
(156,500,l),
(27,500,l),
(209,0,l),
(315,0,l),
(427,385,l),
(539,0,l),
(645,0,l),
(827,500,l),
(698,500,l),
(585,148,l),
(477,500,l),
(377,500,l)
);
}
);
width = 854;
}
);
leftKerningGroup = v;
rightKerningGroup = v1;
unicode = 119;
},
{
glyphname = x;
layers = (
{
anchors = (
{
name = top;
position = "{287, 520}";
},
{
name = bottom;
position = "{287, -20}";
}
);
layerId = "84EF03BF-F357-4104-A115-739D7CF90CE5";
shapes = (
{
closed = 1;
nodes = (
(51,500,l,{name = av01;}),
(203.503,236.012,l),
(193.509,261.985,l),
(42,0,l,{name = ab01;}),
(179,0,l),
(287,203,l,{name = iv01;}),
(395,0,l,{name = ab02;}),
(534,0,l),
(382.491,261.985,l),
(372.497,236.012,l),
(525,500,l,{name = av02;}),
(386,500,l),
(270.955,283.757,l,{name = iv02;}),
(305.045,283.757,l),
(190,500,l)
);
}
);
width = 574;
}
);
leftKerningGroup = x;
rightKerningGroup = k;
unicode = 120;
},
{
glyphname = y;
layers = (
{
anchors = (
{
name = top;
position = "{313, 520}";
},
{
name = bottom;
position = "{536, -59}";
}
);
layerId = "84EF03BF-F357-4104-A115-739D7CF90CE5";
shapes = (
{
closed = 1;
nodes = (
(423,263,l,{name = iv01;}),
(423,151,o),
(380,90,o),
(296,90,cs,{name = sv01;}),
(213,90,o),
(194,150,o),
(194,258,cs),
(194,500,l,{name = av01;}),
(74,500,l),
(74,216,ls),
(74,83,o),
(143,0,o),
(256,0,cs,{name = ab01;}),
(356,0,o),
(418,66,o),
(438,147,c)
);
},
{
closed = 1;
nodes = (
(457,-220,o),
(543,-121,o),
(543,52,cs),
(543,500,l,{name = av01;}),
(423,500,l),
(423,50.286,ls),
(423,-98.951,o),
(360,-130,o),
(288,-130,cs),
(225,-130,o),
(168,-105.642,o),
(137,-62,c),
(69,-130,l),
(111,-183,o),
(187,-220,o),
(289,-220,cs)
);
}
);
width = 626;
}
);
leftKerningGroup = u;
rightKerningGroup = y;
unicode = 121;
},
{
glyphname = z;
layers = (
{
anchors = (
{
name = top;
position = "{241, 520}";
},
{
name = bottom;
position = "{241, -20}";
}
);
layerId = "84EF03BF-F357-4104-A115-739D7CF90CE5";
shapes = (
{
closed = 1;
nodes = (
(28,0,l,{name = ab01;}),
(455,0,l),
(455,90,l,{name = sv01;}),
(188,90,l),
(455,420,l),
(455,500,l),
(48,500,l,{name = dv02;}),
(48,410,l,{name = dv01;}),
(295,410,l),
(28,80,l)
);
}
);
width = 483;
}
);
leftKerningGroup = z1;
rightKerningGroup = z;
unicode = 122;
},
{
glyphname = E;
layers = (
{
anchors = (
{
name = top;
position = "{275, 719}";
},
{
name = bottom;
position = "{275, -20}";
},
{
name = ogonek;
position = "{489, -2}";
},
{
name = topgr;
position = "{-28, 500}";
}
);
layerId = "84EF03BF-F357-4104-A115-739D7CF90CE5";
shapes = (
{
closed = 1;
nodes = (
(495,0,l,{name = ab01;}),
(495,100,l,{name = sv01;}),
(194,100,l),
(194,315,l,{name = dv01;}),
(455,315,l),
(455,415,l),
(194,415,l,{name = dv02;}),
(194,600,l,{name = sv02;}),
(480,600,l),
(480,700,l,{name = at01;}),
(74,700,l),
(74,0,l)
);
}
);
width = 550;
}
);
leftKerningGroup = B;
rightKerningGroup = E;
unicode = 69;
},
{
glyphname = g;
layers = (
{
anchors = (
{
name = bottom;
position = "{301, -220}";
},
{
name = top;
position = "{317, 520}";
}
);
layerId = "84EF03BF-F357-4104-A115-739D7CF90CE5";
shapes = (
{
closed = 1;
nodes = (
(454,422,o),
(386,520,o),
(259,520,cs,{name = at01;}),
(125,520,o),
(50,411,o),
(50,259,cs),
(50,99,o),
(134,-20,o),
(265,-20,cs,{name = dv01;}),
(389,-20,o),
(454,88,o),
(454,253,cs)
);
},
{
closed = 1;
nodes = (
(170,365.822,o),
(216,430,o),
(293,430,cs,{name = sv01;}),
(374,430,o),
(431,357.799,o),
(431,253.51,cs),
(431,151.226,o),
(376,70,o),
(296,70,cs,{name = dv02;}),
(220,70,o),
(170,143.203,o),
(170,256.518,cs)
);
},
{
closed = 1;
nodes = (
(465,-220,o),
(551,-121,o),
(551,52,cs),
(551,500,l,{name = av01;}),
(431,500,l),
(431,50.286,ls),
(431,-98.951,o),
(368,-130,o),
(296,-130,cs),
(233,-130,o),
(176,-105.642,o),
(145,-62,c),
(77,-130,l),
(119,-183,o),
(195,-220,o),
(297,-220,cs)
);
}
);
width = 634;
}
);
leftKerningGroup = a;
unicode = 103;
},
{
glyphname = D;
layers = (
{
anchors = (
{
name = top;
position = "{328, 719}";
},
{
name = bottom;
position = "{328, -20}";
}
);
layerId = "84EF03BF-F357-4104-A115-739D7CF90CE5";
shapes = (
{
closed = 1;
nodes = (
(194,100,l,{name = sv01;}),
(194,600,l,{name = sv02;}),
(320.635,600,ls),
(467.056,600,o),
(565,499,o),
(565,349,cs),
(565,197,o),
(464.088,100,o),
(320.635,100,cs)
);
},
{
closed = 1;
nodes = (
(74,0,l,{name = ab01;}),
(341,0,ls),
(548,0,o),
(689,141,o),
(689,350,cs),
(689,558,o),
(547,700,o),
(341,700,cs,{name = at01;}),
(74,700,l)
);
}
);
width = 742;
}
);
leftKerningGroup = B;
rightKerningGroup = C;
unicode = 68;
},
{
glyphname = F;
layers = (
{
anchors = (
{
name = top;
position = "{270, 719}";
},
{
name = bottom;
position = "{281, -20}";
}
);
layerId = "84EF03BF-F357-4104-A115-739D7CF90CE5";
shapes = (
{
closed = 1;
nodes = (
(194,0,l,{name = ab01;}),
(194,300,l,{name = dv01;}),
(444,300,l),
(444,400,l),
(194,400,l,{name = dv02;}),
(194,600,l,{name = sv01;}),
(484,600,l),
(484,700,l,{name = at01;}),
(74,700,l,{name = dh01;}),
(74,0,l)
);
}
);
width = 540;
}
);
leftKerningGroup = B;
rightKerningGroup = F;
unicode = 70;
},
{
glyphname = A;
layers = (
{
anchors = (
{
name = top;
position = "{328, 719}";
},
{
name = bottom;
position = "{328, -20}";
},
{
name = ogonek;
position = "{627, -2}";
},
{
name = topgr;
position = "{96, 500}";
}
);
layerId = "84EF03BF-F357-4104-A115-739D7CF90CE5";
shapes = (
{
closed = 1;
nodes = (
(143,131,l,{name = dv01;}),
(509,131,l),
(475,226,l,{name = dv03;}),
(177,226,l,{name = dv02;})
);
},
{
closed = 1;
nodes = (
(249,700,l),
(22,0,l),
(148,0,l),
(357,700,l)
);
},
{
closed = 1;
nodes = (
(298,700,l),
(507,0,l),
(633,0,l),
(406,700,l)
);
}
);
width = 655;
}
);
leftKerningGroup = A1;
rightKerningGroup = A;
unicode = 65;
},
{
glyphname = B;
layers = (
{
anchors = (
{
name = top;
position = "{298, 719}";
},
{
name = bottom;
position = "{328, -20}";
}
);
layerId = "84EF03BF-F357-4104-A115-739D7CF90CE5";
shapes = (
{
closed = 1;
nodes = (
(78,0,l,{name = ab01;}),
(356,0,ls),
(495,0,o),
(594,83,o),
(594,201,cs),
(594,311,o),
(509,372,o),
(355,372,c,{name = dv02;}),
(482,372,o),
(548,425,o),
(548,525,cs),
(548,636,o),
(467,700,o),
(332,700,cs,{name = at01;}),
(78,700,l)
);
},
{
closed = 1;
nodes = (
(310,320,ls,{name = dv01;}),
(429,320,o),
(475,282,o),
(475,210,cs),
(475,140,o),
(432,100,o),
(324,100,cs,{name = sv01;}),
(198,100,l),
(198,600,l,{name = sv02;}),
(306,600,ls),
(388,600,o),
(429,581,o),
(429,518,cs,{name = sv04;}),
(429,457,o),
(390,416,o),
(306,416,cs,{name = sv03;}),
(100,416,l),
(100,320,l)
);
}
);
width = 634;
}
);
leftKerningGroup = B;
rightKerningGroup = B1;
unicode = 66;
},
{
glyphname = H;
layers = (
{
anchors = (
{
name = bottom;
position = "{368, -20}";
},
{
name = top;
position = "{368, 719}";
},
{
name = topgr;
position = "{-28, 500}";
}
);
layerId = "84EF03BF-F357-4104-A115-739D7CF90CE5";
shapes = (
{
closed = 1;
nodes = (
(87,0,l,{name = ab01;}),
(207,0,l),
(207,320,l,{name = dv01;}),
(529,320,l),
(529,0,l,{name = ab02;}),
(649,0,l),
(649,700,l,{name = at01;}),
(529,700,l),
(529,420,l),
(207,420,l,{name = dv02;}),
(207,700,l,{name = at02;}),
(87,700,l)
);
}
);
width = 736;
}
);
leftKerningGroup = B;
rightKerningGroup = H;
unicode = 72;
},
{
glyphname = C;
layers = (
{
anchors = (
{
name = bottom;
position = "{402, -20}";
},
{
name = top;
position = "{382, 719}";
}
);
layerId = "84EF03BF-F357-4104-A115-739D7CF90CE5";
shapes = (
{
closed = 1;
nodes = (
(488,-20,o),
(572,18,o),
(647,102,c),
(576,173,l),
(534.407,117.495,o),
(473.007,84,o),
(394.772,84,cs,{name = dv02;}),
(266.031,84,o),
(167,188.623,o),
(167,365.299,cs),
(167,524.208,o),
(246.225,616,o),
(386.85,616,cs,{name = dv03;}),
(462.114,616,o),
(523.513,586.989,o),
(576,528,c),
(647,599,l),
(581,681,o),
(492,720,o),
(379,720,cs,{name = dv04;}),
(166,720,o),
(43,581,o),
(43,365,cs),
(43,135,o),
(182,-20,o),
(387,-20,cs,{name = dv01;})
);
}
);
width = 694;
}
);
leftKerningGroup = C1;
rightKerningGroup = C;
unicode = 67;
},
{
glyphname = G;
layers = (
{
anchors = (
{
name = top;
position = "{393, 719}";
},
{
name = bottom;
position = "{393, -20}";
}
);
layerId = "84EF03BF-F357-4104-A115-739D7CF90CE5";
shapes = (
{
closed = 1;
nodes = (
(617,276,l,{name = dv05;}),
(617,0,l),
(721,0,l),
(721,376,l,{name = dv06;}),
(351,376,l,{name = av02;}),
(351,276,l,{name = av03;})
);
},
{
closed = 1;
nodes = (
(485.114,616,o),
(548.52,586.989,o),
(604,528,c),
(675,599,l),
(607,681,o),
(505,720,o),
(389,720,cs,{name = dv04;}),
(182,720,o),
(53,597,o),
(53,350,cs),
(53,105,o),
(189,-20,o),
(369,-20,cs,{name = dv01;}),
(563,-20,o),
(641,124,o),
(641,243,c),
(617,303,l,{name = dv07;}),
(617,169.824,o),
(529.793,84,o),
(387.09,84,cs,{name = dv02;}),
(250.458,84,o),
(177,177.061,o),
(177,350.156,cs),
(177,549.903,o),
(265.174,616,o),
(405.856,616,cs,{name = dv03;})
);
}
);
width = 786;
}
);
leftKerningGroup = C1;
rightKerningGroup = G;
unicode = 71;
},
{
glyphname = L;
layers = (
{
anchors = (
{
name = top;
position = "{138, 719}";
},
{
name = bottom;
position = "{277, -20}";
}
);
layerId = "84EF03BF-F357-4104-A115-739D7CF90CE5";
shapes = (
{
closed = 1;
nodes = (
(78,0,l,{name = ab01;}),
(504,0,l),
(504,100,l,{name = sv01;}),
(198,100,l),
(198,700,l,{name = at01;}),
(78,700,l)
);
}
);
width = 554;
}
);
leftKerningGroup = B;
rightKerningGroup = L;
unicode = 76;
},
{
glyphname = I;
layers = (
{
anchors = (
{
name = top;
position = "{163, 719}";
},
{
name = bottom;
position = "{163, -20}";
},
{
name = ogonek;
position = "{217, -2}";
},
{
name = topgr;
position = "{-13, 500}";
}
);
layerId = "84EF03BF-F357-4104-A115-739D7CF90CE5";
shapes = (
{
closed = 1;
nodes = (
(103,0,l,{name = ab01;}),
(223,0,l),
(223,700,l,{name = at01;}),
(103,700,l)
);
}
);
width = 326;
}
);
leftKerningGroup = B;
rightKerningGroup = H;
unicode = 73;
},
{
glyphname = O;
layers = (
{
anchors = (
{
name = top;
position = "{398, 719}";
},
{
name = bottom;
position = "{398, -20}";
},
{
name = ogonek;
position = "{523, -1}";
},
{
name = topgr;
position = "{12, 500}";
}
);
layerId = "84EF03BF-F357-4104-A115-739D7CF90CE5";
shapes = (
{
closed = 1;
nodes = (
(262.45,84,o),
(177,183.84,o),
(177,349.967,cs),
(177,518.071,o),
(255.575,616,o),
(393.08,616,cs,{name = dv03;}),
(534.514,616,o),
(618,520.126,o),
(618,350.045,cs,{name = dv05;}),
(618,184.907,o),
(537.461,84,o),
(400.938,84,cs,{name = dv02;})
);
},
{
closed = 1;
nodes = (
(53,109,o),
(196,-20,o),
(397,-20,cs,{name = dv01;}),
(599,-20,o),
(742,107,o),
(742,350,cs,{name = dv06;}),
(742,575,o),
(612,720,o),
(398,720,cs,{name = dv04;}),
(192,720,o),
(53,586,o),
(53,350,cs)
);
}
);
width = 795;
}
);
leftKerningGroup = C1;
rightKerningGroup = C;
unicode = 79;
},
{
glyphname = N;
layers = (
{
anchors = (
{
name = top;
position = "{376, 719}";
},
{
name = bottom;
position = "{376, -20}";
}
);
layerId = "84EF03BF-F357-4104-A115-739D7CF90CE5";
shapes = (
{
closed = 1;
nodes = (
(207,0,l,{name = ab01;}),
(207,515,l,{name = iv01;}),
(555,0,l,{name = ab02;}),
(665,0,l),
(665,700,l,{name = at01;}),
(545,700,l),
(545,185,l,{name = iv02;}),
(197,700,l,{name = at02;}),
(87,700,l),
(87,0,l)
);
}
);
width = 752;
}
);
leftKerningGroup = B;
rightKerningGroup = H;
unicode = 78;
},
{
glyphname = Q;
layers = (
{
anchors = (
{
name = top;
position = "{398, 719}";
},
{
name = bottom;
position = "{398, -20}";
},
{
name = ogonek;
position = "{523, -1}";
}
);
layerId = "84EF03BF-F357-4104-A115-739D7CF90CE5";
shapes = (
{
closed = 1;
nodes = (
(262.45,84,o),
(177,183.84,o),
(177,349.967,cs),
(177,518.071,o),
(255.575,616,o),
(393.08,616,cs,{name = dv03;}),
(534.514,616,o),
(618,520.126,o),
(618,350.045,cs,{name = dv05;}),
(618,184.907,o),
(537.461,84,o),
(400.938,84,cs,{name = dv02;})
);
},
{
closed = 1;
nodes = (
(53,109,o),
(196,-20,o),
(397,-20,cs,{name = dv01;}),
(599,-20,o),
(742,107,o),
(742,350,cs,{name = dv06;}),
(742,575,o),
(612,720,o),
(398,720,cs,{name = dv04;}),
(192,720,o),
(53,586,o),
(53,350,cs)
);
},
{
closed = 1;
nodes = (
(360,-3,l,{name = ab02;}),
(360,-180,o),
(412,-204,o),
(644,-204,c),
(644,-111,l),
(494,-111,o),
(463,-117,o),
(463,-3,c,{name = ab01;})
);
}
);
width = 795;
}
);
leftKerningGroup = C1;
rightKerningGroup = C;
unicode = 81;
},
{
glyphname = J;
layers = (
{
anchors = (
{
name = bottom;
position = "{278, -20}";
},
{
name = top;
position = "{448, 719}";
}
);
layerId = "84EF03BF-F357-4104-A115-739D7CF90CE5";
shapes = (
{
closed = 1;
nodes = (
(36,122,l),
(102,25,o),
(176,-20,o),
(281,-20,cs,{name = dv01;}),
(424,-20,o),
(506,64,o),
(506,222,cs),
(506,700,l,{name = at01;}),
(386,700,l),
(386,230,ls),
(386,127,o),
(352,80,o),
(281,80,cs,{name = dv02;}),
(221,80,o),
(157,114,o),
(107,193,c)
);
}
);
width = 580;
}
);
leftKerningGroup = J;
rightKerningGroup = J1;
unicode = 74;
},
{
glyphname = T;
layers = (
{
anchors = (
{
name = top;
position = "{324, 719}";
},
{
name = bottom;
position = "{324, -20}";
}
);
layerId = "84EF03BF-F357-4104-A115-739D7CF90CE5";
shapes = (
{
closed = 1;
nodes = (
(31,700,l,{name = at01;}),
(31,600,l,{name = sv01;}),
(264,600,l),
(264,0,l,{name = ab01;}),
(384,0,l),
(384,600,l,{name = sv02;}),
(617,600,l,{name = sv03;}),
(617,700,l)
);
}
);
width = 648;
}
);
leftKerningGroup = T;
rightKerningGroup = T1;
unicode = 84;
},
{
glyphname = U;
layers = (
{
anchors = (
{
name = top;
position = "{338, 719}";
},
{
name = bottom;
position = "{338, -20}";
},
{
name = ogonek;
position = "{447, -1}";
}
);
layerId = "84EF03BF-F357-4104-A115-739D7CF90CE5";
shapes = (
{
closed = 1;
nodes = (
(70,700,l,{name = at01;}),
(70,262,ls),
(70,88,o),
(165,-20,o),
(336,-20,cs,{name = dv01;}),
(507,-20,o),
(605,89,o),
(605,262,cs),
(605,700,l,{name = at02;}),
(485,700,l),
(485,278,ls),
(485,139,o),
(430,80,o),
(337,80,cs,{name = dv02;}),
(245,80,o),
(190,138,o),
(190,278,cs),
(190,700,l)
);
}
);
width = 675;
}
);
leftKerningGroup = U;
rightKerningGroup = J1;
unicode = 85;
},
{
glyphname = P;
layers = (
{
anchors = (
{
name = top;
position = "{322, 719}";
},
{
name = bottom;
position = "{322, -20}";
}
);
layerId = "84EF03BF-F357-4104-A115-739D7CF90CE5";
shapes = (
{
closed = 1;
nodes = (
(198,0,l,{name = ab01;}),
(198,226,l,{name = dv01;}),
(320,226,ls),
(488,226,o),
(595,319,o),
(595,466,cs),
(595,608,o),
(494,700,o),
(334,700,cs,{name = at01;}),
(78,700,l),
(78,0,l)
);
},
{
closed = 1;
nodes = (
(198,326,l,{name = dv02;}),
(198,600,l,{name = sv01;}),
(293,600,ls),
(419,600,o),
(475,557.846,o),
(475,467.516,cs),
(475,373.172,o),
(413,326,o),
(293,326,cs)
);
}
);
width = 644;
}
);
leftKerningGroup = B;
rightKerningGroup = P;
unicode = 80;
},
{
glyphname = R;
layers = (
{
anchors = (
{
name = top;
position = "{324, 719}";
},
{
name = bottom;
position = "{324, -20}";
}
);
layerId = "84EF03BF-F357-4104-A115-739D7CF90CE5";
shapes = (
{
closed = 1;
nodes = (
(198,0,l,{name = ab01;}),
(198,600,l,{name = sv01;}),
(308,600,ls),
(441,600,o),
(479,565,o),
(479,478,cs),
(479,389,o),
(439,354,o),
(306,354,cs),
(100,354,l,{name = dv02;}),
(100,254,l,{name = dv01;}),
(349,254,ls),
(505,254,o),
(599,342,o),
(599,479,cs),
(599,617,o),
(504,700,o),
(348,700,cs,{name = at01;}),
(78,700,l),
(78,0,l)
);
},
{
closed = 1;
nodes = (
(339,281,l),
(482,0,l,{name = ab02;}),
(617,0,l),
(447,333,l)
);
}
);
width = 648;
}
);
leftKerningGroup = B;
rightKerningGroup = R;
unicode = 82;
},
{
glyphname = K;
layers = (
{
anchors = (
{
name = top;
position = "{335, 719}";
},
{
name = bottom;
position = "{335, -20}";
}
);
layerId = "84EF03BF-F357-4104-A115-739D7CF90CE5";
shapes = (
{
closed = 1;
nodes = (
(78,700,l,{name = at01;}),
(78,0,l,{name = ab01;}),
(198,0,l),
(198,700,l)
);
},
{
closed = 1;
nodes = (
(327,410,l),
(101,410,l),
(110,312,l),
(320,312,l),
(493,0,l),
(633,0,l),
(421,367,l),
(629,700,l),
(488,700,l)
);
}
);
width = 670;
}
);
leftKerningGroup = B;
rightKerningGroup = K;
unicode = 75;
},
{
glyphname = V;
layers = (
{
anchors = (
{
name = top;
position = "{328, 719}";
},
{
name = bottom;
position = "{328, -20}";
}
);
layerId = "84EF03BF-F357-4104-A115-739D7CF90CE5";
shapes = (
{
closed = 1;
nodes = (
(406,0,l),
(633,700,l),
(507,700,l),
(298,0,l)
);
},
{
closed = 1;
nodes = (
(357,0,l),
(148,700,l),
(22,700,l),
(249,0,l)
);
}
);
width = 655;
}
);
leftKerningGroup = V1;
rightKerningGroup = V;
unicode = 86;
},
{
glyphname = W;
layers = (
{
anchors = (
{
name = top;
position = "{480, 719}";
},
{
name = bottom;
position = "{480, -20}";
}
);
layerId = "84EF03BF-F357-4104-A115-739D7CF90CE5";
shapes = (
{
closed = 1;
nodes = (
(218,0,l),
(317,0,l),
(142,700,l),
(17,700,l)
);
},
{
closed = 1;
nodes = (
(257,0,l),
(351,0,l),
(515,700,l),
(432,700,l)
);
},
{
closed = 1;
nodes = (
(610,0,l),
(704,0,l),
(529,700,l),
(446,700,l)
);
},
{
closed = 1;
nodes = (
(644,0,l),
(743,0,l),
(944,700,l),
(819,700,l)
);
}
);
width = 960;
}
);
leftKerningGroup = V1;
rightKerningGroup = V;
unicode = 87;
},
{
glyphname = Y;
layers = (
{
anchors = (
{
name = top;
position = "{331, 719}";
},
{
name = bottom;
position = "{331, -20}";
},
{
name = topgr;
position = "{-75, 500}";
}
);
layerId = "84EF03BF-F357-4104-A115-739D7CF90CE5";
shapes = (
{
closed = 1;
nodes = (
(271,0,l,{name = ab01;}),
(391,0,l),
(391,295,l,{name = iv04;}),
(634,700,l,{name = at01;}),
(494,700,l),
(331,418,l,{name = iv05;}),
(168,700,l,{name = at02;}),
(28,700,l),
(271,295,l,{name = iv01;})
);
}
);
width = 662;
}
);
leftKerningGroup = Y1;
rightKerningGroup = Y;
unicode = 89;
},
{
glyphname = Z;
layers = (
{
anchors = (
{
name = top;
position = "{307, 719}";
},
{
name = bottom;
position = "{297, -20}";
}
);
layerId = "84EF03BF-F357-4104-A115-739D7CF90CE5";
shapes = (
{
closed = 1;
nodes = (
(37,95,l),
(37,0,l,{name = ab01;}),
(557,0,l),
(557,100,l,{name = sv01;}),
(188,100,l),
(555,605,l),
(555,700,l,{name = at01;}),
(65,700,l),
(65,600,l,{name = sv02;}),
(404,600,l)
);
}
);
width = 594;
}
);
leftKerningGroup = Z1;
rightKerningGroup = Z;
unicode = 90;
},
{
glyphname = M;
layers = (
{
anchors = (
{
name = top;
position = "{454, 719}";
},
{
name = bottom;
position = "{454, -20}";
}
);
layerId = "84EF03BF-F357-4104-A115-739D7CF90CE5";
shapes = (
{
closed = 1;
nodes = (
(207,464,l,{name = iv01;}),
(423,0,l,{name = ab01;}),
(485,0,l),
(701,464,l,{name = iv02;}),
(701,0,l,{name = ab02;}),
(821,0,l),
(821,700,l,{name = at01;}),
(701,700,l),
(454,170,l,{name = iv03;}),
(207,700,l,{name = at02;}),
(87,700,l),
(87,0,l,{name = ab03;}),
(207,0,l)
);
}
);
width = 908;
}
);
leftKerningGroup = B;
rightKerningGroup = H;
unicode = 77;
},
{
glyphname = X;
layers = (
{
anchors = (
{
name = top;
position = "{324, 719}";
},
{
name = bottom;
position = "{324, -20}";
}
);
layerId = "84EF03BF-F357-4104-A115-739D7CF90CE5";
shapes = (
{
closed = 1;
nodes = (
(25,0,l),
(167,0,l),
(325,285,l),
(483,0,l),
(624,0,l),
(411,354,l),
(619,700,l),
(480,700,l),
(325,420,l),
(170,700,l),
(30,700,l),
(238,354,l)
);
}
);
width = 648;
}
);
leftKerningGroup = X;
rightKerningGroup = K;
unicode = 88;
},
{
glyphname = s;
layers = (
{
anchors = (
{
name = top;
position = "{253, 520}";
},
{
name = bottom;
position = "{253, -20}";
}
);
layerId = "84EF03BF-F357-4104-A115-739D7CF90CE5";
shapes = (
{
closed = 1;
nodes = (
(190,70,o),
(142,98.418,o),
(114,138,c),
(46,70,l),
(86,20,o),
(156,-20,o),
(246,-20,cs),
(360,-20,o),
(449,44.143,o),
(449,141.359,cs),
(449,207.506,o),
(407.879,247.173,o),
(288,281.67,cs),
(205.878,305.303,o),
(176,327.773,o),
(176,367.862,cs),
(176,404.944,o),
(201,430,o),
(245,430,cs),
(292,430,o),
(340,401.582,o),
(368,362,c),
(436,430,l),
(396,480,o),
(326,520,o),
(239,520,cs),
(128,520,o),
(56,454.855,o),
(56,366.659,cs),
(56,291.492,o),
(107.878,234.906,o),
(236,201.292,cs),
(298.881,184.794,o),
(329,167.216,o),
(329,132.138,cs),
(329,96.058,o),
(297,70,o),
(244,70,cs)
);
}
);
width = 507;
}
);
leftKerningGroup = s1;
rightKerningGroup = s;
unicode = 115;
},
{
glyphname = S;
layers = (
{
anchors = (
{
name = bottom;
position = "{304, -20}";
},
{
name = top;
position = "{286, 719}";
}
);
layerId = "84EF03BF-F357-4104-A115-739D7CF90CE5";
shapes = (
{
closed = 1;
nodes = (
(218,80,o),
(160,113.363,o),
(109,172,c),
(38,101,l),
(102,21,o),
(189,-20,o),
(300,-20,cs),
(455,-20,o),
(551,60.125,o),
(551,183.318,cs),
(551,289.484,o),
(479.004,353.602,o),
(324,388.639,cs),
(222.004,411.693,o),
(168,444.726,o),
(168,508.826,cs),
(168,570.923,o),
(219,620,o),
(301,620,cs),
(368,620,o),
(426,586.637,o),
(477,528,c),
(548,599,l),
(484,679,o),
(397,720,o),
(292,720,cs),
(141,720,o),
(48,634.867,o),
(48,505.665,cs),
(48,393.49,o),
(118.967,326.226,o),
(290,290.329,cs),
(390.967,269.137,o),
(434,242.254,o),
(434,188.169,cs),
(434,125.07,o),
(377,80,o),
(291,80,cs)
);
}
);
width = 600;
}
);
leftKerningGroup = S1;
rightKerningGroup = S;
unicode = 83;
},
{
glyphname = period;
layers = (
{
layerId = "84EF03BF-F357-4104-A115-739D7CF90CE5";
shapes = (
{
closed = 1;
nodes = (
(63,11,o),
(92,-20,o),
(131,-20,cs),
(169,-20,o),
(199,11,o),
(199,49,cs),
(199,86,o),
(169,115,o),
(131,115,cs),
(92,115,o),
(63,86,o),
(63,49,cs)
);
}
);
width = 262;
}
);
unicode = 46;
},
{
glyphname = comma;
layers = (
{
layerId = "84EF03BF-F357-4104-A115-739D7CF90CE5";
shapes = (
{
closed = 1;
nodes = (
(63,-4,o),
(108,-34,o),
(151,-12,c),
(144,-49,o),
(118,-85,o),
(63,-133,c),
(71,-158,l),
(158,-93,o),
(199,-32,o),
(199,32,cs),
(199,87,o),
(169,115,o),
(130,115,cs),
(90,115,o),
(63,85,o),
(63,46,cs)
);
}
);
width = 262;
}
);
unicode = 44;
},
{
glyphname = parenleft;
layers = (
{
layerId = "84EF03BF-F357-4104-A115-739D7CF90CE5";
shapes = (
{
closed = 1;
nodes = (
(365,-172,l),
(256,-142,o),
(180,49,o),
(180,293,cs),
(180,529,o),
(254,704,o),
(365,734,c),
(365,777,l),
(176,741,o),
(60,564,o),
(60,310,cs),
(60,26,o),
(188,-194,o),
(365,-215,c)
);
}
);
width = 391;
}
);
unicode = 40;
},
{
glyphname = parenright;
layers = (
{
layerId = "84EF03BF-F357-4104-A115-739D7CF90CE5";
shapes = (
{
closed = 1;
nodes = (
(25,754,l),
(122,720,o),
(211,529,o),
(211,290,cs),
(211,49,o),
(121,-157,o),
(25,-192,c),
(25,-215,l),
(214,-177,o),
(331,17,o),
(331,291,cs),
(331,560,o),
(218,740,o),
(25,777,c)
);
}
);
width = 384;
}
);
unicode = 41;
},
{
glyphname = exclam;
layers = (
{
layerId = "84EF03BF-F357-4104-A115-739D7CF90CE5";
shapes = (
{
closed = 1;
nodes = (
(78,249,l),
(177,249,l),
(193,750,l),
(62,750,l)
);
},
{
alignment = -1;
pos = (5.787,-1.494);
ref = period;
scale = (0.925,0.925);
}
);
width = 255;
}
);
unicode = 33;
},
{
glyphname = bar;
layers = (
{
layerId = "84EF03BF-F357-4104-A115-739D7CF90CE5";
shapes = (
{
closed = 1;
nodes = (
(40,-131,l),
(78,-131,l),
(78,750,l),
(40,750,l)
);
}
);
width = 118;
}
);
unicode = 124;
},
{
glyphname = braceright;
layers = (
{
layerId = "84EF03BF-F357-4104-A115-739D7CF90CE5";
shapes = (
{
closed = 1;
nodes = (
(334,299,l),
(262,310,o),
(224,371,o),
(224,421,cs),
(224,602.032,ls),
(224,697.15,o),
(181,799.428,o),
(52,870,c),
(39,841,l),
(109,809.229,o),
(128,732.363,o),
(128,609.378,cs),
(128,429,ls),
(128,365,o),
(148,315,o),
(235,289,c),
(145,261,o),
(128,202,o),
(128,138,cs),
(128,-85.967,ls),
(128,-205.286,o),
(111,-276.681,o),
(41,-307,c),
(52,-336,l),
(181,-268.35,o),
(224,-174.229,o),
(224,-75.205,cs),
(224,165,ls),
(224,236,o),
(282,272,o),
(334,282,c)
);
}
);
width = 366;
}
);
unicode = 125;
},
{
glyphname = hyphen;
layers = (
{
layerId = "84EF03BF-F357-4104-A115-739D7CF90CE5";
shapes = (
{
closed = 1;
nodes = (
(50,261,l),
(340.156,261,l),
(340.156,297,l),
(50,297,l)
);
}
);
width = 390;
}
);
unicode = 45;
},
{
glyphname = endash;
layers = (
{
layerId = "84EF03BF-F357-4104-A115-739D7CF90CE5";
shapes = (
{
closed = 1;
nodes = (
(50,262,l),
(505,262,l),
(505,296,l),
(50,296,l)
);
}
);
width = 555;
}
);
unicode = 8211;
},
{
glyphname = emdash;
layers = (
{
layerId = "84EF03BF-F357-4104-A115-739D7CF90CE5";
shapes = (
{
closed = 1;
nodes = (
(50,262,l),
(864,262,l),
(864,296,l),
(50,296,l)
);
}
);
width = 914;
}
);
unicode = 8212;
},
{
glyphname = slash;
layers = (
{
layerId = "84EF03BF-F357-4104-A115-739D7CF90CE5";
shapes = (
{
closed = 1;
nodes = (
(-40,0,l),
(-14,0,l),
(358,700,l),
(332,700,l)
);
}
);
width = 315;
}
);
unicode = 47;
},
{
glyphname = greater;
layers = (
{
layerId = "84EF03BF-F357-4104-A115-739D7CF90CE5";
shapes = (
{
closed = 1;
nodes = (
(50,6,l),
(509,239,l),
(509,287,l),
(50,510,l),
(50,490,l),
(461,263,l),
(50,26,l)
);
}
);
width = 573;
}
);
unicode = 62;
},
{
glyphname = less;
layers = (
{
layerId = "84EF03BF-F357-4104-A115-739D7CF90CE5";
shapes = (
{
closed = 1;
nodes = (
(509,6,l),
(509,26,l),
(98,263,l),
(509,490,l),
(509,510,l),
(50,287,l),
(50,239,l)
);
}
);
width = 544;
}
);
unicode = 60;
},
{
glyphname = cent;
layers = (
{
layerId = "84EF03BF-F357-4104-A115-739D7CF90CE5";
shapes = (
{
closed = 1;
nodes = (
(337,610,l),
(337,730,l),
(287,730,l),
(287,610,l)
);
},
{
closed = 1;
nodes = (
(288,89,l),
(288,-31,l),
(336,-31,l),
(336,90,l)
);
},
{
alignment = -1;
pos = (0,100);
ref = c;
}
);
width = 563;
}
);
unicode = 162;
},
{
glyphname = Euro;
layers = (
{
layerId = "84EF03BF-F357-4104-A115-739D7CF90CE5";
shapes = (
{
closed = 1;
nodes = (
(257,720,o),
(126,606,o),
(100,424,c),
(25,424,l),
(18,380,l),
(515,380,l),
(522,424,l),
(222,424,l),
(225,527,o),
(313,619,o),
(434,619,cs),
(532,619,o),
(591,579,o),
(630,528,c),
(701,599,l),
(634,683,o),
(551,720,o),
(430,720,cs)
);
},
{
closed = 1;
nodes = (
(316,80,o),
(225,174,o),
(221,280,c),
(498,280,l),
(505,324,l),
(22,324,l),
(15,280,l),
(99,280,l),
(124,97,o),
(260,-20,o),
(436,-20,cs),
(570,-20,o),
(636,23,o),
(706,102,c),
(635,173,l),
(588,115,o),
(507,80,o),
(435,80,cs)
);
}
);
width = 730;
}
);
unicode = 8364;
},
{
glyphname = infinity;
layers = (
{
layerId = "84EF03BF-F357-4104-A115-739D7CF90CE5";
shapes = (
{
closed = 1;
nodes = (
(78,473,o),
(27,402,o),
(27,330,cs),
(27,241,o),
(92,214,o),
(153,214,cs),
(238,214,o),
(301,266,o),
(328,297,c),
(264,259,o),
(213,234,o),
(153,234,cs),
(96,234,o),
(47,266,o),
(47,326,cs),
(47,389,o),
(86,425,o),
(157,425,cs),
(197,425,o),
(256,384,o),
(316,339,cs),
(443,245,o),
(501,213,o),
(559,213,cs),
(643,213,o),
(694,284,o),
(694,356,cs),
(694,446,o),
(629,473,o),
(568,473,cs),
(483,473,o),
(420,421,o),
(393,390,c),
(457,428,o),
(508,453,o),
(568,453,cs),
(625,453,o),
(674,421,o),
(674,360,cs),
(674,297,o),
(635,261,o),
(564,261,cs),
(503,261,o),
(431,311,o),
(361,365,cs),
(290,420,o),
(220,473,o),
(154,473,cs)
);
}
);
width = 719;
}
);
unicode = 8734;
},
{
glyphname = Delta;
layers = (
{
layerId = "84EF03BF-F357-4104-A115-739D7CF90CE5";
shapes = (
{
closed = 1;
nodes = (
(133,0,l,{name = dv01;}),
(519,0,l),
(485,100,l,{name = dv03;}),
(167,100,l,{name = dv02;})
);
},
{
closed = 1;
nodes = (
(249,700,l),
(22,0,l),
(148,0,l),
(362,700,l)
);
},
{
closed = 1;
nodes = (
(293,700,l),
(507,0,l),
(633,0,l),
(406,700,l)
);
}
);
width = 655;
}
);
leftKerningGroup = A1;
rightKerningGroup = A;
unicode = 916;
},
{
glyphname = Ohm;
layers = (
{
anchors = (
{
name = topgr;
position = "{-10, 500}";
}
);
layerId = "84EF03BF-F357-4104-A115-739D7CF90CE5";
shapes = (
{
closed = 1;
nodes = (
(71,0,l),
(351,0,l),
(351,100,l),
(233.034,152.096,o),
(177,251.058,o),
(177,372.117,cs),
(177,524.882,o),
(262.467,620,o),
(395.088,620,cs),
(530.656,620,o),
(623,520.078,o),
(623,371.156,cs),
(623,248.175,o),
(562.722,152.096,o),
(448,100,c),
(448,0,l),
(728,0,l),
(728,100,l),
(580,100,l),
(682,141.066,o),
(747,256.252,o),
(747,387.464,cs),
(747,583.78,o),
(601,720,o),
(400,720,cs),
(198,720,o),
(53,582.779,o),
(53,383.457,cs),
(53,251.244,o),
(116,141.066,o),
(219,100,c),
(71,100,l)
);
}
);
width = 800;
}
);
leftKerningGroup = C1;
rightKerningGroup = C;
unicode = 8486;
},
{
glyphname = product;
layers = (
{
layerId = "84EF03BF-F357-4104-A115-739D7CF90CE5";
shapes = (
{
closed = 1;
nodes = (
(207,-125,l),
(207,600,l),
(559,600,l),
(559,-125,l),
(679,-125,l),
(679,700,l),
(87,700,l),
(87,-125,l)
);
}
);
width = 766;
}
);
unicode = 8719;
},
{
glyphname = guilsinglleft;
layers = (
{
layerId = "84EF03BF-F357-4104-A115-739D7CF90CE5";
shapes = (
{
closed = 1;
nodes = (
(275,20,l),
(97,254,l),
(97,266,l),
(275,500,l),
(265,518,l),
(50,284,l),
(50,236,l),
(265,2,l)
);
}
);
width = 305;
}
);
unicode = 8249;
},
{
glyphname = guilsinglright;
layers = (
{
layerId = "84EF03BF-F357-4104-A115-739D7CF90CE5";
shapes = (
{
closed = 1;
nodes = (
(30,20,l),
(40,2,l),
(255,236,l),
(255,284,l),
(40,518,l),
(30,500,l),
(208,266,l),
(208,254,l)
);
}
);
width = 305;
}
);
unicode = 8250;
},
{
glyphname = estimated;
layers = (
{
layerId = "84EF03BF-F357-4104-A115-739D7CF90CE5";
shapes = (
{
closed = 1;
nodes = (
(174,363,l),
(794,363,l),
(794,585,o),
(643,732,o),
(425,732,cs),
(207,732,o),
(57,585,o),
(57,363,cs),
(57,141,o),
(205,-6,o),
(425,-6,cs),
(512,-6,o),
(588,17,o),
(648,59,c),
(636,125,l),
(580,87,o),
(505,64,o),
(422,64,cs),
(303,64,o),
(235,111,o),
(174,193,c)
);
},
{
closed = 1;
nodes = (
(681,433,l),
(175,433,l),
(175,540,l),
(237,618,o),
(308,662,o),
(424,662,cs),
(545,662,o),
(620,614,o),
(681,532,c)
);
}
);
width = 850;
}
);
unicode = 8494;
},
{
glyphname = underscore;
layers = (
{
layerId = "84EF03BF-F357-4104-A115-739D7CF90CE5";
shapes = (
{
closed = 1;
nodes = (
(0,-63,l),
(500,-63,l),
(500,-27,l),
(0,-27,l)
);
}
);
width = 500;
}
);
unicode = 95;
},
{
glyphname = guillemotleft;
layers = (
{
layerId = "84EF03BF-F357-4104-A115-739D7CF90CE5";
shapes = (
{
closed = 1;
nodes = (
(267,27,l),
(79,255,l),
(268,496,l),
(254,510,l),
(32,280,l),
(32,232,l),
(253,13,l)
);
},
{
closed = 1;
nodes = (
(470,27,l),
(282,255,l),
(471,496,l),
(457,510,l),
(235,280,l),
(235,232,l),
(456,13,l)
);
}
);
width = 489;
}
);
unicode = 171;
},
{
glyphname = guillemotright;
layers = (
{
layerId = "84EF03BF-F357-4104-A115-739D7CF90CE5";
shapes = (
{
closed = 1;
nodes = (
(230,27,l),
(244,13,l),
(465,232,l),
(465,280,l),
(243,510,l),
(229,496,l),
(418,255,l)
);
},
{
closed = 1;
nodes = (
(27,27,l),
(41,13,l),
(262,232,l),
(262,280,l),
(40,510,l),
(26,496,l),
(215,255,l)
);
}
);
width = 494;
}
);
unicode = 187;
},
{
glyphname = commaaccentcomb;
layers = (
{
anchors = (
{
name = bottom;
position = "{123, -248}";
},
{
name = _bottom;
position = "{123, 0}";
}
);
layerId = "84EF03BF-F357-4104-A115-739D7CF90CE5";
shapes = (
{
closed = 1;
nodes = (
(68,-155.178,o),
(88,-173,o),
(116,-173,cs),
(132,-173,o),
(146,-167,o),
(153,-160,c),
(150,-203,o),
(118,-239,o),
(74,-261,c),
(84,-277,l),
(138,-260.083,o),
(177,-205.351,o),
(177,-143.654,cs),
(177,-99.868,o),
(157,-73,o),
(120,-73,cs),
(89,-73,o),
(68,-92.802,o),
(68,-124.485,cs)
);
}
);
width = 246;
}
);
unicode = 806;
},
{
glyphname = quotesinglbase;
layers = (
{
layerId = "84EF03BF-F357-4104-A115-739D7CF90CE5";
shapes = (
{
closed = 1;
nodes = (
(86,12,o),
(118,-20,o),
(156,-20,cs),
(166,-20,o),
(175,-18,o),
(187,-13,c),
(180,-54,o),
(141,-105,o),
(95,-133,c),
(104,-145,l),
(179,-108,o),
(224,-37,o),
(224,31,cs),
(224,87,o),
(194,118,o),
(154,118,cs),
(115,118,o),
(86,88,o),
(86,51,cs)
);
}
);
width = 308;
}
);
unicode = 8218;
},
{
glyphname = equal;
layers = (
{
layerId = "84EF03BF-F357-4104-A115-739D7CF90CE5";
shapes = (
{
closed = 1;
nodes = (
(50,137,l),
(464,137,l),
(464,173,l),
(50,173,l)
);
},
{
closed = 1;
nodes = (
(50,393,l),
(50,357,l),
(464,357,l),
(464,393,l)
);
}
);
width = 514;
}
);
unicode = 61;
},
{
glyphname = notequal;
layers = (
{
layerId = "84EF03BF-F357-4104-A115-739D7CF90CE5";
shapes = (
{
closed = 1;
nodes = (
(135,44,l),
(183,44,l),
(230,140,l),
(469,140,l),
(469,160,l),
(239,160,l),
(341,370,l),
(469,370,l),
(469,390,l),
(351,390,l),
(388,466,l),
(340,466,l),
(303,390,l),
(55,390,l),
(55,370,l),
(293,370,l),
(191,160,l),
(55,160,l),
(55,140,l),
(182,140,l)
);
}
);
width = 523;
}
);
unicode = 8800;
},
{
glyphname = brokenbar;
layers = (
{
layerId = "84EF03BF-F357-4104-A115-739D7CF90CE5";
shapes = (
{
closed = 1;
nodes = (
(51,341,l),
(89,341,l),
(89,751,l),
(51,751,l)
);
},
{
closed = 1;
nodes = (
(51,155,l),
(51,-254,l),
(89,-254,l),
(89,155,l)
);
}
);
width = 140;
}
);
unicode = 166;
},
{
glyphname = micro;
layers = (
{
anchors = (
{
name = topgr;
position = "{300, 520}";
}
);
layerId = "84EF03BF-F357-4104-A115-739D7CF90CE5";
shapes = (
{
closed = 1;
nodes = (
(76,-200,l),
(196,-200,l),
(196,500,l),
(76,500,l)
);
},
{
closed = 1;
nodes = (
(409,215,l),
(397,283,l),
(397,145.293,o),
(355,70,o),
(281,70,cs),
(224,70,o),
(196,114.792,o),
(196,198.403,cs),
(196,500,l),
(76,500,l),
(76,196,ls),
(76,51,o),
(134,-20,o),
(241,-20,cs),
(335,-20,o),
(383,35,o),
(409,134,c)
);
},
{
closed = 1;
nodes = (
(517,500,l),
(397,500,l),
(397,0,l),
(517,0,l)
);
}
);
width = 600;
}
);
leftKerningGroup = i;
rightKerningGroup = a1;
},
{
glyphname = bracketleft;
layers = (
{
layerId = "84EF03BF-F357-4104-A115-739D7CF90CE5";
shapes = (
{
closed = 1;
nodes = (
(367,778,l),
(87,778,l),
(87,-217,l),
(367,-217,l),
(367,-142,l),
(202,-142,l),
(202,703,l),
(367,703,l)
);
}
);
width = 420;
}
);
unicode = 91;
},
{
glyphname = bracketright;
layers = (
{
layerId = "84EF03BF-F357-4104-A115-739D7CF90CE5";
shapes = (
{
closed = 1;
nodes = (
(55,778,l),
(55,703,l),
(221,703,l),
(221,-142,l),
(55,-142,l),
(55,-217,l),
(336,-217,l),
(336,778,l)
);
}
);
width = 418;
}
);
unicode = 93;
},
{
glyphname = minus;
layers = (
{
layerId = "84EF03BF-F357-4104-A115-739D7CF90CE5";
shapes = (
{
closed = 1;
nodes = (
(50,323,l),
(516,323,l),
(516,357,l),
(50,357,l)
);
}
);
width = 566;
}
);
unicode = 8722;
},
{
glyphname = daggerdbl;
layers = (
{
layerId = "84EF03BF-F357-4104-A115-739D7CF90CE5";
shapes = (
{
closed = 1;
nodes = (
(289,-222,l),
(415,-222,l),
(407,15,l),
(650,1,l),
(650,76,l),
(405,62,l),
(380,237,l),
(405,412,l),
(650,398,l),
(650,473,l),
(407,459,l),
(415,696,l),
(289,696,l),
(298,459,l),
(50,473,l),
(50,398,l),
(300,412,l),
(325,237,l),
(300,62,l),
(50,76,l),
(50,1,l),
(298,15,l)
);
}
);
width = 722;
}
);
unicode = 8225;
},
{
glyphname = multiply;
layers = (
{
layerId = "84EF03BF-F357-4104-A115-739D7CF90CE5";
shapes = (
{
closed = 1;
nodes = (
(386,110,l),
(411,135,l),
(65,482,l),
(40,457,l)
);
},
{
closed = 1;
nodes = (
(65,110,l),
(411,457,l),
(386,482,l),
(40,135,l)
);
}
);
width = 452;
}
);
unicode = 215;
},
{
glyphname = dagger;
layers = (
{
layerId = "84EF03BF-F357-4104-A115-739D7CF90CE5";
shapes = (
{
closed = 1;
nodes = (
(374,-104,l),
(403,401,l),
(650,388,l),
(650,484,l),
(405,471,l),
(410,696,l),
(295,696,l),
(299,470,l),
(50,484,l),
(50,388,l),
(301,401,l),
(330,-104,l)
);
}
);
width = 701;
}
);
unicode = 8224;
},
{
glyphname = plus;
layers = (
{
layerId = "84EF03BF-F357-4104-A115-739D7CF90CE5";
shapes = (
{
closed = 1;
nodes = (
(260,262,l),
(260,55,l),
(296,55,l),
(296,262,l),
(516,262,l),
(516,298,l),
(296,298,l),
(296,505,l),
(260,505,l),
(260,298,l),
(50,298,l),
(50,262,l)
);
}
);
width = 566;
}
);
unicode = 43;
},
{
glyphname = florin;
layers = (
{
layerId = "84EF03BF-F357-4104-A115-739D7CF90CE5";
shapes = (
{
closed = 1;
nodes = (
(227,719,o),
(157,627,o),
(157,350,cs),
(157,135,o),
(115,74,o),
(47,74,cs),
(24,74,o),
(-13,81,o),
(-75,100,c),
(-90,6,l),
(-30,-11,o),
(4,-17,o),
(45,-17,cs),
(211,-17,o),
(279,82,o),
(279,375,cs),
(279,570,o),
(309,628,o),
(392,628,cs),
(428,628,o),
(470,617,o),
(518,599,c),
(534,696,l),
(475,713,o),
(440,719,o),
(397,719,cs)
);
},
{
closed = 1;
nodes = (
(19,480,l),
(19,390,l),
(485,390,l),
(485,480,l)
);
}
);
width = 533;
}
);
unicode = 402;
},
{
glyphname = integral;
layers = (
{
layerId = "84EF03BF-F357-4104-A115-739D7CF90CE5";
shapes = (
{
closed = 1;
nodes = (
(155.75,74,ls),
(154.041,-3.007,o),
(127.657,-63,o),
(64.448,-63,cs),
(39.365,-63,o),
(-14.814,-54,o),
(-71,0,c),
(-105,-112,l),
(-57,-143,o),
(6,-163,o),
(80,-163,cs),
(217,-163,o),
(272.677,-94.993,o),
(276,61,cs),
(285.5,507,ls),
(287.375,595.003,o),
(311.445,660,o),
(387.286,660,cs),
(408.242,660,o),
(468.116,655,o),
(523,608,c),
(557,709,l),
(517,742,o),
(444,760,o),
(373,760,cs),
(237,760,o),
(169.505,693.99,o),
(166,536,cs)
);
}
);
width = 452;
}
);
unicode = 8747;
},
{
glyphname = one;
layers = (
{
layerId = "84EF03BF-F357-4104-A115-739D7CF90CE5";
shapes = (
{
closed = 1;
nodes = (
(35,409,l),
(163,440,o),
(197,470,o),
(249,524,c),
(249,0,l),
(369,0,l),
(369,700,l),
(265,700,l),
(210,608,o),
(138,535,o),
(35,515,c)
);
}
);
width = 456;
}
);
unicode = 49;
},
{
glyphname = two;
layers = (
{
layerId = "84EF03BF-F357-4104-A115-739D7CF90CE5";
shapes = (
{
closed = 1;
nodes = (
(387,620,o),
(428,583,o),
(428,496,cs),
(428,348,o),
(311,266,o),
(82,185,c),
(82,85,l),
(430,183,o),
(548,312,o),
(548,481,cs),
(548,628,o),
(456,720,o),
(310,720,cs),
(221,720,o),
(139,685,o),
(95,637,c),
(171,561,l),
(207,598,o),
(251,620,o),
(310,620,cs)
);
},
{
closed = 1;
nodes = (
(82,100,l),
(82,0,l),
(548,0,l),
(548,100,l)
);
}
);
width = 632;
}
);
unicode = 50;
},
{
glyphname = quotesingle;
layers = (
{
layerId = "84EF03BF-F357-4104-A115-739D7CF90CE5";
shapes = (
{
closed = 1;
nodes = (
(63,566,l),
(141,566,l),
(156,803,l),
(48,803,l)
);
}
);
width = 204;
}
);
unicode = 39;
},
{
glyphname = quotedbl;
layers = (
{
layerId = "84EF03BF-F357-4104-A115-739D7CF90CE5";
shapes = (
{
closed = 1;
nodes = (
(65,566,l),
(143,566,l),
(158,803,l),
(50,803,l)
);
},
{
closed = 1;
nodes = (
(266,566,l),
(344,566,l),
(359,803,l),
(251,803,l)
);
}
);
width = 409;
}
);
unicode = 34;
},
{
glyphname = logicalnot;
layers = (
{
layerId = "84EF03BF-F357-4104-A115-739D7CF90CE5";
shapes = (
{
closed = 1;
nodes = (
(50,292,l),
(435,292,l),
(435,93,l),
(483,93,l),
(483,322,l),
(50,322,l)
);
}
);
width = 553;
}
);
unicode = 172;
},
{
glyphname = pi;
layers = (
{
anchors = (
{
name = topgr;
position = "{322, 520}";
}
);
layerId = "84EF03BF-F357-4104-A115-739D7CF90CE5";
shapes = (
{
closed = 1;
nodes = (
(408,148.744,ls),
(408,18.628,o),
(460,0,o),
(595,0,c),
(595,90,l),
(545,90,o),
(528,106.941,o),
(528,157.765,cs),
(528,410,l),
(596,410,l),
(596,500,l),
(39,500,l),
(39,410,l),
(105,410,l),
(105,0,l),
(225,0,l),
(225,410,l),
(408,410,l)
);
}
);
width = 645;
}
);
leftKerningGroup = i;
unicode = 960;
},
{
glyphname = three;
layers = (
{
layerId = "84EF03BF-F357-4104-A115-739D7CF90CE5";
shapes = (
{
closed = 1;
nodes = (
(24,84,l),
(91,18,o),
(182,-19,o),
(286,-19,cs),
(427,-19,o),
(533,48,o),
(533,183,cs),
(533,311,o),
(438,371,o),
(192,361,c),
(192,306,l),
(339,306,o),
(413,261,o),
(413,182,cs),
(413,115,o),
(359,81,o),
(279,81,cs),
(212,81,o),
(161,105,o),
(100,160,c)
);
},
{
closed = 1;
nodes = (
(510,644,o),
(420,720,o),
(282,720,cs),
(188,720,o),
(99,685,o),
(52,637,c),
(128,561,l),
(164,598,o),
(209,620,o),
(265,620,cs),
(336,620,o),
(390,584,o),
(390,524,cs),
(390,463,o),
(336,412,o),
(192,412,c),
(192,357,l),
(408,347,o),
(510,415,o),
(510,533,cs)
);
}
);
width = 578;
}
);
unicode = 51;
},
{
glyphname = zero;
layers = (
{
layerId = "84EF03BF-F357-4104-A115-739D7CF90CE5";
shapes = (
{
closed = 1;
nodes = (
(49,110,o),
(143,-19,o),
(316,-19,cs),
(487,-19,o),
(578,107,o),
(578,350,cs),
(578,592,o),
(488,720,o),
(320,720,cs),
(146,720,o),
(49,583,o),
(49,345,cs)
);
},
{
closed = 1;
nodes = (
(169,531,o),
(225,620,o),
(317,620,cs),
(406,620,o),
(458,537,o),
(458,352,cs),
(458,166,o),
(405,81,o),
(314,81,cs),
(223,81,o),
(169,167,o),
(169,347,cs)
);
}
);
width = 627;
}
);
unicode = 48;
},
{
glyphname = four;
layers = (
{
layerId = "84EF03BF-F357-4104-A115-739D7CF90CE5";
shapes = (
{
closed = 1;
nodes = (
(49,161,l),
(392,161,l),
(392,0,l),
(512,0,l),
(512,161,l),
(644,161,l),
(644,262,l),
(512,262,l),
(512,700,l),
(375,700,l),
(49,217,l)
);
},
{
closed = 1;
nodes = (
(202,262,l),
(392,544,l),
(392,262,l)
);
}
);
width = 685;
}
);
unicode = 52;
},
{
glyphname = five;
layers = (
{
layerId = "84EF03BF-F357-4104-A115-739D7CF90CE5";
shapes = (
{
closed = 1;
nodes = (
(214,600,l),
(528,600,l),
(528,700,l),
(126,700,l),
(63,280,l),
(151,335,o),
(217,364,o),
(297,364,cs),
(398,364,o),
(440,318,o),
(440,236,cs),
(440,136,o),
(377,80,o),
(283,80,cs),
(206,80,o),
(163,117,o),
(113,178,c),
(37,102,l),
(113,17,o),
(191,-20,o),
(294,-20,cs),
(460,-20,o),
(560,75.201,o),
(560,222.512,cs),
(560,361.805,o),
(471,454,o),
(326,454,cs),
(268,454,o),
(223,438.559,o),
(187,419,c)
);
}
);
width = 615;
}
);
unicode = 53;
},
{
glyphname = six;
layers = (
{
layerId = "84EF03BF-F357-4104-A115-739D7CF90CE5";
shapes = (
{
closed = 1;
nodes = (
(171,312,o),
(229,368,o),
(322,368,cs),
(409,368,o),
(469,319,o),
(469,227,cs),
(469,138,o),
(413,80,o),
(318,80,cs),
(228,80,o),
(171,132,o),
(171,222,cs)
);
},
{
closed = 1;
nodes = (
(404.205,620,o),
(449.205,598,o),
(485.205,561,c),
(561.205,637,l),
(514.205,685,o),
(425.205,720,o),
(331.205,720,cs),
(150.205,720,o),
(38,581,o),
(38,330,cs),
(38,97,o),
(134,-20,o),
(316,-20,cs),
(492,-20,o),
(589,89,o),
(589,228,cs),
(589,378,o),
(475,458,o),
(336,458,cs),
(247,458,o),
(193,425,o),
(139,362,c),
(139,531.658,o),
(229.205,620,o),
(334.051,620,cs)
);
}
);
width = 631;
}
);
unicode = 54;
},
{
glyphname = seven;
layers = (
{
layerId = "84EF03BF-F357-4104-A115-739D7CF90CE5";
shapes = (
{
closed = 1;
nodes = (
(128,0,l),
(258,0,l),
(530,640,l),
(530,700,l),
(44,700,l),
(44,600,l),
(383,600,l)
);
}
);
width = 565;
}
);
unicode = 55;
},
{
glyphname = eight;
layers = (
{
layerId = "84EF03BF-F357-4104-A115-739D7CF90CE5";
shapes = (
{
closed = 1;
nodes = (
(467.404,-20,o),
(569.5,53,o),
(569.5,182,cs),
(569.5,285,o),
(503.319,351,o),
(387,370,c),
(482,390,o),
(540,453,o),
(540,536,cs),
(540,647,o),
(443,720,o),
(302,720,cs),
(164,720,o),
(64,650,o),
(64,541,cs),
(64,453,o),
(125,391,o),
(223,370,c),
(106,351,o),
(36,282,o),
(36,180,cs),
(36,54,o),
(143.1,-20,o),
(306.253,-20,cs)
);
},
{
closed = 1;
nodes = (
(156,268.797,o),
(205.915,317,o),
(303.748,317,cs),
(398.587,317,o),
(449.5,271.809,o),
(449.5,195.487,cs),
(449.5,119.165,o),
(399.585,80,o),
(302.75,80,cs),
(205.915,80,o),
(156,119.165,o),
(156,194.483,cs)
);
},
{
closed = 1;
nodes = (
(372,620,o),
(420,580.612,o),
(420,521.025,cs),
(420,461.438,o),
(371,417,o),
(300,417,cs),
(232,417,o),
(184,457.398,o),
(184,516.985,cs),
(184,577.582,o),
(234,620,o),
(304,620,cs)
);
}
);
width = 605;
}
);
unicode = 56;
},
{
glyphname = question;
layers = (
{
layerId = "84EF03BF-F357-4104-A115-739D7CF90CE5";
shapes = (
{
closed = 1;
nodes = (
(88,573,l),
(142,636,o),
(201,667,o),
(269,667,cs),
(350,667,o),
(401,631.226,o),
(401,556.323,cs),
(401,476.218,o),
(342,414.28,o),
(181,345,c),
(181,250,l),
(301,250,l),
(301,332,l),
(405,364,o),
(521,452,o),
(521,577,cs),
(521,690,o),
(425,767,o),
(282,767,cs),
(173,767,o),
(77,722,o),
(15,646,c)
);
},
{
closed = 1;
nodes = (
(178.944,8.746,o),
(205.835,-20,o),
(242,-20,cs),
(277.237,-20,o),
(305.056,8.746,o),
(305.056,43.984,cs),
(305.056,78.294,o),
(277.237,105.185,o),
(242,104,cs),
(205.835,105.185,o),
(178.944,78.293,o),
(178.944,43.984,cs)
);
}
);
width = 551;
}
);
unicode = 63;
},
{
glyphname = section;
layers = (
{
layerId = "84EF03BF-F357-4104-A115-739D7CF90CE5";
shapes = (
{
closed = 1;
nodes = (
(448,48,l),
(519.688,83,o),
(561,140,o),
(561,213,cs),
(561,319,o),
(489.008,377.033,o),
(334,409,cs),
(232.008,430.033,o),
(178,460,o),
(178,518,cs),
(178,574,o),
(225.699,619,o),
(300.521,619,cs),
(365.055,619,o),
(419.301,586,o),
(467,528,c),
(538,599,l),
(476.56,679,o),
(393.04,720,o),
(290.32,720,cs),
(147.28,720,o),
(58,640,o),
(58,520,cs),
(58,415,o),
(129.031,352.141,o),
(301,318,cs),
(401.031,298.141,o),
(444,273,o),
(444,219,cs),
(444,184,o),
(418.5,155,o),
(376,135,c)
);
},
{
closed = 1;
nodes = (
(131,452,l),
(72,417,o),
(38,360,o),
(38,287,cs),
(38,181,o),
(108.113,122.966,o),
(259.073,91,cs),
(358.403,69.966,o),
(411,40,o),
(411,-18,cs),
(411,-74,o),
(361.65,-119,o),
(284.239,-119,cs),
(217.472,-119,o),
(161.35,-86,o),
(112,-28,c),
(41,-99,l),
(103.72,-179,o),
(188.98,-220,o),
(293.84,-220,cs),
(439.86,-220,o),
(531,-140,o),
(531,-20,cs),
(531,85,o),
(461.811,147.859,o),
(294.295,182,cs),
(196.857,201.859,o),
(155,227,o),
(155,281,cs),
(155,316,o),
(173,345,o),
(203,365,c)
);
}
);
width = 590;
}
);
unicode = 167;
},
{
glyphname = numbersign;
layers = (
{
layerId = "84EF03BF-F357-4104-A115-739D7CF90CE5";
shapes = (
{
closed = 1;
nodes = (
(755,205,l),
(755,255,l),
(611,255,l),
(649,440,l),
(802,440,l),
(802,490,l),
(659,490,l),
(702,700,l),
(580,700,l),
(537,490,l),
(349,490,l),
(392,700,l),
(270,700,l),
(228,490,l),
(74,490,l),
(74,440,l),
(217,440,l),
(179,255,l),
(28,255,l),
(28,205,l),
(169,205,l),
(127,0,l),
(249,0,l),
(291,205,l),
(479,205,l),
(437,0,l),
(559,0,l),
(601,205,l)
);
},
{
closed = 1;
nodes = (
(301,255,l),
(339,440,l),
(527,440,l),
(489,255,l)
);
}
);
width = 830;
}
);
unicode = 35;
},
{
glyphname = asterisk;
layers = (
{
layerId = "84EF03BF-F357-4104-A115-739D7CF90CE5";
shapes = (
{
closed = 1;
nodes = (
(253,700,l),
(266,505,l),
(101,621,l),
(78,580,l),
(259,486,l),
(78,393,l),
(101,351,l),
(266,468,l),
(253,272,l),
(300,272,l),
(286,468,l),
(450,353,l),
(472,394,l),
(293,486,l),
(472,579,l),
(449,620,l),
(286,505,l),
(300,700,l)
);
}
);
width = 553;
}
);
unicode = 42;
},
{
glyphname = copyright;
layers = (
{
layerId = "84EF03BF-F357-4104-A115-739D7CF90CE5";
shapes = (
{
closed = 1;
nodes = (
(589,12,o),
(773,138,o),
(773,357,cs),
(773,572,o),
(596,688,o),
(411,688,cs),
(227,688,o),
(44,573,o),
(44,357,cs),
(44,137,o),
(233,12,o),
(411,12,cs)
);
},
{
closed = 1;
nodes = (
(585,628,o),
(713,514,o),
(713,354,cs),
(713,186,o),
(573,72,o),
(411,72,cs),
(243,72,o),
(104,195,o),
(104,358,cs),
(104,513,o),
(231,628,o),
(408,628,cs)
);
},
{
closed = 1;
nodes = (
(323.464,227.672,o),
(307.588,295.08,o),
(307.588,355.117,cs),
(307.588,436.548,o),
(338.619,475.193,o),
(403.709,475.193,cs,{name = sv01;}),
(445.337,475.193,o),
(489.235,460.1,o),
(513.454,431.226,c),
(562.421,480.193,l),
(532.177,519.648,o),
(477.45,547.193,o),
(406.88,547.193,cs),
(294.545,547.193,o),
(231.176,475.501,o),
(231.176,355.291,cs),
(231.176,227.84,o),
(294.545,156.149,o),
(406.16,156.149,cs,{name = dv01;}),
(478.17,156.149,o),
(536.498,182.792,o),
(566.742,220.957,c),
(517.775,269.924,l),
(495.093,243.75,o),
(443.68,228.366,o),
(405.121,228.149,cs,{name = dv02;})
);
}
);
width = 817;
}
);
unicode = 169;
},
{
glyphname = registered;
layers = (
{
layerId = "84EF03BF-F357-4104-A115-739D7CF90CE5";
shapes = (
{
closed = 1;
nodes = (
(589,12,o),
(773,138,o),
(773,357,cs),
(773,572,o),
(596,688,o),
(411,688,cs),
(227,688,o),
(44,573,o),
(44,357,cs),
(44,137,o),
(233,12,o),
(411,12,cs)
);
},
{
closed = 1;
nodes = (
(585,628,o),
(713,514,o),
(713,354,cs),
(713,186,o),
(573,72,o),
(411,72,cs),
(243,72,o),
(104,195,o),
(104,358,cs),
(104,513,o),
(231,628,o),
(408,628,cs)
);
},
{
closed = 1;
nodes = (
(342.8,150,l,{name = ab01;}),
(342.8,476,l,{name = sv01;}),
(404.102,476,ls),
(478.223,476,o),
(499.4,459.246,o),
(499.4,417.599,cs),
(499.4,374.994,o),
(476.666,358.24,o),
(401.078,358.24,cs),
(284,358.24,l,{name = dv02;}),
(284,292.24,l,{name = dv01;}),
(429.408,292.24,ls),
(520.507,292.24,o),
(575.4,341.52,o),
(575.4,418.24,cs),
(575.4,495.52,o),
(519.859,542,o),
(428.654,542,cs,{name = at01;}),
(270.8,542,l),
(270.8,150,l)
);
},
{
closed = 1;
nodes = (
(419.4,307.36,l),
(505.2,150,l,{name = ab02;}),
(586.2,150,l),
(484.2,336.48,l)
);
}
);
width = 817;
}
);
unicode = 174;
},
{
glyphname = ordfeminine;
layers = (
{
layerId = "84EF03BF-F357-4104-A115-739D7CF90CE5";
shapes = (
{
closed = 1;
nodes = (
(384,335,l),
(481,335,l),
(481,702,l),
(384,702,l)
);
},
{
closed = 1;
nodes = (
(405,642,o),
(347,720,o),
(245,720,cs),
(144,720,o),
(73,643,o),
(73,521,cs),
(73,399,o),
(145,320,o),
(246,320,cs),
(347,320,o),
(405,398,o),
(405,520,cs)
);
},
{
closed = 1;
nodes = (
(170,599.812,o),
(209,648,o),
(276,648,cs),
(342,648,o),
(384,599.812,o),
(384,522.51,cs),
(384,443.2,o),
(339,392,o),
(273,392,cs),
(208,392,o),
(170,440.188,o),
(170,519.498,cs)
);
}
);
width = 549;
}
);
unicode = 170;
},
{
glyphname = ordmasculine;
layers = (
{
layerId = "84EF03BF-F357-4104-A115-739D7CF90CE5";
shapes = (
{
closed = 1;
nodes = (
(74,393,o),
(144,317,o),
(258,317,cs),
(374,317,o),
(443,393,o),
(443,523,cs),
(443,631,o),
(373,720,o),
(258,720,cs),
(143,720,o),
(74,631,o),
(74,523,cs)
);
},
{
closed = 1;
nodes = (
(356,429,o),
(313,385,o),
(257,385,cs),
(202,385,o),
(161,427,o),
(161,526,cs),
(161,611,o),
(201,652,o),
(256,652,cs),
(312,652,o),
(356,619,o),
(356,523,cs)
);
}
);
width = 516;
}
);
unicode = 186;
},
{
glyphname = paragraph;
layers = (
{
layerId = "84EF03BF-F357-4104-A115-739D7CF90CE5";
shapes = (
{
closed = 1;
nodes = (
(50,383,o),
(108,282,o),
(308,282,cs),
(338,282,l),
(338,-132,l),
(386,-132,l),
(386,731,l),
(476,731,l),
(476,-132,l),
(524,-132,l),
(524,751,l),
(308,751,ls),
(129,751,o),
(50,663,o),
(50,523,cs)
);
}
);
width = 590;
}
);
unicode = 182;
},
{
glyphname = partialdiff;
layers = (
{
layerId = "84EF03BF-F357-4104-A115-739D7CF90CE5";
shapes = (
{
closed = 1;
nodes = (
(204,569,l),
(247,601,o),
(319,619,o),
(380,619,cs),
(495,619,o),
(566,556,o),
(566,439,cs),
(566,405,o),
(560,327,o),
(540,295,c),
(516,255,l),
(532,256,l),
(542,278,l),
(565,372,o),
(479,467,o),
(327,467,cs),
(165,467,o),
(28,360,o),
(28,206,cs),
(28,73,o),
(131,-20,o),
(278,-20,cs),
(497,-20,o),
(675,188,o),
(675,425,cs),
(675,613,o),
(563,720,o),
(385,720,cs),
(306,720,o),
(201,699,o),
(132,641,c)
);
},
{
closed = 1;
nodes = (
(431,375,o),
(495,323,o),
(495,242,cs),
(495,140,o),
(395,83,o),
(303,83,cs),
(214,83,o),
(148,136,o),
(148,220,cs),
(148,307,o),
(219,375,o),
(332,375,cs)
);
}
);
width = 730;
}
);
unicode = 8706;
},
{
glyphname = sterling;
layers = (
{
layerId = "84EF03BF-F357-4104-A115-739D7CF90CE5";
shapes = (
{
closed = 1;
nodes = (
(21,358,l),
(21,298,l),
(485,298,l),
(485,358,l)
);
},
{
closed = 1;
nodes = (
(377,619,o),
(432,589,o),
(493,527,c),
(565,599,l),
(499,680,o),
(412,720,o),
(311,720,cs),
(166,720,o),
(67,637,o),
(67,520,cs),
(67,462,o),
(91,407,o),
(124,347,cs),
(147,305,o),
(172,265,o),
(172,210,cs),
(172,130,o),
(120,86,o),
(60,46,c),
(50,-44,l),
(113,32,o),
(149,50,o),
(194,50,cs),
(285,50,o),
(295,-26,o),
(414,-26,cs),
(511,-26,o),
(581,24,o),
(606,104,c),
(586,144,l),
(569,88,o),
(510,47,o),
(439,47,cs),
(344,47,o),
(353,122,o),
(249,122,c),
(264,143,o),
(282,173,o),
(282,222,cs),
(282,334,o),
(188,397,o),
(188,502,cs),
(188,580,o),
(240,619,o),
(313,619,cs)
);
}
);
width = 634;
}
);
unicode = 163;
},
{
glyphname = asciitilde;
layers = (
{
layerId = "84EF03BF-F357-4104-A115-739D7CF90CE5";
shapes = (
{
closed = 1;
nodes = (
(36,243,l),
(54,286,o),
(104,307,o),
(149,307,cs),
(179,307,o),
(199.968,296.958,o),
(240,266,cs),
(274.968,238.958,o),
(298,226,o),
(340,226,cs),
(395,226,o),
(441,248,o),
(465,329,c),
(455,329,l),
(438,289,o),
(404,277,o),
(365,277,cs),
(329,277,o),
(304.965,286.956,o),
(268,316,cs),
(234.965,341.956,o),
(208,356,o),
(171,356,cs),
(113,356,o),
(52,321,o),
(26,243,c)
);
}
);
width = 496;
}
);
unicode = 126;
},
{
glyphname = approxequal;
layers = (
{
layerId = "84EF03BF-F357-4104-A115-739D7CF90CE5";
shapes = (
{
closed = 1;
nodes = (
(42,166,l),
(60,209,o),
(110,230,o),
(155,230,cs),
(185,230,o),
(205.968,219.958,o),
(246,189,cs),
(280.968,161.958,o),
(304,149,o),
(346,149,cs),
(401,149,o),
(447,171,o),
(471,252,c),
(461,252,l),
(444,212,o),
(410,200,o),
(371,200,cs),
(335,200,o),
(310.965,209.956,o),
(274,239,cs),
(240.965,264.956,o),
(214,279,o),
(177,279,cs),
(119,279,o),
(58,244,o),
(32,166,c)
);
},
{
closed = 1;
nodes = (
(40,323,l),
(58,366,o),
(108,387,o),
(153,387,cs),
(183,387,o),
(203.968,376.958,o),
(244,346,cs),
(278.968,318.958,o),
(302,306,o),
(344,306,cs),
(399,306,o),
(445,328,o),
(469,409,c),
(459,409,l),
(442,369,o),
(408,357,o),
(369,357,cs),
(333,357,o),
(308.965,366.956,o),
(272,396,cs),
(238.965,421.956,o),
(212,436,o),
(175,436,cs),
(117,436,o),
(56,401,o),
(30,323,c)
);
}
);
width = 542;
}
);
unicode = 8776;
},
{
glyphname = at;
layers = (
{
layerId = "84EF03BF-F357-4104-A115-739D7CF90CE5";
shapes = (
{
closed = 1;
nodes = (
(44,-6,o),
(199,-159,o),
(423,-159,cs),
(463,-159,o),
(499,-154,o),
(534,-147,c),
(534,-97,l),
(502,-103,o),
(463,-109,o),
(424,-109,cs),
(245,-109,o),
(104,17,o),
(104,247,cs),
(104,491,o),
(264,611,o),
(447,611,cs),
(631,611,o),
(781,490,o),
(781,279,cs),
(781,145,o),
(727.63,83,o),
(669.812,83,cs),
(631.564,83,o),
(620,111,o),
(620,151,cs),
(620,164,l),
(639,422,l),
(593,447,o),
(545,460,o),
(486,460,cs),
(315,460,o),
(234,349,o),
(234,220,cs),
(234,90,o),
(319.594,21,o),
(421.688,21,cs),
(503.156,21,o),
(531,65,o),
(552,128,c),
(548.143,59,o),
(597,23,o),
(667,23,cs),
(792,23,o),
(841,136,o),
(841,282,cs),
(841,507,o),
(680,661,o),
(448,661,cs),
(216,661,o),
(44,507,o),
(44,244,cs)
);
},
{
closed = 1;
nodes = (
(334,316.485,o),
(389,388,o),
(466,388,cs),
(493,388,o),
(523,379.061,o),
(544,362.175,c),
(541,332.377,o),
(534.948,290.665,o),
(532,262.848,cs),
(518.948,139.689,o),
(484,93,o),
(420,93,cs),
(357,93,o),
(334,138.69,o),
(334,208.219,cs)
);
}
);
width = 885;
}
);
unicode = 64;
},
{
glyphname = ampersand;
layers = (
{
layerId = "84EF03BF-F357-4104-A115-739D7CF90CE5";
shapes = (
{
closed = 1;
nodes = (
(280,419,l),
(227.344,459,o),
(203.5,504,o),
(203.5,543,cs),
(203.5,590,o),
(237.403,620,o),
(291.249,620,cs),
(344.097,620,o),
(373,590,o),
(373,548,cs),
(373,481,o),
(292,449,o),
(226,415,c)
);
},
{
closed = 1;
nodes = (
(311,365,l),
(442,425,o),
(490,474,o),
(490,555,cs),
(490,656,o),
(413.906,720,o),
(291.754,720,cs),
(170.604,720,o),
(86.5,657,o),
(86.5,557,cs),
(86.5,500,o),
(114.657,429,o),
(176,377,c),
(90,343,o),
(37,274,o),
(37,183,cs),
(37,59,o),
(134,-20,o),
(280,-20,cs),
(425,-20,o),
(543,58,o),
(642,206,c),
(569,279,l),
(487,157,o),
(383,80,o),
(285,80,cs),
(210,80,o),
(157,125,o),
(157,205,cs),
(157,253,o),
(176,301,o),
(221,325,c),
(514,0,l),
(636,0,l)
);
}
);
width = 664;
}
);
unicode = 38;
},
{
glyphname = degree;
layers = (
{
layerId = "84EF03BF-F357-4104-A115-739D7CF90CE5";
shapes = (
{
closed = 1;
nodes = (
(67,460,o),
(144,390,o),
(247,390,cs),
(349,390,o),
(418,458,o),
(418,556,cs),
(418,654,o),
(350,719,o),
(248,719,cs),
(143,719,o),
(67,651,o),
(67,556,cs)
);
},
{
closed = 1;
nodes = (
(144,628,o),
(181,668,o),
(244,668,cs),
(308,668,o),
(342,627,o),
(342,554,cs),
(342,474,o),
(301,441,o),
(243,441,cs),
(180,441,o),
(144,481,o),
(144,554,cs)
);
}
);
width = 483;
}
);
unicode = 176;
},
{
glyphname = asciicircum;
layers = (
{
layerId = "84EF03BF-F357-4104-A115-739D7CF90CE5";
shapes = (
{
closed = 1;
nodes = (
(50,520,l),
(98,520,l),
(257,739,l),
(417,519,l),
(465,519,l),
(303,779,l),
(211,779,l)
);
}
);
width = 515;
}
);
unicode = 94;
},
{
glyphname = bullet;
layers = (
{
layerId = "84EF03BF-F357-4104-A115-739D7CF90CE5";
shapes = (
{
closed = 1;
nodes = (
(289,218,o),
(335,262,o),
(335,318,cs),
(335,373,o),
(289,419,o),
(234,419,cs),
(180,419,o),
(134,373,o),
(134,318,cs),
(134,262,o),
(180,218,o),
(234,218,cs)
);
}
);
width = 471;
}
);
unicode = 8226;
},
{
glyphname = summation;
layers = (
{
layerId = "84EF03BF-F357-4104-A115-739D7CF90CE5";
shapes = (
{
closed = 1;
nodes = (
(621,-125,l),
(621,-25,l),
(212,-25,l),
(504,282,l),
(212,600,l),
(621,600,l),
(621,700,l),
(30,700,l),
(30,630,l),
(347,282,l),
(30,-55,l),
(30,-125,l)
);
}
);
width = 662;
}
);
unicode = 8721;
},
{
glyphname = radical;
layers = (
{
layerId = "84EF03BF-F357-4104-A115-739D7CF90CE5";
shapes = (
{
closed = 1;
nodes = (
(401,-125.246,l),
(704.74,809,l),
(579.74,809,l),
(320,-27.246,l),
(217,280.754,l),
(1,280.754,l),
(1,190.754,l),
(121,190.754,l),
(242,-125.246,l)
);
}
);
width = 660;
}
);
unicode = 8730;
},
{
glyphname = fraction;
layers = (
{
layerId = "84EF03BF-F357-4104-A115-739D7CF90CE5";
shapes = (
{
closed = 1;
nodes = (
(-90,0,l),
(-50,0,l),
(306,700,l),
(266,700,l)
);
}
);
width = 216;
}
);
unicode = 8260;
},
{
glyphname = ampersand.ss09;
layers = (
{
layerId = "84EF03BF-F357-4104-A115-739D7CF90CE5";
shapes = (
{
closed = 1;
nodes = (
(471,600,l),
(471,700,l),
(235,700,ls),
(128,700,o),
(71,637,o),
(71,570,cs),
(71,503,o),
(105,459,o),
(178,379,c),
(85,339,o),
(37,270,o),
(37,177,cs),
(37,53,o),
(132,-20,o),
(295,-20,cs),
(496,-20,o),
(600,122,o),
(600,310,c),
(480,310,l),
(480,165,o),
(422,81,o),
(291,81,cs),
(206,81,o),
(157,122,o),
(157,194,cs),
(157,282,o),
(203,334,o),
(318,378,c),
(210,512,ls),
(175,555,o),
(190,600,o),
(242,600,cs)
);
},
{
closed = 1;
nodes = (
(438,131,l),
(569,0,l),
(641,0,l),
(641,84,l),
(510,215,l)
);
}
);
width = 660;
}
);
},
{
glyphname = g.ss03;
layers = (
{
anchors = (
{
name = top;
position = "{295, 520}";
},
{
name = bottom;
position = "{295, -220}";
}
);
layerId = "84EF03BF-F357-4104-A115-739D7CF90CE5";
shapes = (
{
closed = 1;
nodes = (
(426,124,o),
(521,206,o),
(521,322,cs,{name = sv14;}),
(521,437,o),
(427,520,o),
(296,520,cs,{name = at01;}),
(163,520,o),
(69,435,o),
(69,318,cs),
(69,202,o),
(162,124,o),
(292,124,cs,{name = dv05;})
);
},
{
closed = 1;
nodes = (
(365,430,o),
(401,389,o),
(401,320,cs,{name = sv13;}),
(401,250,o),
(364,214,o),
(294,214,cs,{name = dv06;}),
(224,214,o),
(189,249,o),
(189,316,cs,{name = sv09;}),
(189,388,o),
(229,430,o),
(297,430,cs,{name = sv01;})
);
},
{
closed = 1;
nodes = (
(213,-130,o),
(178,-104,o),
(173,-33,c,{name = sv04;}),
(56,-33,l,{name = sv12;}),
(63,-152,o),
(156,-220,o),
(313,-220,cs,{name = dv01;}),
(450,-220,o),
(544,-168,o),
(544,-62,cs,{name = sv08;}),
(544,29,o),
(475,75,o),
(296,75,cs,{name = sv05;}),
(181,75,o),
(137,94,o),
(137,133,cs,{name = sv06;}),
(137,160,o),
(158,173,o),
(195,190,c,{name = sv10;}),
(194,247,l,{name = sv11;}),
(102,221,o),
(52,179,o),
(52,109,cs),
(52,36,o),
(109,-5,o),
(281,-5,cs,{name = ab01;}),
(392,-5,o),
(430,-22,o),
(430,-66,cs,{name = sv07;}),
(430,-115,o),
(381,-130,o),
(308,-130,cs,{name = dv02;})
);
},
{
closed = 1;
nodes = (
(584,568,o),
(559,594,o),
(521,594,cs,{name = dv04;}),
(462,594,o),
(403,530,o),
(394,435,c,{name = sv02;}),
(411,432,l,{name = sv03;}),
(416,483,o),
(456,530,o),
(478,535,c,{name = at02;}),
(475,503,o),
(500,477,o),
(532,477,cs,{name = dv03;}),
(562,477,o),
(584,500,o),
(584,533,cs)
);
}
);
width = 590;
}
);
leftKerningGroup = a;
},
{
glyphname = y.ss04;
layers = (
{
anchors = (
{
name = bottom;
position = "{438, 0}";
},
{
name = top;
position = "{283, 520}";
}
);
layerId = "84EF03BF-F357-4104-A115-739D7CF90CE5";
shapes = (
{
closed = 1;
nodes = (
(536,500,l,{name = av01;}),
(409,500,l),
(251,-17,ls),
(230.667,-83.532,o),
(204,-128,o),
(148,-128,cs,{name = dv02;}),
(131,-128,o),
(98,-123,o),
(76,-114,c),
(54,-198,l),
(99,-212,o),
(113,-221,o),
(178,-221,cs,{name = dv01;}),
(270,-221,o),
(308,-163,o),
(337,-78,cs)
);
},
{
closed = 1;
nodes = (
(309,0,l),
(157,500,l,{name = av02;}),
(30,500,l),
(202,0,l)
);
}
);
width = 565;
}
);
leftKerningGroup = v;
rightKerningGroup = v1;
},
{
glyphname = n;
layers = (
{
anchors = (
{
name = top;
position = "{318, 520}";
},
{
name = bottom;
position = "{318, -20}";
}
);
layerId = "84EF03BF-F357-4104-A115-739D7CF90CE5";
shapes = (
{
closed = 1;
nodes = (
(197,280,l),
(204,217,l,{name = iv01;}),
(204,345.204,o),
(252,430,o),
(340,430,cs,{name = sv01;}),
(399,430,o),
(431,399.86,o),
(431,291.355,cs),
(431,0,l,{name = ab01;}),
(551,0,l),
(551,314,ls),
(551,458,o),
(484,520,o),
(380,520,cs,{name = at01;}),
(287,520,o),
(210,452,o),
(196,355,c)
);
},
{
closed = 1;
nodes = (
(84,0,l,{name = ab02;}),
(204,0,l),
(204,500,l,{name = av01;}),
(84,500,l)
);
}
);
width = 635;
}
);
leftKerningGroup = i;
rightKerningGroup = h;
unicode = 110;
},
{
glyphname = Schwa;
layers = (
{
anchors = (
{
name = top;
position = "{390, 719}";
},
{
name = bottom;
position = "{390, -20}";
}
);
layerId = "84EF03BF-F357-4104-A115-739D7CF90CE5";
shapes = (
{
closed = 1;
nodes = (
(295,620,o),
(233,589.67,o),
(180,528,c),
(109,599,l),
(175,681,o),
(264,720,o),
(379,720,cs,{name = dv04;}),
(595,720,o),
(726,582,o),
(726,356,cs,{name = sh03;}),
(726,129,o),
(593.099,-20,o),
(390.25,-20,cs,{name = dv01;}),
(187.4,-20,o),
(53.5,129,o),
(53.5,345,cs,{name = sh01;}),
(53.5,371,o),
(55.25,393,o),
(57,408,c,{name = sh04;}),
(618,408,l,{name = dv06;}),
(619,308,l,{name = dv05;}),
(173.5,308,l,{name = sh02;}),
(183.512,165.374,o),
(264.605,80,o),
(390.751,80,cs,{name = dv02;}),
(526.908,80,o),
(607,178.364,o),
(607,352.007,cs),
(607,527.658,o),
(525,620,o),
(379,620,cs,{name = dv03;})
);
}
);
width = 779;
}
);
leftKerningGroup = C1;
rightKerningGroup = C;
unicode = 399;
},
{
glyphname = schwa;
layers = (
{
anchors = (
{
name = top;
position = "{306, 520}";
},
{
name = bottom;
position = "{306, -20}";
}
);
layerId = "84EF03BF-F357-4104-A115-739D7CF90CE5";
shapes = (
{
closed = 1;
nodes = (
(171,214,l,{name = dv03;}),
(179,122,o),
(226,70,o),
(303,70,cs,{name = dv02;}),
(379,70,o),
(425,120.35,o),
(433,214,c,{name = ah01;})
);
},
{
closed = 1;
nodes = (
(247,430,o),
(186.422,406.657,o),
(153,362,c),
(85,430,l),
(127,483,o),
(203,520,o),
(301,520,cs),
(460,520,o),
(554,421,o),
(554,256,cs,{name = sh02;}),
(554,89,o),
(458,-20,o),
(301,-20,cs,{name = dv01;}),
(147,-20,o),
(50,84,o),
(50,253,cs,{name = sh01;}),
(50,270,o),
(51,279,o),
(53,294,c,{name = dv04;}),
(431,294,l,{name = sh03;}),
(428.211,374.593,o),
(378,430,o),
(298,430,cs)
);
}
);
width = 613;
}
);
leftKerningGroup = a;
rightKerningGroup = b1;
unicode = 601;
},
{
glyphname = yen;
layers = (
{
layerId = "84EF03BF-F357-4104-A115-739D7CF90CE5";
shapes = (
{
closed = 1;
nodes = (
(130,152,l),
(130,117,l),
(533,117,l),
(533,152,l)
);
},
{
closed = 1;
nodes = (
(130,283,l),
(130,248,l),
(533,248,l),
(533,283,l)
);
},
{
alignment = -1;
ref = Y;
}
);
width = 662;
}
);
unicode = 165;
},
{
glyphname = G.ss03;
layers = (
{
anchors = (
{
name = bottom;
position = "{398, -19}";
},
{
name = top;
position = "{387, 719}";
}
);
layerId = "84EF03BF-F357-4104-A115-739D7CF90CE5";
shapes = (
{
closed = 1;
nodes = (
(259,620,o),
(173,518.625,o),
(173,351.004,cs,{name = dv07;}),
(173,176.357,o),
(272,80,o),
(398,80,cs,{name = dv04;}),
(516,80,o),
(597,158,o),
(597,280,c,{name = sv02;}),
(380,280,l,{name = dv05;}),
(380,375,l,{name = dv06;}),
(720,375,l,{name = sv01;}),
(720,321,ls,{name = sv03;}),
(720,119,o),
(594,-20,o),
(396,-20,cs,{name = dv03;}),
(195,-20,o),
(53,132,o),
(53,348,cs,{name = dv08;}),
(53,561,o),
(178,720,o),
(390,720,cs),
(509,720,o),
(604,677,o),
(673,593,c),
(634,465,l),
(560,579.74,o),
(498,620,o),
(392,620,cs)
);
}
);
width = 773;
}
);
leftKerningGroup = C1;
rightKerningGroup = C;
},
{
glyphname = softhyphen;
layers = (
{
layerId = "84EF03BF-F357-4104-A115-739D7CF90CE5";
shapes = (
{
closed = 1;
nodes = (
(50,262,l),
(414,262,l),
(414,296,l),
(50,296,l)
);
}
);
width = 464;
}
);
unicode = 173;
},
{
glyphname = lira;
layers = (
{
layerId = "84EF03BF-F357-4104-A115-739D7CF90CE5";
shapes = (
{
closed = 1;
nodes = (
(42,410,l),
(42,350,l),
(500,350,l),
(500,410,l)
);
},
{
closed = 1;
nodes = (
(42,298,l),
(42,238,l),
(500,238,l),
(500,298,l)
);
},
{
closed = 1;
nodes = (
(241,720,o),
(144,630,o),
(144,482,cs),
(144,224,ls),
(144,156,o),
(102,88,o),
(38,60,c),
(38,0,l),
(643,0,l),
(643,100,l),
(166,100,l),
(248,122,o),
(264,181,o),
(264,244,cs),
(264,456,ls),
(264,524,o),
(285,620,o),
(394,620,cs),
(450,620,o),
(516,595,o),
(575,527,c),
(647,599,l),
(583,681,o),
(498,720,o),
(396,720,cs)
);
}
);
width = 666;
}
);
unicode = 8356;
},
{
glyphname = austral;
layers = (
{
layerId = "84EF03BF-F357-4104-A115-739D7CF90CE5";
shapes = (
{
closed = 1;
nodes = (
(13,143,l),
(705,143,l),
(705,196,l),
(13,196,l)
);
},
{
closed = 1;
nodes = (
(13,282,l),
(705,282,l),
(705,335,l),
(13,335,l)
);
},
{
alignment = -1;
pos = (31.5,0);
ref = Elcyr.ss08;
}
);
width = 718;
}
);
unicode = 8371;
},
{
glyphname = hryvnia;
layers = (
{
layerId = "84EF03BF-F357-4104-A115-739D7CF90CE5";
shapes = (
{
closed = 1;
nodes = (
(31,272,l),
(143.044,272,l),
(128.231,246.387,o),
(121,216.964,o),
(121,183.318,cs),
(121,60.125,o),
(217,-20,o),
(372,-20,cs),
(483,-20,o),
(570,21,o),
(634,101,c),
(563,172,l),
(512,113.363,o),
(454,80,o),
(381,80,cs),
(295,80,o),
(238,125.07,o),
(238,188.169,cs),
(238,228.004,o),
(261.345,253.083,o),
(313.987,272,c),
(703,272,l),
(703,314,l),
(31,314,l)
);
},
{
closed = 1;
nodes = (
(31,388,l),
(703,388,l),
(703,430,l),
(610.345,430,l),
(619.598,452.575,o),
(624,477.727,o),
(624,505.665,cs),
(624,634.867,o),
(531,720,o),
(380,720,cs),
(275,720,o),
(188,679,o),
(124,599,c),
(195,528,l),
(246,586.637,o),
(304,620,o),
(371,620,cs),
(453,620,o),
(504,570.923,o),
(504,508.826,cs),
(504,474.883,o),
(488.857,449.652,o),
(459.464,430,c),
(31,430,l)
);
}
);
width = 734;
}
);
unicode = 8372;
},
{
glyphname = turkishlira;
layers = (
{
layerId = "84EF03BF-F357-4104-A115-739D7CF90CE5";
shapes = (
{
closed = 1;
nodes = (
(21,436,l),
(21,397,l),
(443,524,l),
(443,564,l)
);
},
{
closed = 1;
nodes = (
(21,319,l),
(21,280,l),
(443,407,l),
(443,447,l)
);
},
{
closed = 1;
nodes = (
(495,255,l),
(495,170,o),
(449,100,o),
(329,100,cs),
(254,100,l),
(254,700,l),
(134,700,l),
(134,0,l),
(305,0,ls),
(515,0,o),
(596,78,o),
(596,283,c)
);
}
);
width = 640;
}
);
unicode = 8378;
},
{
glyphname = manat;
layers = (
{
layerId = "84EF03BF-F357-4104-A115-739D7CF90CE5";
shapes = (
{
closed = 1;
nodes = (
(204,602,o),
(53,444,o),
(53,214,cs),
(53,143,o),
(69,69,o),
(100,0,c),
(225,0,l),
(191,61,o),
(173,139,o),
(173,210,cs),
(173,386,o),
(273,502,o),
(424,502,cs),
(575,502,o),
(673,388,o),
(673,213,cs),
(673,141,o),
(655,62,o),
(620,0,c),
(741,0,l),
(775,75,o),
(793,154,o),
(793,230,cs),
(793,450,o),
(642,602,o),
(425,602,cs)
);
},
{
closed = 1;
nodes = (
(377,110,l),
(469,157,l),
(469,750,l),
(377,703,l)
);
}
);
width = 846;
}
);
unicode = 8380;
},
{
glyphname = ruble;
layers = (
{
layerId = "84EF03BF-F357-4104-A115-739D7CF90CE5";
shapes = (
{
closed = 1;
nodes = (
(275,0,l),
(275,600,l),
(406,600,ls),
(508,600,o),
(551,547,o),
(551,464,cs),
(551,381,o),
(509,327,o),
(407,327,cs),
(45,327,l),
(45,226,l),
(404,226,ls),
(570,226,o),
(671,315,o),
(671,460,cs),
(671,606,o),
(568,700,o),
(406,700,cs),
(155,700,l),
(155,0,l)
);
},
{
closed = 1;
nodes = (
(45,147,l),
(45,97,l),
(609,97,l),
(609,147,l)
);
}
);
width = 720;
}
);
unicode = 8381;
},
{
glyphname = Gecyr;
layers = (
{
anchors = (
{
name = top;
position = "{272, 719}";
},
{
name = bottom;
position = "{283, -20}";
}
);
layerId = "84EF03BF-F357-4104-A115-739D7CF90CE5";
shapes = (
{
closed = 1;
nodes = (
(194,0,l),
(194,600,l),
(488,600,l),
(488,700,l),
(74,700,l),
(74,0,l)
);
}
);
width = 544;
}
);
leftKerningGroup = B;
rightKerningGroup = F;
unicode = 1043;
},
{
glyphname = Kacyr;
layers = (
{
anchors = (
{
name = top;
position = "{320, 719}";
},
{
name = bottom;
position = "{320, -20}";
}
);
layerId = "84EF03BF-F357-4104-A115-739D7CF90CE5";
shapes = (
{
closed = 1;
nodes = (
(78,700,l),
(78,0,l),
(198,0,l),
(198,700,l)
);
},
{
closed = 1;
nodes = (
(149,325,l),
(363,325,ls),
(466,325,o),
(527,371,o),
(539,473,c),
(560,700,l),
(439,700,l),
(424,547,l),
(416,458,o),
(391,425,o),
(335,425,cs),
(149,425,l)
);
},
{
closed = 1;
nodes = (
(351,341,l),
(475,0,l),
(603,0,l),
(470,365,l)
);
}
);
width = 640;
}
);
leftKerningGroup = B;
rightKerningGroup = K;
unicode = 1050;
},
{
glyphname = kacyr;
layers = (
{
anchors = (
{
name = top;
position = "{288, 520}";
},
{
name = bottom;
position = "{288, -20}";
}
);
layerId = "84EF03BF-F357-4104-A115-739D7CF90CE5";
shapes = (
{
closed = 1;
nodes = (
(74,500,l,{name = av01;}),
(74,0,l,{name = ab01;}),
(194,0,l),
(194,500,l)
);
},
{
closed = 1;
nodes = (
(181,221,l,{name = dv01;}),
(359,221,ls),
(440,221,o),
(485,257,o),
(496,338,c),
(514,500,l,{name = av02;}),
(396,500,l),
(384,391,l),
(377,338,o),
(362,311,o),
(303,311,cs),
(181,311,l,{name = dv02;})
);
},
{
closed = 1;
nodes = (
(314,240,l,{name = iv01;}),
(421,0,l,{name = ab02;}),
(552,0,l),
(440,251,l)
);
}
);
width = 588;
}
);
leftKerningGroup = i;
rightKerningGroup = k;
unicode = 1082;
},
{
glyphname = tshecyr;
layers = (
{
layerId = "84EF03BF-F357-4104-A115-739D7CF90CE5";
shapes = (
{
closed = 1;
nodes = (
(114,0,l,{name = ab03;}),
(234,0,l),
(234,750,l,{name = ab01;}),
(114,750,l)
);
},
{
closed = 1;
nodes = (
(227,260,l),
(234,197,l,{name = iv01;}),
(234,324,o),
(282,408,o),
(370,408,cs,{name = sv01;}),
(429,408,o),
(461,378,o),
(461,270,cs),
(461,0,l,{name = ab01;}),
(581,0,l),
(581,294,ls),
(581,438,o),
(514,500,o),
(410,500,cs,{name = at01;}),
(317,500,o),
(240,432,o),
(226,335,c)
);
},
{
closed = 1;
nodes = (
(15,590,l),
(415,590,l),
(415,626,l),
(15,626,l)
);
}
);
width = 665;
}
);
leftKerningGroup = f;
rightKerningGroup = h;
unicode = 1115;
},
{
glyphname = Pecyr;
layers = (
{
anchors = (
{
name = bottom;
position = "{350, -20}";
},
{
name = top;
position = "{350, 719}";
}
);
layerId = "84EF03BF-F357-4104-A115-739D7CF90CE5";
shapes = (
{
closed = 1;
nodes = (
(207,0,l),
(207,600,l),
(493,600,l),
(493,0,l),
(613,0,l),
(613,700,l),
(87,700,l),
(87,0,l)
);
}
);
width = 700;
}
);
leftKerningGroup = B;
rightKerningGroup = H;
unicode = 1055;
},
{
glyphname = djecyr;
layers = (
{
layerId = "84EF03BF-F357-4104-A115-739D7CF90CE5";
shapes = (
{
closed = 1;
nodes = (
(114,0,l,{name = ab03;}),
(234,0,l),
(234,750,l,{name = ab01;}),
(114,750,l)
);
},
{
closed = 1;
nodes = (
(227,260,l),
(234,197,l,{name = iv01;}),
(234,324,o),
(282,408,o),
(370,408,cs,{name = sv01;}),
(429,408,o),
(461,378,o),
(461,270,cs),
(461,0,l,{name = ab01;}),
(581,0,l),
(581,294,ls),
(581,438,o),
(514,500,o),
(410,500,cs,{name = at01;}),
(317,500,o),
(240,432,o),
(226,335,c)
);
},
{
closed = 1;
nodes = (
(15,590,l),
(411,590,l),
(411,626,l),
(15,626,l)
);
},
{
closed = 1;
nodes = (
(581,211,l),
(461,211,l,{name = av01;}),
(461,-39,ls),
(461,-106,o),
(453,-128,o),
(408,-128,cs,{name = dv02;}),
(391,-128,o),
(358,-123,o),
(336,-114,c),
(314,-198,l),
(359,-212,o),
(373,-221,o),
(438,-221,cs,{name = dv01;}),
(530,-221,o),
(581,-174,o),
(581,-68,cs)
);
}
);
width = 665;
}
);
leftKerningGroup = f;
rightKerningGroup = h;
unicode = 1106;
},
{
glyphname = Yucyr;
layers = (
{
anchors = (
{
name = top;
position = "{545, 719}";
}
);
layerId = "84EF03BF-F357-4104-A115-739D7CF90CE5";
shapes = (
{
closed = 1;
nodes = (
(180,321,l),
(370,321,l),
(370,421,l),
(180,421,l)
);
},
{
alignment = -1;
pos = (295,0);
ref = O;
},
{
alignment = -1;
pos = (-16,0);
ref = I;
}
);
width = 1090;
}
);
leftKerningGroup = B;
rightKerningGroup = C;
unicode = 1070;
},
{
glyphname = Hardcyr;
layers = (
{
layerId = "84EF03BF-F357-4104-A115-739D7CF90CE5";
shapes = (
{
closed = 1;
nodes = (
(31,700,l),
(31,600,l),
(204,600,l),
(237,693,l),
(237,700,l)
);
},
{
alignment = -1;
pos = (102,0);
ref = Softcyr;
}
);
width = 735;
}
);
rightKerningGroup = Ljecyr;
unicode = 1066;
},
{
glyphname = Shacyr;
layers = (
{
layerId = "84EF03BF-F357-4104-A115-739D7CF90CE5";
shapes = (
{
closed = 1;
nodes = (
(883,0,l),
(883,700,l),
(763,700,l),
(763,100,l),
(545,100,l),
(545,700,l),
(425,700,l),
(425,100,l),
(207,100,l),
(207,700,l),
(87,700,l),
(87,0,l)
);
}
);
width = 970;
}
);
leftKerningGroup = B;
rightKerningGroup = H;
unicode = 1064;
},
{
glyphname = Ereversedcyr;
layers = (
{
anchors = (
{
name = top;
position = "{330, 719}";
}
);
layerId = "84EF03BF-F357-4104-A115-739D7CF90CE5";
shapes = (
{
closed = 1;
nodes = (
(541,308,l),
(216,308,l),
(216,408,l),
(541,408,l)
);
},
{
closed = 1;
nodes = (
(202,-20,o),
(118,18,o),
(43,102,c),
(114,173,l),
(155.593,117.495,o),
(216.993,84,o),
(295.228,84,cs,{name = dv02;}),
(423.969,84,o),
(523,188.623,o),
(523,365.299,cs),
(523,524.208,o),
(443.775,616,o),
(303.15,616,cs,{name = dv03;}),
(227.886,616,o),
(166.487,586.989,o),
(114,528,c),
(43,599,l),
(109,681,o),
(198,720,o),
(311,720,cs,{name = dv04;}),
(524,720,o),
(647,581,o),
(647,365,cs),
(647,135,o),
(508,-20,o),
(303,-20,cs,{name = dv01;})
);
}
);
width = 694;
}
);
leftKerningGroup = C1;
rightKerningGroup = C;
unicode = 1069;
},
{
glyphname = Becyr;
layers = (
{
layerId = "84EF03BF-F357-4104-A115-739D7CF90CE5";
shapes = (
{
closed = 1;
nodes = (
(118,599,l),
(540,599,l),
(540,700,l),
(105,700,l),
(105,694,l)
);
},
{
alignment = -1;
ref = Softcyr;
}
);
width = 633;
}
);
leftKerningGroup = B;
unicode = 1041;
},
{
glyphname = gecyr;
layers = (
{
anchors = (
{
name = top;
position = "{241, 520}";
},
{
name = bottom;
position = "{241, -20}";
}
);
layerId = "84EF03BF-F357-4104-A115-739D7CF90CE5";
shapes = (
{
closed = 1;
nodes = (
(84,0,l),
(204,0,l),
(204,410,l),
(404,410,l),
(404,500,l),
(84,500,l)
);
}
);
width = 441;
}
);
leftKerningGroup = i;
rightKerningGroup = r;
unicode = 1075;
},
{
glyphname = encyr;
layers = (
{
anchors = (
{
name = bottom;
position = "{306, -20}";
},
{
name = top;
position = "{306, 520}";
}
);
layerId = "84EF03BF-F357-4104-A115-739D7CF90CE5";
shapes = (
{
closed = 1;
nodes = (
(200,0,l),
(200,225,l),
(413,225,l),
(413,0,l),
(533,0,l),
(533,500,l),
(413,500,l),
(413,315,l),
(200,315,l),
(200,500,l),
(80,500,l),
(80,0,l)
);
}
);
width = 613;
}
);
leftKerningGroup = i;
rightKerningGroup = a1;
unicode = 1085;
},
{
glyphname = pecyr;
layers = (
{
anchors = (
{
name = bottom;
position = "{309, -20}";
},
{
name = top;
position = "{309, 520}";
}
);
layerId = "84EF03BF-F357-4104-A115-739D7CF90CE5";
shapes = (
{
closed = 1;
nodes = (
(200,0,l),
(200,410,l),
(418,410,l),
(418,0,l),
(538,0,l),
(538,500,l),
(80,500,l),
(80,0,l)
);
}
);
width = 618;
}
);
leftKerningGroup = i;
rightKerningGroup = a1;
unicode = 1087;
},
{
glyphname = icyr;
layers = (
{
anchors = (
{
name = top;
position = "{315, 520}";
},
{
name = bottom;
position = "{315, -20}";
}
);
layerId = "84EF03BF-F357-4104-A115-739D7CF90CE5";
shapes = (
{
closed = 1;
nodes = (
(80,500,l),
(80,0,l),
(185,0,l),
(429,324,l),
(429,0,l),
(549,0,l),
(549,500,l),
(444,500,l),
(200,176,l),
(200,500,l)
);
}
);
width = 629;
}
);
leftKerningGroup = i;
rightKerningGroup = a1;
unicode = 1080;
},
{
glyphname = Njecyr;
layers = (
{
layerId = "84EF03BF-F357-4104-A115-739D7CF90CE5";
shapes = (
{
closed = 1;
nodes = (
(88,0,l,{name = ab01;}),
(208,0,l),
(208,300,l,{name = dv01;}),
(498,300,l),
(498,0,l,{name = ab02;}),
(618,0,l),
(618,700,l,{name = at01;}),
(498,700,l),
(498,400,l),
(208,400,l,{name = dv02;}),
(208,700,l,{name = at02;}),
(88,700,l)
);
},
{
closed = 1;
nodes = (
(505,0,l),
(698,0,ls),
(881,0,o),
(941,82,o),
(941,199,cs),
(941,315,o),
(881,400,o),
(698,400,cs),
(525,400,l),
(540,300,l),
(660,300,ls),
(774,300,o),
(821,270,o),
(821,200,cs),
(821,129,o),
(774,100,o),
(658,100,cs),
(614,100,l),
(504,3,l)
);
}
);
width = 990;
}
);
leftKerningGroup = B;
rightKerningGroup = Ljecyr;
unicode = 1034;
},
{
glyphname = yucyr;
layers = (
{
anchors = (
{
name = bottom;
position = "{438, -20}";
},
{
name = top;
position = "{438, 520}";
}
);
layerId = "84EF03BF-F357-4104-A115-739D7CF90CE5";
shapes = (
{
closed = 1;
nodes = (
(180,210,l),
(356,210,l),
(356,300,l),
(180,300,l)
);
},
{
closed = 1;
nodes = (
(310,79,o),
(404,-20,o),
(559,-20,cs,{name = dv01;}),
(727,-20,o),
(808,79,o),
(808,255,cs),
(808,421,o),
(726,520,o),
(559,520,cs,{name = at01;}),
(403,520,o),
(310,421,o),
(310,255,cs)
);
},
{
closed = 1;
nodes = (
(688,135.363,o),
(645,70,o),
(559,70,cs,{name = dv02;}),
(476,70,o),
(430,132.346,o),
(430,255.028,cs),
(430,373.687,o),
(473,430,o),
(559,430,cs,{name = sv01;}),
(646,430,o),
(688,369.665,o),
(688,253.017,cs)
);
},
{
closed = 1;
nodes = (
(210,0,l),
(210,500,l),
(90,500,l),
(90,0,l)
);
}
);
width = 877;
}
);
leftKerningGroup = i;
rightKerningGroup = b1;
unicode = 1102;
},
{
glyphname = tecyr;
layers = (
{
anchors = (
{
name = bottom;
position = "{262, -20}";
},
{
name = top;
position = "{263, 520}";
}
);
layerId = "84EF03BF-F357-4104-A115-739D7CF90CE5";
shapes = (
{
closed = 1;
nodes = (
(32,500,l),
(32,410,l),
(202.5,410,l),
(202.5,0,l),
(322.5,0,l),
(322.5,410,l),
(493,410,l),
(493,500,l)
);
}
);
width = 525;
}
);
unicode = 1090;
},
{
glyphname = Checyr;
layers = (
{
anchors = (
{
name = top;
position = "{337, 719}";
}
);
layerId = "84EF03BF-F357-4104-A115-739D7CF90CE5";
shapes = (
{
closed = 1;
nodes = (
(467,0,l),
(587,0,l),
(587,700,l),
(467,700,l)
);
},
{
closed = 1;
nodes = (
(70,700,l),
(70,427,ls),
(70,278,o),
(152,206,o),
(273,206,cs),
(396,206,o),
(469,281,o),
(478,364,c),
(467,451,l),
(467,369,o),
(402,306,o),
(311,306,cs),
(230,306,o),
(190,356,o),
(190,450,cs),
(190,700,l)
);
}
);
width = 674;
}
);
rightKerningGroup = H;
unicode = 1063;
},
{
glyphname = checyr;
layers = (
{
anchors = (
{
name = bottom;
position = "{298, -20}";
},
{
name = top;
position = "{298, 520}";
}
);
layerId = "84EF03BF-F357-4104-A115-739D7CF90CE5";
shapes = (
{
closed = 1;
nodes = (
(395,0,l),
(515,0,l),
(515,500,l),
(395,500,l)
);
},
{
closed = 1;
nodes = (
(76,500,l),
(76,340,ls),
(76,216.779,o),
(140.417,154,o),
(242.252,154,cs),
(333,154,o),
(414,211,o),
(414,318,c),
(395,343,l),
(395,284.463,o),
(331,244,o),
(273.911,244,cs),
(225.443,244,o),
(196,273.165,o),
(196,340.416,cs),
(196,500,l)
);
}
);
width = 595;
}
);
rightKerningGroup = a1;
unicode = 1095;
},
{
glyphname = ereversedcyr;
layers = (
{
anchors = (
{
name = bottom;
position = "{301, -20}";
},
{
name = top;
position = "{281, 520}";
}
);
layerId = "84EF03BF-F357-4104-A115-739D7CF90CE5";
shapes = (
{
closed = 1;
nodes = (
(421,210,l),
(157,210,l),
(157,294,l),
(421,294,l)
);
},
{
closed = 1;
nodes = (
(375,68.997,o),
(396,167.544,o),
(396,255.029,cs),
(396,373.688,o),
(355,430,o),
(269,430,cs,{name = sv01;}),
(214,430,o),
(156,406.657,o),
(124,362,c),
(56,430,l),
(98,483,o),
(174,520,o),
(272,520,cs),
(428,520,o),
(516,421,o),
(516,255,cs),
(516,79,o),
(428,-20,o),
(273,-20,cs,{name = dv01;}),
(173,-20,o),
(92,17,o),
(50,70,c),
(118,138,l),
(148,95.373,o),
(216,70,o),
(267,70,c,{name = dv02;})
);
}
);
width = 563;
}
);
leftKerningGroup = zecyr;
rightKerningGroup = b1;
unicode = 1101;
},
{
glyphname = shacyr;
layers = (
{
layerId = "84EF03BF-F357-4104-A115-739D7CF90CE5";
shapes = (
{
closed = 1;
nodes = (
(799,0,l),
(799,500,l),
(679,500,l),
(679,90,l),
(500,90,l),
(500,500,l),
(380,500,l),
(380,90,l),
(200,90,l),
(200,500,l),
(80,500,l),
(80,0,l)
);
}
);
width = 879;
}
);
leftKerningGroup = i;
rightKerningGroup = a1;
unicode = 1096;
},
{
glyphname = Shchacyr;
layers = (
{
layerId = "84EF03BF-F357-4104-A115-739D7CF90CE5";
shapes = (
{
closed = 1;
nodes = (
(87,0,l),
(87,700,l),
(207,700,l),
(207,100,l),
(426,100,l),
(426,700,l),
(546,700,l),
(546,100,l),
(765,100,l),
(765,700,l),
(885,700,l),
(885,100,l),
(985,100,o),
(1017,87,o),
(1017,-140,c),
(917,-140,l),
(917,-50,o),
(925,0,o),
(854,0,cs)
);
}
);
width = 1060;
}
);
leftKerningGroup = B;
unicode = 1065;
},
{
glyphname = Tsecyr;
layers = (
{
layerId = "84EF03BF-F357-4104-A115-739D7CF90CE5";
shapes = (
{
closed = 1;
nodes = (
(566,0,ls),
(637,0,o),
(629,-50,o),
(629,-140,c),
(729,-140,l),
(729,87,o),
(697,100,o),
(597,100,c),
(597,701,l),
(477,701,l),
(477,100,l),
(207,100,l),
(207,701,l),
(87,701,l),
(87,0,l)
);
}
);
width = 760;
}
);
leftKerningGroup = B;
unicode = 1062;
},
{
glyphname = shchacyr;
layers = (
{
layerId = "84EF03BF-F357-4104-A115-739D7CF90CE5";
shapes = (
{
closed = 1;
nodes = (
(782,0,ls),
(850,0,o),
(835,-102,o),
(835,-140,c),
(920,-140,l),
(920,52,o),
(899,89,o),
(799,89,c),
(799,500,l),
(679,500,l),
(679,90,l),
(500,90,l),
(500,500,l),
(380,500,l),
(380,90,l),
(200,90,l),
(200,500,l),
(80,500,l),
(80,0,l)
);
}
);
width = 954;
}
);
leftKerningGroup = i;
rightKerningGroup = l;
unicode = 1097;
},
{
glyphname = tsecyr;
layers = (
{
layerId = "84EF03BF-F357-4104-A115-739D7CF90CE5";
shapes = (
{
closed = 1;
nodes = (
(521,0,ls),
(588,0,o),
(574,-72,o),
(574,-140,c),
(660,-140,l),
(660,52,o),
(639,88,o),
(539,88,c),
(539,500,l),
(419,500,l),
(419,90,l),
(200,90,l),
(200,500,l),
(80,500,l),
(80,0,l)
);
}
);
width = 686;
}
);
leftKerningGroup = i;
rightKerningGroup = l;
unicode = 1094;
},
{
glyphname = Decyr;
layers = (
{
layerId = "84EF03BF-F357-4104-A115-739D7CF90CE5";
shapes = (
{
closed = 1;
nodes = (
(351,663,l),
(345,600,l),
(582,600,l),
(582,100,l),
(272,100,l),
(350,174,o),
(357,219,o),
(357,682,c)
);
},
{
closed = 1;
nodes = (
(69,101,o),
(30,77,o),
(30,-140,c),
(130,-140,l),
(130,-47,o),
(127,0,o),
(186,0,cs),
(671,0,ls),
(742,0,o),
(734,-42,o),
(734,-140,c),
(834,-140,l),
(834,77,o),
(802,99,o),
(702,99,c),
(702,700,l),
(237,700,l),
(237,670,ls),
(237,217,o),
(223,174,o),
(158,101,c)
);
}
);
width = 864;
}
);
unicode = 1044;
},
{
glyphname = Elcyr;
layers = (
{
layerId = "84EF03BF-F357-4104-A115-739D7CF90CE5";
shapes = (
{
closed = 1;
nodes = (
(279,-20,o),
(310,85,o),
(310,600,c),
(553,600,l),
(553,0,l),
(673,0,l),
(673,700,l),
(190,700,l),
(190,213,o),
(179,80,o),
(119,80,cs),
(103,80,o),
(82,90,o),
(50,108,c),
(29,9,l),
(68,-14,o),
(90,-20,o),
(126,-20,cs)
);
}
);
width = 760;
}
);
rightKerningGroup = H;
unicode = 1051;
},
{
glyphname = elcyr;
layers = (
{
layerId = "84EF03BF-F357-4104-A115-739D7CF90CE5";
shapes = (
{
closed = 1;
nodes = (
(52,70,o),
(44,71,o),
(34,73,c),
(15,-16,l),
(32,-18,o),
(49,-20,o),
(61,-20,cs),
(199,-20,o),
(246,89,o),
(246,410,c),
(397,410,l),
(397,0,l),
(517,0,l),
(517,500,l),
(126,500,l),
(126,191,o),
(120,70,o),
(60,70,cs)
);
}
);
width = 600;
}
);
rightKerningGroup = a1;
unicode = 1083;
},
{
glyphname = Efcyr;
layers = (
{
layerId = "84EF03BF-F357-4104-A115-739D7CF90CE5";
shapes = (
{
closed = 1;
nodes = (
(358,-20,l),
(478,-20,l),
(478,60,l),
(655,60,o),
(783,183,o),
(783,354,cs),
(783,524,o),
(657,642,o),
(478,642,c),
(478,722,l),
(358,722,l),
(358,642,l),
(179,642,o),
(53,524,o),
(53,354,cs),
(53,183,o),
(181,60,o),
(358,60,c)
);
},
{
closed = 1;
nodes = (
(478,542,l),
(600,542,o),
(663,478,o),
(663,353,cs),
(663,227,o),
(599,160,o),
(478,160,c)
);
},
{
closed = 1;
nodes = (
(358,160,l),
(239,160,o),
(173,229,o),
(173,356,cs),
(173,483,o),
(240,542,o),
(358,542,c)
);
}
);
width = 836;
}
);
leftKerningGroup = C1;
rightKerningGroup = C;
unicode = 1060;
},
{
glyphname = Zecyr;
layers = (
{
anchors = (
{
name = bottom;
position = "{294, -20}";
},
{
name = top;
position = "{294, 719}";
}
);
layerId = "84EF03BF-F357-4104-A115-739D7CF90CE5";
shapes = (
{
closed = 1;
nodes = (
(395,469,o),
(343,419,o),
(241,409,c),
(241,319,l),
(354.697,328,o),
(427.5,280,o),
(427.5,202,cs),
(427.5,128,o),
(361.601,80,o),
(273.733,80,cs),
(197.847,80,o),
(136.938,116,o),
(96,173,c),
(25,102,l),
(98.07,20,o),
(181.149,-20,o),
(283.247,-20,cs),
(436.393,-20,o),
(547.5,69,o),
(547.5,198,cs),
(547.5,294,o),
(486.339,355,o),
(356,371,c),
(473,399,o),
(515,451,o),
(515,533,cs),
(515,648,o),
(431,719,o),
(286,719,cs),
(178,719,o),
(90,680,o),
(25,599,c),
(96,528,l),
(148,588,o),
(208,619,o),
(275,619,cs),
(348,619,o),
(395,582,o),
(395,527,cs)
);
}
);
width = 588;
}
);
rightKerningGroup = B1;
unicode = 1047;
},
{
glyphname = Ljecyr;
layers = (
{
layerId = "84EF03BF-F357-4104-A115-739D7CF90CE5";
shapes = (
{
closed = 1;
nodes = (
(279,-20,o),
(310,85,o),
(310,600,c),
(523,600,l),
(523,0,l),
(643,0,l),
(643,700,l),
(190,700,l),
(190,213,o),
(179,80,o),
(119,80,cs),
(103,80,o),
(82,90,o),
(50,108,c),
(29,9,l),
(68,-14,o),
(90,-20,o),
(126,-20,cs)
);
},
{
closed = 1;
nodes = (
(538,0,l),
(715,0,ls),
(904,0,o),
(965,80,o),
(965,193,cs),
(965,307,o),
(903,390,o),
(709,390,cs),
(527,390,l),
(542,290,l),
(691,290,ls),
(809,290,o),
(845,267,o),
(845,196,cs),
(845,123,o),
(807,100,o),
(681,100,cs),
(630,100,l),
(537,3,l)
);
}
);
width = 1014;
}
);
rightKerningGroup = Ljecyr;
unicode = 1033;
},
{
glyphname = becyr;
layers = (
{
layerId = "84EF03BF-F357-4104-A115-739D7CF90CE5";
shapes = (
{
closed = 1;
nodes = (
(517,649,l),
(487.341,622,o),
(423.284,597.597,o),
(333.305,588,cs),
(188.88,572.596,o),
(141,524,o),
(141,343,c),
(169,427.38,o),
(249.509,479,o),
(350.144,479,cs),
(479.533,479,o),
(561,394.17,o),
(561,234.49,cs),
(561,70.818,o),
(474.915,-20,o),
(314.353,-20,cs),
(142.183,-20,o),
(59,84,o),
(59,333,cs),
(59,554,o),
(124.552,652.113,o),
(328.015,678,cs),
(383.924,685.113,o),
(463.968,702,o),
(517,749,c)
);
},
{
closed = 1;
nodes = (
(396.895,70,o),
(441,135,o),
(441,236,cs),
(441,335,o),
(398.772,389,o),
(314.315,389,cs),
(229.859,389,o),
(182,335,o),
(182,234,cs),
(182,135,o),
(227.982,70,o),
(312.438,70,cs)
);
}
);
width = 620;
}
);
leftKerningGroup = germandbls1;
rightKerningGroup = germandbls;
unicode = 1073;
},
{
glyphname = decyr;
layers = (
{
anchors = (
{
name = bottom;
position = "{409, -20}";
},
{
name = top;
position = "{410, 520}";
}
);
layerId = "84EF03BF-F357-4104-A115-739D7CF90CE5";
shapes = (
{
closed = 1;
nodes = (
(130,-140,l),
(131,-107,o),
(117,0,o),
(176,0,cs),
(596,0,ls),
(667,0,o),
(648,-102,o),
(648,-140,c),
(735,-140,l),
(735,52,o),
(714,89,o),
(614,89,c),
(614,500,l),
(215,500,l),
(215,325,ls),
(215,196,o),
(203,122,o),
(178,91,c),
(78,91,o),
(44,57,o),
(44,-140,c)
);
},
{
closed = 1;
nodes = (
(242,90,l),
(313,110,o),
(335,187,o),
(335,410,c),
(494,410,l),
(494,90,l)
);
}
);
width = 780;
}
);
rightKerningGroup = l;
unicode = 1076;
},
{
glyphname = Tshecyr;
layers = (
{
layerId = "84EF03BF-F357-4104-A115-739D7CF90CE5";
shapes = (
{
closed = 1;
nodes = (
(31,700,l),
(31,600,l),
(184,600,l),
(184,0,l),
(304,0,l),
(304,600,l),
(552,600,l),
(552,700,l)
);
},
{
closed = 1;
nodes = (
(668,0,l),
(668,255,ls),
(668,404,o),
(592,476,o),
(481,476,cs),
(369,476,o),
(302,401,o),
(293,318,c),
(304,231,l),
(304,313,o),
(361,376,o),
(441,376,cs),
(513,376,o),
(548,346,o),
(548,252,cs),
(548,0,l)
);
}
);
width = 752;
}
);
leftKerningGroup = T;
unicode = 1035;
},
{
glyphname = Djecyr;
layers = (
{
layerId = "84EF03BF-F357-4104-A115-739D7CF90CE5";
shapes = (
{
closed = 1;
nodes = (
(471,-21,o),
(458,-12,o),
(413,2,c),
(438,94,l),
(459,84.357,o),
(488,79,o),
(505,79,cs,{name = dv02;}),
(558,79,o),
(591,131.176,o),
(591,226.497,cs),
(591,326.834,o),
(554,376,o),
(479,376,cs),
(391,376,o),
(315,307,o),
(315,210,cs),
(315,0,l),
(195,0,l),
(195,600,l),
(31,600,l),
(31,700,l),
(564,700,l),
(564,600,l),
(315,600,l),
(315,352,l),
(350,424,o),
(414,466,o),
(502,466,cs),
(628,466,o),
(711,379,o),
(711,224,cs),
(711,78,o),
(637,-21,o),
(509,-21,cs,{name = dv01;})
);
}
);
width = 770;
}
);
leftKerningGroup = T;
unicode = 1026;
},
{
glyphname = zecyr;
layers = (
{
anchors = (
{
name = top;
position = "{250, 520}";
},
{
name = bottom;
position = "{270, -20}";
}
);
layerId = "84EF03BF-F357-4104-A115-739D7CF90CE5";
shapes = (
{
closed = 1;
nodes = (
(142,-20,o),
(73,18,o),
(27,82,c),
(100,155,l),
(130,98.333,o),
(175,70,o),
(236,70,cs,{name = dv02;}),
(293,70,o),
(346,95.294,o),
(346,156,cs),
(346,214,o),
(297,235,o),
(185,227,c),
(185,307,l),
(286,311,o),
(319,327.136,o),
(319,372.517,cs),
(319,419.915,o),
(282,430,o),
(245,430,cs,{name = sv01;}),
(181,430,o),
(139,399.583,o),
(108,357,c),
(35,430,l),
(77,483,o),
(153,520,o),
(258,520,cs,{name = at01;}),
(395,520,o),
(438,456,o),
(438,389,cs),
(438,316.88,o),
(388.772,275,o),
(304,275,c),
(406.267,275,o),
(465,229.4,o),
(465,150,cs),
(465,57,o),
(386,-20,o),
(243,-20,cs,{name = dv01;})
);
}
);
width = 515;
}
);
leftKerningGroup = s1;
rightKerningGroup = s;
unicode = 1079;
},
{
glyphname = emcyr;
layers = (
{
layerId = "84EF03BF-F357-4104-A115-739D7CF90CE5";
shapes = (
{
closed = 1;
nodes = (
(200,0,l),
(200,280,l),
(304,100,l),
(385,100,l),
(489,280,l),
(489,0,l),
(609,0,l),
(609,500,l),
(503,500,l),
(344,225,l),
(185,500,l),
(80,500,l),
(80,0,l)
);
}
);
width = 689;
}
);
leftKerningGroup = i;
rightKerningGroup = a1;
unicode = 1084;
},
{
glyphname = softcyr;
layers = (
{
anchors = (
{
name = bottom;
position = "{268, -20}";
},
{
name = top;
position = "{268, 520}";
}
);
layerId = "84EF03BF-F357-4104-A115-739D7CF90CE5";
shapes = (
{
closed = 1;
nodes = (
(115,325,l),
(115,235,l),
(282,235,ls),
(341,235,o),
(366,207.812,o),
(366,162.5,cs),
(366,117.188,o),
(340,90,o),
(281,90,cs),
(200,90,l),
(200,500,l),
(80,500,l),
(80,0,l),
(300,0,ls),
(415,0,o),
(486,65,o),
(486,167,cs),
(486,266,o),
(415,325,o),
(297,325,cs)
);
}
);
width = 536;
}
);
leftKerningGroup = i;
rightKerningGroup = hardcyr;
unicode = 1100;
},
{
glyphname = hardcyr;
layers = (
{
layerId = "84EF03BF-F357-4104-A115-739D7CF90CE5";
shapes = (
{
closed = 1;
nodes = (
(21,500,l),
(21,410,l),
(179,410,l),
(212,496,l),
(212,500,l)
);
},
{
alignment = -1;
pos = (64,0);
ref = softcyr;
}
);
width = 600;
}
);
rightKerningGroup = hardcyr;
unicode = 1098;
},
{
glyphname = vecyr;
layers = (
{
anchors = (
{
name = top;
position = "{273, 520}";
},
{
name = bottom;
position = "{273, -20}";
}
);
layerId = "84EF03BF-F357-4104-A115-739D7CF90CE5";
shapes = (
{
closed = 1;
nodes = (
(80,0,l),
(295,0,ls),
(428,0,o),
(496,44,o),
(496,139,cs),
(496,218,o),
(448,260,o),
(344,265,c),
(431.636,283,o),
(464.5,314,o),
(464.5,383,cs),
(464.5,467,o),
(415.564,500,o),
(287.73,500,cs),
(80,500,l)
);
},
{
closed = 1;
nodes = (
(256.19,410,ls),
(316.395,410,o),
(347.5,392.707,o),
(347.5,353.034,cs),
(347.5,312.345,o),
(313.384,292,o),
(255.187,292,cs),
(200,292,l),
(200,410,l)
);
},
{
closed = 1;
nodes = (
(200,90,l),
(200,212,l),
(273,212,ls),
(347,212,o),
(379,195,o),
(379,154,cs),
(379,111,o),
(345,90,o),
(274,90,cs)
);
}
);
width = 546;
}
);
leftKerningGroup = i;
unicode = 1074;
},
{
glyphname = yacyr;
layers = (
{
anchors = (
{
name = bottom;
position = "{300, -20}";
},
{
name = top;
position = "{300, 520}";
}
);
layerId = "84EF03BF-F357-4104-A115-739D7CF90CE5";
shapes = (
{
closed = 1;
nodes = (
(490,0,l),
(490,500,l),
(271,500,ls),
(136,500,o),
(66,445,o),
(66,347,cs),
(66,280,o),
(99,229,o),
(157,196,c),
(57,0,l),
(186,0,l),
(268,172,l),
(370,172,l),
(370,0,l)
);
},
{
closed = 1;
nodes = (
(370,262,l),
(295,262,ls),
(220,262,o),
(186,286,o),
(186,337,cs),
(186,388,o),
(219,410,o),
(295,410,cs),
(370,410,l)
);
}
);
width = 570;
}
);
rightKerningGroup = a1;
unicode = 1103;
},
{
glyphname = Geupcyr;
layers = (
{
layerId = "84EF03BF-F357-4104-A115-739D7CF90CE5";
shapes = (
{
closed = 1;
nodes = (
(87,700,l),
(87,0,l),
(207,0,l),
(207,600,l),
(360,600,ls),
(490,600,o),
(527,654,o),
(527,814,c),
(427,814,l),
(427,720,o),
(407,700,o),
(357,700,cs)
);
}
);
width = 557;
}
);
leftKerningGroup = B;
rightKerningGroup = F;
unicode = 1168;
},
{
glyphname = geupcyr;
layers = (
{
layerId = "84EF03BF-F357-4104-A115-739D7CF90CE5";
shapes = (
{
closed = 1;
nodes = (
(350,410,ls),
(452,410,o),
(473,446,o),
(473,638,c),
(383,638,l),
(383,601,o),
(391,500,o),
(337,500,cs),
(80,500,l),
(80,0,l),
(200,0,l),
(200,410,l)
);
}
);
width = 510;
}
);
leftKerningGroup = i;
rightKerningGroup = r;
unicode = 1169;
},
{
glyphname = Dzhecyr;
layers = (
{
layerId = "84EF03BF-F357-4104-A115-739D7CF90CE5";
shapes = (
{
closed = 1;
nodes = (
(290,0,l),
(302,-38,o),
(303,-119,o),
(292,-158,c),
(397,-158,l),
(410,-105,o),
(409,-52,o),
(393,0,c),
(596,0,l),
(596,700,l),
(476,700,l),
(476,101,l),
(207,101,l),
(207,700,l),
(87,700,l),
(87,0,l)
);
}
);
width = 683;
}
);
leftKerningGroup = B;
rightKerningGroup = H;
unicode = 1039;
},
{
glyphname = dzhecyr;
layers = (
{
layerId = "84EF03BF-F357-4104-A115-739D7CF90CE5";
shapes = (
{
closed = 1;
nodes = (
(259,0,l),
(274,-42,o),
(272,-97,o),
(263,-141,c),
(352,-141,l),
(368,-88,o),
(364,-52,o),
(346,0,c),
(525,0,l),
(525,500,l),
(405,500,l),
(405,91,l),
(200,91,l),
(200,500,l),
(80,500,l),
(80,0,l)
);
}
);
width = 605;
}
);
leftKerningGroup = i;
rightKerningGroup = a1;
unicode = 1119;
},
{
glyphname = tau;
layers = (
{
anchors = (
{
name = topgr;
position = "{210, 520}";
}
);
layerId = "84EF03BF-F357-4104-A115-739D7CF90CE5";
shapes = (
{
closed = 1;
nodes = (
(38,500,l),
(38,410,l),
(376,410,l),
(376,500,l)
);
},
{
alignment = -1;
pos = (62,0);
ref = iota;
}
);
width = 421;
}
);
rightKerningGroup = l;
unicode = 964;
},
{
glyphname = gamma;
layers = (
{
anchors = (
{
name = topgr;
position = "{272, 520}";
}
);
layerId = "84EF03BF-F357-4104-A115-739D7CF90CE5";
shapes = (
{
closed = 1;
nodes = (
(211,-200,l),
(331,-200,l),
(331,58,l),
(323,-17,l),
(518,500,l),
(389,500,l),
(268,149,l),
(275,149,l),
(154,500,l),
(25,500,l),
(220,-17,l),
(211,60,l)
);
}
);
width = 543;
}
);
leftKerningGroup = v;
rightKerningGroup = v1;
unicode = 947;
},
{
glyphname = Sigma;
layers = (
{
layerId = "84EF03BF-F357-4104-A115-739D7CF90CE5";
shapes = (
{
closed = 1;
nodes = (
(514,0,l),
(514,100,l),
(205,100,l),
(415,350,l),
(205,600,l),
(514,600,l),
(514,700,l),
(31,700,l),
(31,632,l),
(268,350,l),
(31,68,l),
(31,0,l)
);
}
);
width = 570;
}
);
unicode = 931;
},
{
glyphname = Xi;
layers = (
{
layerId = "84EF03BF-F357-4104-A115-739D7CF90CE5";
shapes = (
{
closed = 1;
nodes = (
(75,600,l),
(538,600,l),
(538,700,l),
(75,700,l)
);
},
{
closed = 1;
nodes = (
(75,100,l),
(75,0,l),
(538,0,l),
(538,100,l)
);
},
{
closed = 1;
nodes = (
(483,301,l),
(483,397,l),
(131,397,l),
(131,301,l)
);
}
);
width = 593;
}
);
rightKerningGroup = E;
unicode = 926;
},
{
glyphname = iota;
layers = (
{
anchors = (
{
name = topgr;
position = "{137, 520}";
}
);
layerId = "84EF03BF-F357-4104-A115-739D7CF90CE5";
shapes = (
{
closed = 1;
nodes = (
(76,500,l),
(196,500,l),
(196,167,ls),
(196,105,o),
(206,90,o),
(257,90,c),
(257,0,l),
(223,0,ls),
(116,0,o),
(76,47,o),
(76,153,cs)
);
}
);
width = 310;
}
);
leftKerningGroup = i;
rightKerningGroup = l;
unicode = 953;
},
{
glyphname = Psi;
layers = (
{
anchors = (
{
name = topgr;
position = "{442, 720}";
}
);
layerId = "84EF03BF-F357-4104-A115-739D7CF90CE5";
shapes = (
{
closed = 1;
nodes = (
(381,0,l),
(501,0,l),
(501,700,l),
(381,700,l)
);
},
{
closed = 1;
nodes = (
(70,701,l),
(70,440,ls),
(70,273,o),
(209,172,o),
(441,172,cs),
(674,172,o),
(813,272,o),
(813,440,cs),
(813,701,l),
(693,701,l),
(693,434,ls),
(693,325,o),
(614,274,o),
(445,274,cs),
(274,274,o),
(190,327,o),
(190,434,cs),
(190,701,l)
);
}
);
width = 883;
}
);
unicode = 936;
},
{
glyphname = ae.ss02;
layers = (
{
layerId = "84EF03BF-F357-4104-A115-739D7CF90CE5";
shapes = (
{
closed = 1;
nodes = (
(228.01,430,o),
(171.75,406.65,o),
(140.71,362,c),
(74.75,430,l),
(115.49,483,o),
(189.21,520,o),
(285.24,520,cs),
(361.71,520,o),
(414.25,496.56,o),
(445.87,459.98,c),
(488.93,499.65,o),
(547.98,520,o),
(617.85,520,cs,{name = at01;}),
(770.14,520,o),
(856.47,424,o),
(856.47,227,c,{name = dv03;}),
(484.96,227,l,{name = sv04;}),
(484.96,125.35,o),
(528.76,70,o),
(616.36,70,cs,{name = dv02;}),
(674.76,70,o),
(737.05,94.35,o),
(767.23,138,c),
(833.19,70,l),
(792.45,17,o),
(718.73,-20,o),
(622.7,-20,cs,{name = dv01;}),
(523.9,-20,o),
(445.79,19.23,o),
(403.46,96.28,c),
(361.535,15.752,o),
(290.77,-20,o),
(220.25,-20,cs),
(122.28,-20,o),
(50.5,49,o),
(50.5,146,cs),
(50.5,243,o),
(122.28,312,o),
(226.07,312,cs),
(291.31,312,o),
(340.75,284.45,o),
(366.72,235.79,c,{name = sv03;}),
(366.72,346.8,ls),
(366.72,400.93,o),
(338.59,430,o),
(280.39,430,cs)
);
},
{
closed = 1;
nodes = (
(737.16,307,l,{name = dv04;}),
(728.39,385.63,o),
(684.56,430,o),
(616.39,430,cs,{name = sv01;}),
(547.24,430,o),
(497.57,385.63,o),
(488.84,307,c,{name = sv02;})
);
},
{
closed = 1;
nodes = (
(166.9,99,o),
(205.7,70,o),
(257.11,70,cs),
(315.92,70,o),
(357.5,107.06,o),
(366.72,162.87,c),
(366.72,164.97,l),
(348.79,199.99,o),
(309.62,222,o),
(257.11,222,cs),
(203.76,222,o),
(166.9,199,o),
(166.9,150,cs)
);
}
);
width = 904;
}
);
leftKerningGroup = a.ss02;
},
{
glyphname = upsilon;
layers = (
{
anchors = (
{
name = topgr;
position = "{283, 520}";
}
);
layerId = "84EF03BF-F357-4104-A115-739D7CF90CE5";
shapes = (
{
closed = 1;
nodes = (
(76,500,l),
(76,185,ls),
(76,54,o),
(163,-20,o),
(307,-20,cs),
(470,-20,o),
(549,76,o),
(549,253,cs),
(549,349,o),
(526,434,o),
(487,500,c),
(368,500,l),
(403,428,o),
(429,350,o),
(429,256,cs),
(429,140,o),
(390,70,o),
(304,70,cs),
(235,70,o),
(196,114,o),
(196,208,cs),
(196,500,l)
);
}
);
width = 608;
}
);
leftKerningGroup = i;
rightKerningGroup = b1;
unicode = 965;
},
{
glyphname = delta;
layers = (
{
anchors = (
{
name = topgr;
position = "{308, 721}";
}
);
layerId = "84EF03BF-F357-4104-A115-739D7CF90CE5";
shapes = (
{
closed = 1;
nodes = (
(437,129,o),
(396,70,o),
(306,70,cs),
(220,70,o),
(179,123,o),
(179,224,cs),
(179,326,o),
(221,377,o),
(303,377,cs),
(398,377,o),
(437,307,o),
(437,219,cs)
);
},
{
closed = 1;
nodes = (
(59,82,o),
(149,-20,o),
(309,-20,cs),
(464,-20,o),
(557,75,o),
(557,226,cs),
(557,376,o),
(465,467,o),
(309,467,cs),
(148,467,o),
(59,369,o),
(59,226,cs)
);
},
{
closed = 1;
nodes = (
(241,604.856,o),
(266,630,o),
(312,630,cs),
(357,630,o),
(401,604.561,o),
(433,572,c),
(501,640,l),
(457,683,o),
(391,720,o),
(306,720,cs),
(193,720,o),
(121,655,o),
(121,572,cs),
(121,489,o),
(193,446,o),
(307,438,c),
(390,457,l),
(266,493.208,o),
(241,528.416,o),
(241,566.636,cs)
);
}
);
width = 616;
}
);
leftKerningGroup = germandbls1;
rightKerningGroup = germandbls;
unicode = 948;
},
{
glyphname = sigmafinal;
layers = (
{
anchors = (
{
name = topgr;
position = "{295, 520}";
}
);
layerId = "84EF03BF-F357-4104-A115-739D7CF90CE5";
shapes = (
{
closed = 1;
nodes = (
(222,430,o),
(169,365.642,o),
(169,245.978,cs),
(169,136.369,o),
(213,70,o),
(336,70,cs),
(463,70,o),
(543,0.258,o),
(543,-93.395,cs),
(543,-143.21,o),
(522.494,-181.07,o),
(503.852,-200,c),
(392,-200,l),
(417,-166,o),
(434,-143,o),
(434,-105,cs),
(434,-53,o),
(402.088,-20,o),
(308.412,-20,cs),
(140.618,-20,o),
(49,86,o),
(49,250,cs),
(49,418,o),
(143,520,o),
(305,520,cs,{name = at01;}),
(402,520,o),
(478,483,o),
(520,430,c),
(452,362,l),
(420,406.657,o),
(372,430,o),
(316,430,cs,{name = sv01;})
);
}
);
width = 590;
}
);
leftKerningGroup = a;
unicode = 962;
},
{
glyphname = theta;
layers = (
{
anchors = (
{
name = topgr;
position = "{322, 721}";
}
);
layerId = "84EF03BF-F357-4104-A115-739D7CF90CE5";
shapes = (
{
closed = 1;
nodes = (
(59.5,110,o),
(152.323,-20,o),
(323.996,-20,cs),
(493.673,-20,o),
(584.5,109,o),
(584.5,348,cs),
(584.5,586,o),
(490.679,720,o),
(323.996,720,cs),
(155.317,720,o),
(59.5,585,o),
(59.5,348,cs)
);
},
{
closed = 1;
nodes = (
(224.658,70,o),
(179.5,155,o),
(179.5,346,cs),
(179.5,546,o),
(220.644,630,o),
(324.007,630,cs),
(424.359,630,o),
(464.5,547,o),
(464.5,346,cs),
(464.5,149,o),
(425.363,70,o),
(324.007,70,cs)
);
},
{
closed = 1;
nodes = (
(176,310,l),
(468,310,l),
(468,390,l),
(176,390,l)
);
}
);
width = 644;
}
);
leftKerningGroup = germandbls1;
rightKerningGroup = germandbls;
unicode = 952;
},
{
glyphname = sigma;
layers = (
{
anchors = (
{
name = ogonek;
position = "{413, -3}";
},
{
name = bottom;
position = "{308, -20}";
},
{
name = topgr;
position = "{308, 520}";
}
);
layerId = "84EF03BF-F357-4104-A115-739D7CF90CE5";
shapes = (
{
closed = 1;
nodes = (
(59,75.333,o),
(153,-20,o),
(308,-20,cs,{name = dv01;}),
(476,-20,o),
(557,75.333,o),
(557,244.815,cs),
(557,404.667,o),
(475,500,o),
(308,500,cs,{name = at01;}),
(152,500,o),
(59,404.667,o),
(59,244.815,cs)
);
},
{
closed = 1;
nodes = (
(437,129.609,o),
(394,66.667,o),
(308,66.667,cs,{name = dv02;}),
(225,66.667,o),
(179,126.704,o),
(179,244.842,cs),
(179,359.106,o),
(222,413.333,o),
(308,413.333,cs,{name = sv01;}),
(395,413.333,o),
(437,355.233,o),
(437,242.905,cs)
);
},
{
closed = 1;
nodes = (
(301,500,l),
(350,410,l),
(611,410,l),
(611,500,l)
);
}
);
width = 648;
}
);
leftKerningGroup = a;
unicode = 963;
},
{
glyphname = chi;
layers = (
{
anchors = (
{
name = topgr;
position = "{323, 520}";
}
);
layerId = "84EF03BF-F357-4104-A115-739D7CF90CE5";
shapes = (
{
closed = 1;
nodes = (
(592,-129,l),
(469.464,-129,o),
(412.628,-54.054,o),
(362.445,173.7,cs),
(305.655,431.441,o),
(231.635,520,o),
(73,520,c),
(73,430,l),
(174.605,430,o),
(220.989,364.111,o),
(267.699,153.425,cs),
(328.041,-118.745,o),
(415.341,-219,o),
(592,-219,c)
);
},
{
closed = 1;
nodes = (
(51,-200,l,{name = ab01;}),
(179,-200,l),
(593,500,l,{name = at01;}),
(465,500,l)
);
}
);
width = 646;
}
);
unicode = 967;
},
{
glyphname = lambda;
layers = (
{
anchors = (
{
name = topgr;
position = "{300, 721}";
}
);
layerId = "84EF03BF-F357-4104-A115-739D7CF90CE5";
shapes = (
{
closed = 1;
nodes = (
(289,330,l),
(226,500,l),
(34,0,l),
(162,0,l)
);
},
{
closed = 1;
nodes = (
(507,-20,o),
(528,-16,o),
(574,2,c),
(558,88,l),
(540,79,o),
(517,73,o),
(503,73,cs,{name = dv02;}),
(485,73,o),
(454.533,82.858,o),
(433,162.867,cs),
(329,549.296,ls),
(289.212,697.135,o),
(239,750,o),
(147,750,cs,{name = dv02;}),
(119,750,o),
(91,745.217,o),
(36,728,c),
(51,648,l),
(74,656,o),
(108,660,o),
(121,660,cs,{name = dv01;}),
(175,660,o),
(194,589,o),
(216,508,cs),
(298,203,ls),
(350,11,o),
(404,-20,o),
(480,-20,cs,{name = dv01;})
);
}
);
width = 600;
}
);
unicode = 955;
},
{
glyphname = zeta;
layers = (
{
anchors = (
{
name = topgr;
position = "{280, 721}";
}
);
layerId = "84EF03BF-F357-4104-A115-739D7CF90CE5";
shapes = (
{
closed = 1;
nodes = (
(428,70,o),
(501,0.258,o),
(501,-93.395,cs),
(501,-143.21,o),
(480.494,-181.07,o),
(461.852,-200,c),
(350,-200,l),
(375,-166,o),
(392,-143,o),
(392,-105,cs),
(392,-53,o),
(362.997,-20,o),
(284.274,-20,cs),
(146.508,-20,o),
(74,83,o),
(74,219,cs),
(74,356,o),
(155,477,o),
(359,610,c),
(59,610,l),
(59,700,l),
(482,700,l),
(482,616.868,l),
(263,460.62,o),
(194,363.466,o),
(194,222.242,cs),
(194,135.103,o),
(220,70,o),
(322,70,cs)
);
}
);
width = 560;
}
);
leftKerningGroup = germandbls1;
rightKerningGroup = germandbls;
unicode = 950;
},
{
glyphname = xi;
layers = (
{
layerId = "84EF03BF-F357-4104-A115-739D7CF90CE5";
shapes = (
{
closed = 1;
nodes = (
(82,610,l),
(82,700,l),
(425,700,l),
(425,610,l)
);
},
{
closed = 1;
nodes = (
(416,70,o),
(496,0.258,o),
(496,-94.391,cs),
(496,-143.21,o),
(475.494,-181.07,o),
(456.852,-200,c),
(345,-200,l),
(370,-166,o),
(387,-143,o),
(387,-98,cs),
(387,-53,o),
(354.954,-20,o),
(279.491,-20,cs),
(127.531,-20,o),
(50,48.179,o),
(50,151.346,cs),
(50,252.718,o),
(127,320,o),
(258,324,c),
(141,342,o),
(85,393.515,o),
(85,468.263,cs),
(85,561.192,o),
(188,628.869,o),
(418,642,c),
(420,630,o),
(424,610,o),
(424,610,c),
(272,597.903,o),
(205,556.571,o),
(205,473.907,cs),
(205,400.316,o),
(280,361,o),
(423,361,c),
(423,281,l),
(260,281,o),
(170,241.545,o),
(170,153.199,cs),
(170,100.02,o),
(203,70,o),
(280,70,cs)
);
}
);
width = 529;
}
);
leftKerningGroup = germandbls1;
rightKerningGroup = germandbls;
unicode = 958;
},
{
glyphname = f_f;
layers = (
{
layerId = "84EF03BF-F357-4104-A115-739D7CF90CE5";
shapes = (
{
closed = 1;
nodes = (
(124,410,l,{name = dv03;}),
(124,0,l,{name = ab01;}),
(244,0,l),
(244,410,l,{name = sv01;}),
(380,410,l),
(380,500,l,{name = sv02;}),
(244,500,l),
(244,579,ls),
(244,633,o),
(262,660,o),
(300,660,cs,{name = dv01;}),
(314,660,o),
(348,656,o),
(371,648,c),
(386,728,l),
(331,745.217,o),
(303,750,o),
(274,750,cs,{name = dv02;}),
(179,750,o),
(124,698.207,o),
(124,607.57,cs),
(124,500,l,{name = dv04;}),
(32,500,l),
(32,410,l)
);
},
{
closed = 1;
nodes = (
(501,410,l,{name = dv03;}),
(501,0,l,{name = ab01;}),
(621,0,l),
(621,410,l,{name = sv01;}),
(757,410,l),
(757,500,l,{name = sv02;}),
(621,500,l),
(621,579,ls),
(621,633,o),
(639,660,o),
(677,660,cs,{name = dv01;}),
(691,660,o),
(725,656,o),
(748,648,c),
(763,728,l),
(708,745.217,o),
(680,750,o),
(651,750,cs,{name = dv02;}),
(556,750,o),
(501,698.207,o),
(501,607.57,cs),
(501,500,l,{name = dv04;}),
(339,500,l),
(339,410,l)
);
}
);
width = 800;
}
);
leftKerningGroup = f;
rightKerningGroup = f1;
unicode = 64256;
},
{
glyphname = dieresistonos;
layers = (
{
anchors = (
{
name = topgr;
position = "{166, 688}";
},
{
name = _topgr;
position = "{166, 500}";
}
);
layerId = "84EF03BF-F357-4104-A115-739D7CF90CE5";
shapes = (
{
closed = 1;
nodes = (
(155,712,l),
(124,549,l),
(178,549,l),
(229,712,l)
);
},
{
closed = 1;
nodes = (
(310.473,562.399,o),
(326.016,584.342,o),
(326.016,607.199,cs),
(326.016,630.971,o),
(310.473,652,o),
(281.215,652,cs),
(251.958,652,o),
(236.415,628.228,o),
(236.415,607.199,cs),
(236.415,587.085,o),
(251.958,562.399,o),
(281.215,562.399,cs)
);
},
{
closed = 1;
nodes = (
(83.042,562.399,o),
(98.585,584.342,o),
(98.585,607.199,cs),
(98.585,630.971,o),
(83.042,652,o),
(53.785,652,cs),
(24.527,652,o),
(8.984,628.228,o),
(8.984,607.199,cs),
(8.984,587.085,o),
(24.527,562.399,o),
(53.785,562.399,cs)
);
}
);
width = 333;
}
);
unicode = 901;
},
{
glyphname = anoteleia;
layers = (
{
layerId = "84EF03BF-F357-4104-A115-739D7CF90CE5";
shapes = (
{
closed = 1;
nodes = (
(63,392,o),
(92,361,o),
(131,361,cs),
(169,361,o),
(199,392,o),
(199,430,cs),
(199,467,o),
(169,496,o),
(131,496,cs),
(92,496,o),
(63,467,o),
(63,430,cs)
);
}
);
width = 262;
}
);
unicode = 903;
},
{
glyphname = caron.salt;
layers = (
{
anchors = (
{
name = _topright;
position = "{0, 700}";
}
);
layerId = "84EF03BF-F357-4104-A115-739D7CF90CE5";
shapes = (
{
closed = 1;
nodes = (
(0,540,l),
(60,540,l),
(115,700,l),
(35,700,l)
);
}
);
width = 135;
}
);
},
{
glyphname = dotlessi;
layers = (
{
anchors = (
{
name = top;
position = "{136, 520}";
},
{
name = bottom;
position = "{136, -20}";
},
{
name = ogonek;
position = "{190, -2}";
}
);
layerId = "84EF03BF-F357-4104-A115-739D7CF90CE5";
shapes = (
{
closed = 1;
nodes = (
(196,0,l),
(196,500,l),
(76,500,l),
(76,0,l)
);
}
);
width = 272;
}
);
leftKerningGroup = i;
unicode = 305;
},
{
glyphname = trademark;
layers = (
{
layerId = "84EF03BF-F357-4104-A115-739D7CF90CE5";
shapes = (
{
closed = 1;
nodes = (
(31,700,l),
(31,623,l),
(185,623,l),
(185,248,l),
(286,248,l),
(286,623,l),
(440,623,l),
(440,700,l)
);
},
{
closed = 1;
nodes = (
(571,498,l),
(677,248,l),
(750,248,l),
(856,498,l),
(856,248,l),
(957,248,l),
(957,700,l),
(865,700,l),
(713,342,l),
(561,700,l),
(470,700,l),
(470,248,l),
(571,248,l)
);
}
);
width = 1016;
}
);
unicode = 8482;
},
{
glyphname = M.ss01;
layers = (
{
anchors = (
{
name = top;
position = "{435, 719}";
},
{
name = bottom;
position = "{435, -20}";
}
);
layerId = "84EF03BF-F357-4104-A115-739D7CF90CE5";
shapes = (
{
closed = 1;
nodes = (
(435,304,l,{name = iv01;}),
(197,700,l,{name = at01;}),
(87,700,l),
(87,0,l,{name = ab01;}),
(207,0,l),
(207,483,l,{name = iv02;}),
(399,164,l),
(471,164,l),
(663,483,l,{name = iv03;}),
(663,0,l,{name = ab02;}),
(783,0,l),
(783,700,l,{name = at02;}),
(673,700,l)
);
}
);
width = 870;
}
);
leftKerningGroup = B;
rightKerningGroup = H;
},
{
glyphname = a.ss02;
layers = (
{
anchors = (
{
name = top;
position = "{287, 520}";
},
{
name = bottom;
position = "{280, -20}";
},
{
name = ogonek;
position = "{490, -2}";
}
);
layerId = "84EF03BF-F357-4104-A115-739D7CF90CE5";
shapes = (
{
closed = 1;
nodes = (
(170,99,o),
(210,70,o),
(263,70,cs),
(332,70,o),
(378,118,o),
(378,187,c),
(391,110,l),
(374,28,o),
(315,-20,o),
(228,-20,cs),
(124,-20,o),
(50,49,o),
(50,146,cs),
(50,243,o),
(124,312,o),
(231,312,cs),
(316,312,o),
(375,268,o),
(392,193,c),
(387,124,l),
(384,182,o),
(336,222,o),
(263,222,cs),
(208,222,o),
(170,199,o),
(170,150,cs)
);
},
{
closed = 1;
nodes = (
(233,430,o),
(175,406.657,o),
(143,362,c),
(75,430,l),
(117,483,o),
(193,520,o),
(292,520,cs),
(434,520,o),
(496,444,o),
(496,352,cs),
(496,0,l),
(376,0,l),
(376,346.807,ls),
(376,400.932,o),
(347,430,o),
(287,430,cs)
);
}
);
width = 580;
}
);
leftKerningGroup = a.ss02;
rightKerningGroup = a.ss021;
},
{
glyphname = u.ss05;
layers = (
{
anchors = (
{
name = bottom;
position = "{300, -20}";
},
{
name = top;
position = "{300, 520}";
},
{
name = ogonek;
position = "{511, -2}";
}
);
layerId = "84EF03BF-F357-4104-A115-739D7CF90CE5";
shapes = (
{
closed = 1;
nodes = (
(409,215,l),
(397,283,l),
(397,145.293,o),
(355,70,o),
(281,70,cs),
(224,70,o),
(196,114.792,o),
(196,198.403,cs),
(196,500,l),
(76,500,l),
(76,196,ls),
(76,51,o),
(134,-20,o),
(241,-20,cs),
(335,-20,o),
(383,35,o),
(409,134,c)
);
},
{
closed = 1;
nodes = (
(517,500,l),
(397,500,l),
(397,0,l),
(517,0,l)
);
}
);
width = 600;
}
);
leftKerningGroup = u;
rightKerningGroup = a1;
},
{
glyphname = Q.ss06;
layers = (
{
anchors = (
{
name = top;
position = "{398, 719}";
},
{
name = bottom;
position = "{398, -20}";
},
{
name = ogonek;
position = "{523, -1}";
}
);
layerId = "84EF03BF-F357-4104-A115-739D7CF90CE5";
shapes = (
{
closed = 1;
nodes = (
(300.442,102.671,l),
(322.442,144.671,o),
(355.442,169.671,o),
(383.595,169.671,cs),
(421.285,169.671,o),
(437.74,124.863,o),
(457.974,69.765,cs),
(490.268,-18.176,o),
(532.189,-132.329,o),
(685.442,-132.329,c),
(685.442,-32.329,l),
(606.708,-32.329,o),
(587.296,23.667,o),
(567.464,80.874,cs),
(546.754,140.612,o),
(525.587,201.671,o),
(435.933,201.671,cs),
(356.442,201.671,o),
(318.405,153.671,o),
(293.442,106.671,c)
);
},
{
alignment = -1;
ref = O;
}
);
width = 795;
}
);
leftKerningGroup = C1;
rightKerningGroup = C;
},
{
glyphname = J.ss07;
layers = (
{
anchors = (
{
name = top;
position = "{270, 719}";
},
{
name = bottom;
position = "{170, -79}";
}
);
layerId = "84EF03BF-F357-4104-A115-739D7CF90CE5";
shapes = (
{
closed = 1;
nodes = (
(20,-144,l),
(245,-144,o),
(326,-66,o),
(326,148,cs),
(326,700,l),
(206,700,l),
(206,124,ls),
(206,-5,o),
(155,-44,o),
(20,-44,c)
);
}
);
width = 400;
}
);
leftKerningGroup = J;
rightKerningGroup = J1;
},
{
glyphname = R.ss08;
layers = (
{
anchors = (
{
name = top;
position = "{323, 719}";
},
{
name = bottom;
position = "{323, -20}";
}
);
layerId = "84EF03BF-F357-4104-A115-739D7CF90CE5";
shapes = (
{
closed = 1;
nodes = (
(198,0,l),
(198,244,l),
(324,244,ls),
(475,244,o),
(566,341,o),
(566,474,cs),
(566,611,o),
(474,700,o),
(330,700,cs),
(78,700,l),
(78,0,l)
);
},
{
closed = 1;
nodes = (
(198,344,l),
(198,600,l),
(294,600,ls),
(394,600,o),
(445,555,o),
(445,469,cs),
(445,383,o),
(394,344,o),
(294,344,cs)
);
},
{
closed = 1;
nodes = (
(306,244,l),
(359,242,o),
(411,232,o),
(432,183,cs),
(449,143,o),
(432,60,o),
(447,0,c),
(570,0,l),
(550,56,o),
(570,171,o),
(545,222,cs),
(520,273,o),
(478,279,o),
(382,305,c)
);
}
);
width = 645;
}
);
leftKerningGroup = B;
rightKerningGroup = R;
},
{
glyphname = C.ss09;
layers = (
{
anchors = (
{
name = bottom;
position = "{407, -19}";
},
{
name = top;
position = "{387, 719}";
}
);
layerId = "84EF03BF-F357-4104-A115-739D7CF90CE5";
shapes = (
{
closed = 1;
nodes = (
(53,142,o),
(190,-20,o),
(399,-20,cs),
(566,-20,o),
(683,84,o),
(720,261,c),
(600,261,l),
(590,152,o),
(507,80,o),
(397,80,cs),
(260,80,o),
(173,192,o),
(173,354,cs),
(173,511,o),
(254,620,o),
(392,620,cs),
(484,620,o),
(561,571,o),
(590,485,c),
(710,485,l),
(663,637,o),
(557,720,o),
(401,720,cs),
(190,720,o),
(53,568,o),
(53,355,cs)
);
}
);
width = 773;
}
);
leftKerningGroup = C1;
rightKerningGroup = C;
},
{
glyphname = c.ss09;
layers = (
{
anchors = (
{
name = top;
position = "{310, 520}";
},
{
name = bottom;
position = "{330, -20}";
}
);
layerId = "84EF03BF-F357-4104-A115-739D7CF90CE5";
shapes = (
{
closed = 1;
nodes = (
(452,-20,o),
(540,47,o),
(550,167,c),
(435,167,l),
(432,111,o),
(388,70,o),
(324,70,cs),
(231,70,o),
(179,134.358,o),
(179,246.983,cs),
(179,361.62,o),
(226,430,o),
(317,430,cs),
(381,430,o),
(430,389.828,o),
(437,333,c),
(552,333,l),
(533,457.667,o),
(445,520,o),
(317,520,cs),
(155,520,o),
(59,417,o),
(59,255,cs),
(59,85,o),
(159,-20,o),
(322,-20,cs)
);
}
);
width = 611;
}
);
leftKerningGroup = a;
rightKerningGroup = b1;
},
{
glyphname = C.ss10;
layers = (
{
anchors = (
{
name = bottom;
position = "{407, -19}";
},
{
name = top;
position = "{387, 719}";
}
);
layerId = "84EF03BF-F357-4104-A115-739D7CF90CE5";
shapes = (
{
closed = 1;
nodes = (
(515,-20,o),
(612,23,o),
(682,107,c),
(643,235,l),
(567,117.24,o),
(497,80,o),
(411,80,cs),
(256,80,o),
(173,191.413,o),
(173,353.011,cs),
(173,514.61,o),
(255,620,o),
(401,620,cs),
(491,620,o),
(560,579.74,o),
(634,465,c),
(673,593,l),
(604,677,o),
(510,720,o),
(398,720,cs),
(190,720,o),
(53,573,o),
(53,357,cs),
(53,137,o),
(195,-20,o),
(405,-20,cs)
);
}
);
width = 735;
}
);
leftKerningGroup = C1;
rightKerningGroup = C;
},
{
glyphname = c.ss10;
layers = (
{
anchors = (
{
name = top;
position = "{316, 520}";
},
{
name = bottom;
position = "{316, -20}";
}
);
layerId = "84EF03BF-F357-4104-A115-739D7CF90CE5";
shapes = (
{
closed = 1;
nodes = (
(406,-20,o),
(482,15,o),
(526,74,c),
(495,182,l),
(436,97,o),
(394,70,o),
(320,70,cs),
(230,70,o),
(179,145,o),
(179,256,cs),
(179,368,o),
(230,430,o),
(322,430,cs),
(393,430,o),
(436,402,o),
(495,318,c),
(526,426,l),
(482,485,o),
(406,520,o),
(321,520,cs),
(166,520,o),
(59,412,o),
(59,255,cs),
(59,91,o),
(164,-20,o),
(321,-20,cs)
);
}
);
width = 585;
}
);
leftKerningGroup = a;
rightKerningGroup = b1;
},
{
glyphname = S.ss09;
layers = (
{
anchors = (
{
name = top;
position = "{280, 719}";
},
{
name = bottom;
position = "{295, -20}";
}
);
layerId = "84EF03BF-F357-4104-A115-739D7CF90CE5";
shapes = (
{
closed = 1;
nodes = (
(530,502,l),
(506,633,o),
(426,720,o),
(279,720,cs),
(134,720,o),
(48,634.867,o),
(48,521.691,cs),
(48,363.325,o),
(163.312,332.248,o),
(265.534,304.699,cs),
(346.915,282.767,o),
(421,263.071,o),
(421,183.163,cs),
(421,117.059,o),
(380,79,o),
(294,79,cs),
(214,79,o),
(173,113,o),
(158,197,c),
(38,197,l),
(62,66,o),
(145,-21,o),
(298,-21,cs),
(450,-21,o),
(541,64.133,o),
(541,177.309,cs),
(541,335.675,o),
(425.378,366.752,o),
(322.881,394.301,cs),
(241.281,416.233,o),
(168,435.929,o),
(168,515.837,cs),
(168,581.941,o),
(204,620,o),
(283,620,cs),
(357,620,o),
(395,586,o),
(409,502,c)
);
}
);
width = 590;
}
);
leftKerningGroup = S1;
rightKerningGroup = S;
},
{
glyphname = s.ss09;
layers = (
{
anchors = (
{
name = bottom;
position = "{255, -20}";
},
{
name = top;
position = "{245, 520}";
}
);
layerId = "84EF03BF-F357-4104-A115-739D7CF90CE5";
shapes = (
{
closed = 1;
nodes = (
(46,150,l),
(59,40.355,o),
(135,-20,o),
(261,-20,cs),
(383,-20,o),
(452,37,o),
(452,135,cs),
(452,232,o),
(384,283,o),
(265,301,cs),
(197,312,o),
(166,330.154,o),
(166,369.487,cs),
(166,406.803,o),
(193,430,o),
(242,430,cs),
(292,430,o),
(323,404.684,o),
(331,350,c),
(451,350,l),
(438,459.645,o),
(362,520,o),
(242,520,cs),
(120,520,o),
(46,458,o),
(46,361,cs),
(46,268,o),
(113,217,o),
(232,199,cs),
(300,188,o),
(331,169.846,o),
(331,130.513,cs),
(331,93.197,o),
(304,70,o),
(255,70,cs),
(205,70,o),
(175,94.295,o),
(166,150,c)
);
}
);
width = 510;
}
);
leftKerningGroup = s1;
rightKerningGroup = s;
},
{
glyphname = s.ss10;
layers = (
{
anchors = (
{
name = top;
position = "{248, 520}";
},
{
name = bottom;
position = "{265, -20}";
}
);
layerId = "84EF03BF-F357-4104-A115-739D7CF90CE5";
shapes = (
{
closed = 1;
nodes = (
(166,-20,o),
(90,15,o),
(46,74,c),
(77,182,l),
(136,97,o),
(193,70,o),
(264,70,cs),
(304,70,o),
(345,91,o),
(345,133,cs),
(345,175.873,o),
(293.588,190.832,o),
(233.984,208.174,cs),
(151.783,232.092,o),
(54,260.543,o),
(54,373,cs),
(54,464,o),
(126,520,o),
(242,520,cs),
(351,520,o),
(428,470,o),
(451,430,c),
(420,322,l),
(370,395,o),
(318,430,o),
(255,430,cs),
(204,430,o),
(172,407,o),
(172,368,cs),
(172,321.153,o),
(229.035,303.799,o),
(292.691,284.432,cs),
(373.067,259.977,o),
(464,232.31,o),
(464,138,cs),
(464,30,o),
(374,-20,o),
(264,-20,cs)
);
}
);
width = 522;
}
);
leftKerningGroup = s1;
rightKerningGroup = s;
},
{
glyphname = S.ss10;
layers = (
{
anchors = (
{
name = top;
position = "{275, 719}";
},
{
name = bottom;
position = "{290, -20}";
}
);
layerId = "84EF03BF-F357-4104-A115-739D7CF90CE5";
shapes = (
{
closed = 1;
nodes = (
(213,80,o),
(151,120.26,o),
(77,235,c),
(38,107,l),
(107,23,o),
(201,-20,o),
(313,-20,cs),
(445,-20,o),
(531,56.119,o),
(531,191.33,cs),
(531,327.762,o),
(421.484,362.363,o),
(322.76,393.555,cs),
(241.747,419.151,o),
(168,442.451,o),
(168,517.84,cs),
(168,576.933,o),
(199,620,o),
(269,620,cs),
(352,620,o),
(410,579.74,o),
(482,465,c),
(521,593,l),
(453,677,o),
(363,720,o),
(257,720,cs),
(137,720,o),
(48,643.881,o),
(48,510.673,cs),
(48,372.097,o),
(157.427,337.986,o),
(256.12,307.221,cs),
(337.18,281.953,o),
(411,258.942,o),
(411,182.16,cs),
(411,116.056,o),
(359,80,o),
(303,80,cs)
);
}
);
width = 580;
}
);
leftKerningGroup = S1;
rightKerningGroup = S;
},
{
glyphname = G.ss10;
layers = (
{
anchors = (
{
name = bottom;
position = "{394, -19}";
},
{
name = top;
position = "{394, 719}";
}
);
layerId = "84EF03BF-F357-4104-A115-739D7CF90CE5";
shapes = (
{
closed = 1;
nodes = (
(687,0,l),
(717,0,l),
(717,351,l),
(363,351,l),
(363,261,l),
(622,261,l)
);
},
{
closed = 1;
nodes = (
(182,720,o),
(53,565,o),
(53,355,cs),
(53,130,o),
(185.4,-20,o),
(384,-20,cs),
(533,-20,o),
(618,81,o),
(648,229,c),
(651,315,l),
(610,344,l),
(610,339.985,o),
(611,327.939,o),
(611,313.886,cs),
(611,181.384,o),
(524,80,o),
(400,80,cs),
(263.8,80,o),
(173,192.416,o),
(173,361.041,cs),
(173,516.617,o),
(256,620,o),
(402,620,cs),
(503,620,o),
(578,577.731,o),
(651,463,c),
(690,591,l),
(623,675,o),
(520,720,o),
(395,720,cs)
);
}
);
width = 770;
}
);
leftKerningGroup = C1;
rightKerningGroup = G;
},
{
glyphname = G.ss09;
layers = (
{
anchors = (
{
name = bottom;
position = "{390, -19}";
},
{
name = top;
position = "{390, 719}";
}
);
layerId = "84EF03BF-F357-4104-A115-739D7CF90CE5";
shapes = (
{
closed = 1;
nodes = (
(632,257,l,{name = dv08;}),
(611,261,l,{name = dv07;}),
(325,261,l,{name = dv05;}),
(325,351,l,{name = dv06;}),
(727,351,l,{name = iv02;}),
(727,0,l,{name = dv14;}),
(696,0,l,{name = dv15;})
);
},
{
closed = 1;
nodes = (
(259,620,o),
(173,515.807,o),
(173,349.499,cs,{name = dv12;}),
(173,176.178,o),
(266,80,o),
(387,80,cs,{name = dv02;}),
(522,80,o),
(593,199.49,o),
(597,324,c,{name = iv01;}),
(639,292,l,{name = dv09;}),
(644,236,l,{name = dv10;}),
(618,74,o),
(524,-20,o),
(379,-20,cs,{name = dv01;}),
(183.4,-20,o),
(53,128.4,o),
(53,351,cs,{name = dv11;}),
(53,569,o),
(181,720,o),
(392,720,cs,{name = dv04;}),
(545,720,o),
(662,640,o),
(710,485,c),
(590,485,l),
(561,571,o),
(484,620,o),
(392,620,cs,{name = dv03;})
);
}
);
width = 780;
}
);
leftKerningGroup = C1;
rightKerningGroup = G;
},
{
glyphname = G.ss13;
layers = (
{
anchors = (
{
name = bottom;
position = "{392, -19}";
},
{
name = top;
position = "{392, 719}";
}
);
layerId = "84EF03BF-F357-4104-A115-739D7CF90CE5";
shapes = (
{
closed = 1;
nodes = (
(193,720,o),
(53,578,o),
(53,353,cs),
(53,134,o),
(186,-20,o),
(396,-20,cs),
(596,-20,o),
(730,118.64,o),
(730,325.104,cs),
(730,365,l),
(390,365,l),
(390,275,l),
(610,275,l),
(610,179.51,o),
(523,80,o),
(390,80,cs),
(260,80,o),
(173,175.353,o),
(173,346.989,cs),
(173,518.625,o),
(260,620,o),
(394,620,cs),
(488,620,o),
(561,570.634,o),
(590,485,c),
(710,485,l),
(662,640,o),
(552,720,o),
(398,720,cs)
);
}
);
width = 783;
}
);
leftKerningGroup = C1;
rightKerningGroup = C;
},
{
glyphname = G.ss14;
layers = (
{
anchors = (
{
name = bottom;
position = "{391, -19}";
},
{
name = top;
position = "{391, 719}";
}
);
layerId = "84EF03BF-F357-4104-A115-739D7CF90CE5";
shapes = (
{
closed = 1;
nodes = (
(676,593,l),
(607.671,675,o),
(515.226,720,o),
(399.669,720,cs),
(185.639,720,o),
(53,567,o),
(53,351,cs),
(53,138,o),
(180.656,-20,o),
(384.704,-20,cs),
(562.618,-20,o),
(637,119.634,o),
(637,320.107,cs),
(637,361,l),
(377,361,l),
(377,261,l),
(609,261,l),
(597.924,133.294,o),
(526.432,80,o),
(406.607,80,cs),
(273.693,80,o),
(173,186.394,o),
(173,351.004,cs),
(173,515.613,o),
(253.521,620,o),
(401.477,620,cs),
(503.134,620,o),
(564.531,576.721,o),
(637,465,c)
);
},
{
closed = 1;
nodes = (
(609,0,l),
(710,0,l),
(710,361,l),
(609,361,l)
);
}
);
width = 775;
}
);
leftKerningGroup = C1;
rightKerningGroup = G;
},
{
glyphname = J.ss09;
layers = (
{
anchors = (
{
name = bottom;
position = "{274, -20}";
},
{
name = top;
position = "{453, 719}";
}
);
layerId = "84EF03BF-F357-4104-A115-739D7CF90CE5";
shapes = (
{
closed = 1;
nodes = (
(40,195,l),
(66,45,o),
(129,-20,o),
(276,-20,cs),
(423,-20,o),
(510,75,o),
(510,252,cs),
(510,700,l),
(390,700,l),
(390,253.279,ls),
(390,133.086,o),
(342,80,o),
(272,80,cs),
(202,80,o),
(167,119,o),
(160,195,c)
);
}
);
width = 584;
}
);
leftKerningGroup = J;
rightKerningGroup = J1;
},
{
glyphname = J.ss10;
layers = (
{
anchors = (
{
name = top;
position = "{446, 719}";
},
{
name = bottom;
position = "{267, -20}";
}
);
layerId = "84EF03BF-F357-4104-A115-739D7CF90CE5";
shapes = (
{
closed = 1;
nodes = (
(504,700,l),
(384,700,l),
(384,253.279,ls),
(384,135.089,o),
(342,80,o),
(258,80,cs),
(187,80,o),
(129,119.253,o),
(71,235,c),
(32,107,l),
(89,28,o),
(164,-20,o),
(270,-20,cs),
(423,-20,o),
(504,81,o),
(504,242,cs)
);
}
);
width = 578;
}
);
leftKerningGroup = J;
rightKerningGroup = J1;
},
{
glyphname = a.ss10;
layers = (
{
anchors = (
{
name = top;
position = "{284, 520}";
},
{
name = bottom;
position = "{284, -20}";
},
{
name = ogonek;
position = "{487, -2}";
}
);
layerId = "84EF03BF-F357-4104-A115-739D7CF90CE5";
shapes = (
{
closed = 1;
nodes = (
(204.66,430,o),
(157,410,o),
(91,318,c),
(60,426,l),
(94,472,o),
(162.047,520,o),
(278.55,520,cs),
(413.612,520,o),
(493,456,o),
(493,352,cs),
(493,-10,l),
(373,84,l),
(373,253,l),
(354,222,o),
(303,202,o),
(252,202,cs),
(193,202,o),
(165,175,o),
(165,137,cs),
(165,96,o),
(196,70,o),
(243,70,cs),
(315,70,o),
(373,129,o),
(373,186,c),
(391,128,l),
(376,60,o),
(318,-20,o),
(212,-20,cs),
(121,-20,o),
(45,38,o),
(45,135,cs),
(45,232,o),
(121,281,o),
(239,281,cs),
(334,281,o),
(372,313,o),
(372,361,cs),
(372,405,o),
(337.049,430,o),
(267.148,430,cs)
);
}
);
width = 568;
}
);
leftKerningGroup = a.ss02;
rightKerningGroup = a.ss021;
},
{
glyphname = a.ss09;
layers = (
{
anchors = (
{
name = top;
position = "{290, 520}";
},
{
name = ogonek;
position = "{480, -2}";
},
{
name = bottom;
position = "{285, -20}";
}
);
layerId = "84EF03BF-F357-4104-A115-739D7CF90CE5";
shapes = (
{
closed = 1;
nodes = (
(160,99,o),
(200,70,o),
(253,70,cs),
(322,70,o),
(368,118,o),
(368,187,c),
(381,110,l),
(364,28,o),
(305,-20,o),
(218,-20,cs),
(114,-20,o),
(40,49,o),
(40,146,cs),
(40,243,o),
(114,312,o),
(221,312,cs),
(306,312,o),
(365,268,o),
(382,193,c),
(377,124,l),
(374,182,o),
(326,222,o),
(253,222,cs),
(198,222,o),
(160,199,o),
(160,150,cs)
);
},
{
closed = 1;
nodes = (
(412.85,520,o),
(486,459.162,o),
(486,352,cs),
(486,0,l),
(366,0,l),
(366,356.83,ls),
(366,400.932,o),
(336,430,o),
(283,430,cs),
(229,430,o),
(183,399,o),
(176,341,c),
(61,341,l),
(69.279,455.168,o),
(146.799,520,o),
(284,520,cs)
);
}
);
width = 570;
}
);
leftKerningGroup = a.ss02;
rightKerningGroup = a.ss021;
},
{
glyphname = Schwa.ss09;
layers = (
{
anchors = (
{
name = top;
position = "{390, 719}";
},
{
name = bottom;
position = "{390, -20}";
}
);
layerId = "84EF03BF-F357-4104-A115-739D7CF90CE5";
shapes = (
{
closed = 1;
nodes = (
(221,720,o),
(116,637,o),
(69,485,c),
(189,485,l),
(218,571,o),
(295,620,o),
(384,620,cs,{name = dv03;}),
(530,620,o),
(607,529.82,o),
(607,350.488,cs),
(607,185.182,o),
(526.908,80,o),
(391.752,80,cs,{name = dv02;}),
(264.605,80,o),
(183.512,166,o),
(173.5,308,c,{name = sh02;}),
(619,308,l,{name = dv05;}),
(618,408,l,{name = dv06;}),
(57,408,l,{name = sh04;}),
(55.25,393,o),
(53.5,371,o),
(53.5,356,cs,{name = sh01;}),
(53.5,129,o),
(187.4,-20,o),
(390.25,-20,cs,{name = dv01;}),
(593.099,-20,o),
(726,121,o),
(726,350,cs,{name = sh03;}),
(726,573,o),
(608,720,o),
(394,720,cs,{name = dv04;})
);
}
);
width = 779;
}
);
leftKerningGroup = C1;
rightKerningGroup = C;
},
{
glyphname = schwa.ss09;
layers = (
{
anchors = (
{
name = bottom;
position = "{302, -20}";
},
{
name = top;
position = "{302, 520}";
}
);
layerId = "84EF03BF-F357-4104-A115-739D7CF90CE5";
shapes = (
{
closed = 1;
nodes = (
(61,289,l),
(60,281,o),
(59,268,o),
(59,250,cs),
(59,80,o),
(148,-20,o),
(299,-20,cs),
(453,-20,o),
(545,87,o),
(545,248,cs),
(545,398,o),
(460,520,o),
(298,520,cs),
(181,520,o),
(83,448,o),
(63,351,c),
(183,351,l),
(197,394.551,o),
(232,430,o),
(297,430,cs),
(372,430,o),
(416,380.65,o),
(423,289,c)
);
},
{
closed = 1;
nodes = (
(421,209,l),
(415,124,o),
(373,70,o),
(298,70,cs),
(225,70,o),
(186,119,o),
(182,209,c)
);
}
);
width = 604;
}
);
leftKerningGroup = a;
rightKerningGroup = b1;
},
{
glyphname = Schwa.ss10;
layers = (
{
anchors = (
{
name = top;
position = "{390, 719}";
},
{
name = bottom;
position = "{390, -20}";
}
);
layerId = "84EF03BF-F357-4104-A115-739D7CF90CE5";
shapes = (
{
closed = 1;
nodes = (
(599,720,o),
(726,581,o),
(726,358,cs,{name = sh03;}),
(726,129,o),
(593.099,-20,o),
(390.25,-20,cs,{name = dv01;}),
(187.4,-20,o),
(53.5,129,o),
(53.5,356,cs,{name = sh01;}),
(53.5,371,o),
(55.25,393,o),
(57,408,c,{name = sh04;}),
(630,408,l,{name = dv06;}),
(631,308,l,{name = dv05;}),
(173.5,308,l,{name = sh02;}),
(183.512,165.374,o),
(264.605,80,o),
(390.751,80,cs,{name = dv02;}),
(525.907,80,o),
(606,178.364,o),
(606,343.978,cs),
(606,522.639,o),
(529,620,o),
(383,620,cs,{name = dv03;}),
(278,620,o),
(216,579.74,o),
(141,465,c),
(102,593,l),
(171,677,o),
(266,720,o),
(385,720,cs,{name = dv04;})
);
}
);
width = 779;
}
);
leftKerningGroup = C1;
rightKerningGroup = C;
},
{
glyphname = schwa.ss10;
layers = (
{
anchors = (
{
name = bottom;
position = "{300, -20}";
},
{
name = top;
position = "{300, 520}";
}
);
layerId = "84EF03BF-F357-4104-A115-739D7CF90CE5";
shapes = (
{
closed = 1;
nodes = (
(173,209,l),
(179,120,o),
(223,70,o),
(292,70,cs),
(362,70,o),
(409,121,o),
(417,209,c)
);
},
{
closed = 1;
nodes = (
(210,430,o),
(164,398,o),
(108,318,c),
(77,426,l),
(121,485,o),
(197,520,o),
(287,520,cs),
(445,520,o),
(541,412,o),
(541,246,cs),
(541,83,o),
(449,-20,o),
(295,-20,cs),
(141,-20,o),
(50,84,o),
(50,245,cs),
(50,269,o),
(52,280,o),
(53,289,c),
(418,289,l),
(410,377,o),
(366,430,o),
(278,430,cs)
);
}
);
width = 600;
}
);
leftKerningGroup = a;
rightKerningGroup = b1;
},
{
glyphname = e.ss10;
layers = (
{
anchors = (
{
name = top;
position = "{297, 520}";
},
{
name = bottom;
position = "{297, -20}";
},
{
name = ogonek;
position = "{415, -2}";
}
);
layerId = "84EF03BF-F357-4104-A115-739D7CF90CE5";
shapes = (
{
closed = 1;
nodes = (
(412,308,l),
(412,378,o),
(365.193,430,o),
(293.488,430,cs),
(221.783,430,o),
(169,378,o),
(169,308,c)
);
},
{
closed = 1;
nodes = (
(385.325,70,o),
(443.942,93.415,o),
(490,182,c),
(521,74,l),
(477.093,15,o),
(401.253,-20,o),
(309.123,-20,cs),
(145.793,-20,o),
(48,90,o),
(48,255,cs),
(48,410,o),
(143.804,520,o),
(296.493,520,cs),
(448.183,520,o),
(538,410,o),
(538,228,c),
(168,228,l),
(168,118,o),
(232.799,70,o),
(311.554,70,cs)
);
}
);
width = 585;
}
);
leftKerningGroup = a;
rightKerningGroup = b1;
},
{
glyphname = e.ss09;
layers = (
{
anchors = (
{
name = top;
position = "{298, 520}";
},
{
name = bottom;
position = "{298, -20}";
},
{
name = ogonek;
position = "{409, -2}";
}
);
layerId = "84EF03BF-F357-4104-A115-739D7CF90CE5";
shapes = (
{
closed = 1;
nodes = (
(422,310,l),
(422,378.852,o),
(370,430,o),
(300,430,cs),
(227,430,o),
(169,377.869,o),
(169,310,c)
);
},
{
closed = 1;
nodes = (
(359,70,o),
(414,100,o),
(418,167,c),
(542,167,l),
(521,50,o),
(443,-20,o),
(300,-20,cs),
(143,-20,o),
(48,95,o),
(48,255,cs),
(48,401,o),
(135,520,o),
(300,520,cs),
(465,520,o),
(548,397,o),
(548,238,c),
(169,238,l),
(169,135.389,o),
(219,70,o),
(299,70,cs)
);
}
);
width = 595;
}
);
leftKerningGroup = a;
rightKerningGroup = b1;
},
{
glyphname = b.ss11;
layers = (
{
anchors = (
{
name = bottom;
position = "{345, -20}";
},
{
name = top;
position = "{330, 750}";
}
);
layerId = "84EF03BF-F357-4104-A115-739D7CF90CE5";
shapes = (
{
closed = 1;
nodes = (
(193,107,l),
(193,700,l),
(73,700,l),
(73,-10,l)
);
},
{
closed = 1;
nodes = (
(459,142.201,o),
(411,70,o),
(336,70,cs,{name = dv02;}),
(246,70,o),
(193,150.223,o),
(193,256.518,cs,{name = sh02;}),
(193,343.76,o),
(249,430,o),
(335,430,cs,{name = sv01;}),
(413,430,o),
(459,365.822,o),
(459,255.515,cs,{name = ah01;})
);
},
{
closed = 1;
nodes = (
(171,79,o),
(236,-20,o),
(357.911,-20,cs,{name = dv01;}),
(487,-20,o),
(579,91,o),
(579,255,cs,{name = sh03;}),
(579,416,o),
(500,520,o),
(370.24,520,cs,{name = at01;}),
(243,520,o),
(171,420,o),
(171,255,cs)
);
}
);
width = 629;
}
);
leftKerningGroup = b;
rightKerningGroup = b1;
},
{
glyphname = d.ss11;
layers = (
{
anchors = (
{
name = bottom;
position = "{305, -20}";
},
{
name = top;
position = "{318, 750}";
},
{
name = topright;
position = "{587, 700}";
}
);
layerId = "84EF03BF-F357-4104-A115-739D7CF90CE5";
shapes = (
{
closed = 1;
nodes = (
(432,104,l),
(552,-10,l),
(552,700,l),
(432,700,l)
);
},
{
closed = 1;
nodes = (
(170,364.819,o),
(219,430,o),
(290,430,cs),
(380,430,o),
(432,361.811,o),
(432,256.518,cs),
(432,145.209,o),
(374,70,o),
(289,70,cs),
(220,70,o),
(170,142.201,o),
(170,255.515,cs)
);
},
{
closed = 1;
nodes = (
(454,426,o),
(389,520,o),
(268,520,cs),
(133,520,o),
(50,419,o),
(50,255,cs),
(50,88,o),
(136,-20,o),
(268,-20,cs),
(394,-20,o),
(454,84,o),
(454,255,cs)
);
}
);
width = 635;
}
);
leftKerningGroup = a;
},
{
glyphname = f.ss11;
layers = (
{
anchors = (
{
name = top;
position = "{250, 750}";
},
{
name = bottom;
position = "{183, -20}";
}
);
layerId = "84EF03BF-F357-4104-A115-739D7CF90CE5";
shapes = (
{
closed = 1;
nodes = (
(129,410,l),
(129,0,l),
(249,0,l),
(249,410,l),
(370,410,l),
(370,500,l),
(249,500,l),
(249,559.457,ls),
(249,604.806,o),
(262,630,o),
(300,630,cs),
(318,630,o),
(341,625.636,o),
(386,618,c),
(386,707,l),
(341,716,o),
(320,720,o),
(277,720,cs),
(182,720,o),
(129,669,o),
(129,577,cs),
(129,500,l),
(32,500,l),
(32,410,l)
);
}
);
width = 423;
}
);
leftKerningGroup = f;
rightKerningGroup = f1;
},
{
glyphname = h.ss11;
layers = (
{
anchors = (
{
name = top;
position = "{144, 750}";
},
{
name = bottom;
position = "{318, -20}";
}
);
layerId = "84EF03BF-F357-4104-A115-739D7CF90CE5";
shapes = (
{
closed = 1;
nodes = (
(84,0,l),
(204,0,l),
(204,700,l),
(84,700,l)
);
},
{
closed = 1;
nodes = (
(197,280,l),
(204,217,l,{name = iv01;}),
(204,345.204,o),
(252,430,o),
(340,430,cs,{name = sv01;}),
(399,430,o),
(431,399.86,o),
(431,291.355,cs),
(431,0,l,{name = ab01;}),
(551,0,l),
(551,314,ls),
(551,458,o),
(484,520,o),
(380,520,cs,{name = at01;}),
(287,520,o),
(210,452,o),
(196,355,c)
);
}
);
width = 635;
}
);
leftKerningGroup = b;
rightKerningGroup = h;
},
{
glyphname = l.ss11;
layers = (
{
anchors = (
{
name = bottom;
position = "{136, -20}";
},
{
name = top;
position = "{136, 750}";
},
{
name = topright;
position = "{232, 700}";
}
);
layerId = "84EF03BF-F357-4104-A115-739D7CF90CE5";
shapes = (
{
closed = 1;
nodes = (
(196,700,l),
(76,700,l),
(76,0,l),
(196,0,l)
);
}
);
width = 272;
}
);
leftKerningGroup = b;
},
{
glyphname = t.ss11;
layers = (
{
anchors = (
{
name = top;
position = "{158, 630}";
},
{
name = bottom;
position = "{156, -20}";
},
{
name = topright;
position = "{256, 700}";
}
);
layerId = "84EF03BF-F357-4104-A115-739D7CF90CE5";
shapes = (
{
closed = 1;
nodes = (
(214,0,l),
(214,410,l),
(324,410,l),
(324,500,l),
(214,500,l),
(214,620,l),
(94,620,l),
(94,500,l),
(19,500,l),
(19,410,l),
(94,410,l),
(94,0,l)
);
}
);
width = 353;
}
);
leftKerningGroup = f;
},
{
glyphname = k.ss11;
layers = (
{
anchors = (
{
name = top;
position = "{135, 750}";
},
{
name = bottom;
position = "{296, -20}";
}
);
layerId = "84EF03BF-F357-4104-A115-739D7CF90CE5";
shapes = (
{
closed = 1;
nodes = (
(194,0,l,{name = ab02;}),
(194,700,l,{name = ab01;}),
(74,700,l),
(74,0,l,{name = sv03;})
);
},
{
closed = 1;
nodes = (
(346,354,l,{name = iv02;}),
(91,354,l),
(95,264,l),
(326,264,l,{name = iv01;}),
(422,0,l,{name = ab02;}),
(556,0,l),
(418,283,l),
(544,500,l,{name = av02;}),
(431,500,l)
);
}
);
width = 592;
}
);
leftKerningGroup = b;
rightKerningGroup = k;
},
{
glyphname = AE;
layers = (
{
anchors = (
{
name = top;
position = "{480, 719}";
},
{
name = bottom;
position = "{480, -20}";
}
);
layerId = "84EF03BF-F357-4104-A115-739D7CF90CE5";
shapes = (
{
closed = 1;
nodes = (
(825,0,l,{name = ab01;}),
(825,100,l,{name = sv01;}),
(524,100,l),
(524,315,l,{name = dv01;}),
(785,315,l),
(785,415,l),
(524,415,l,{name = dv02;}),
(524,600,l,{name = sv02;}),
(810,600,l),
(810,700,l,{name = at01;}),
(404,700,l),
(404,0,l)
);
},
{
closed = 1;
nodes = (
(270,600,l),
(489,600,l),
(490,700,l),
(304,700,l)
);
},
{
closed = 1;
nodes = (
(138,131,l,{name = dv01;}),
(504,131,l),
(470,231,l,{name = dv03;}),
(172,231,l,{name = dv02;})
);
},
{
closed = 1;
nodes = (
(249,700,l),
(22,0,l),
(148,0,l),
(349,700,l)
);
}
);
width = 880;
}
);
leftKerningGroup = A1;
rightKerningGroup = E;
unicode = 198;
},
{
glyphname = ae;
layers = (
{
anchors = (
{
name = top;
position = "{516, 520}";
},
{
name = bottom;
position = "{508, -20}";
}
);
layerId = "84EF03BF-F357-4104-A115-739D7CF90CE5";
shapes = (
{
closed = 1;
nodes = (
(442,0,l,{name = ab01;}),
(562,0,l),
(562,500,l,{name = av01;}),
(442,500,l)
);
},
{
closed = 1;
nodes = (
(464,422,o),
(394,520,o),
(264,520,cs,{name = at01;}),
(127,520,o),
(50,411,o),
(50,259,cs),
(50,99,o),
(136,-20,o),
(273,-20,cs,{name = dv01;}),
(397,-20,o),
(464,78,o),
(464,248,cs)
);
},
{
closed = 1;
nodes = (
(170,365,o),
(218,429,o),
(298,429,cs,{name = sv01;}),
(383,429,o),
(442,357,o),
(442,253,cs),
(442,151,o),
(385,70,o),
(301,70,cs,{name = dv02;}),
(221,70,o),
(170,143,o),
(170,256,cs)
);
},
{
closed = 1;
nodes = (
(563,308,l,{name = sv02;}),
(572,386,o),
(625,430,o),
(697,430,cs,{name = sv01;}),
(770,430,o),
(817,386,o),
(826,308,c,{name = dv04;})
);
},
{
closed = 1;
nodes = (
(811,-20,o),
(885,17,o),
(925,70,c),
(857,138,l),
(826,95,o),
(761,71,o),
(700,71,cs,{name = dv02;}),
(609,71,o),
(564,126,o),
(564,227,c,{name = sv04;}),
(949,227,l,{name = dv03;}),
(949,424,o),
(864,520,o),
(713,520,cs,{name = at01;}),
(565,520,o),
(466,427,o),
(466,251,cs,{name = sv03;}),
(466,72,o),
(568,-20,o),
(718,-20,cs,{name = dv01;})
);
}
);
width = 996;
}
);
leftKerningGroup = a;
rightKerningGroup = b1;
unicode = 230;
},
{
glyphname = hbar;
layers = (
{
layerId = "84EF03BF-F357-4104-A115-739D7CF90CE5";
shapes = (
{
closed = 1;
nodes = (
(90,0,l,{name = ab03;}),
(210,0,l),
(210,750,l,{name = ab01;}),
(90,750,l)
);
},
{
closed = 1;
nodes = (
(203,260,l),
(210,197,l,{name = iv01;}),
(210,325.204,o),
(258,410,o),
(346,410,cs,{name = sv01;}),
(405,410,o),
(437,379.86,o),
(437,271.355,cs),
(437,0,l,{name = ab01;}),
(557,0,l),
(557,294,ls),
(557,438,o),
(490,500,o),
(386,500,cs,{name = at01;}),
(293,500,o),
(216,432,o),
(202,335,c)
);
},
{
closed = 1;
nodes = (
(15.8,631,l),
(407.464,631,l),
(407.464,665,l),
(15.8,665,l)
);
}
);
width = 641;
}
);
leftKerningGroup = f;
rightKerningGroup = h;
unicode = 295;
},
{
glyphname = kgreenlandic;
layers = (
{
layerId = "84EF03BF-F357-4104-A115-739D7CF90CE5";
shapes = (
{
closed = 1;
nodes = (
(74,0,l),
(194,0,l),
(194,500,l),
(74,500,l)
);
},
{
closed = 1;
nodes = (
(341,311,l,{name = iv02;}),
(88,311,l),
(95,222,l),
(323,222,l,{name = iv01;}),
(422,0,l,{name = ab02;}),
(558,0,l),
(418,263,l),
(544,500,l,{name = av02;}),
(429,500,l)
);
}
);
width = 594;
}
);
leftKerningGroup = i;
rightKerningGroup = k;
unicode = 312;
},
{
glyphname = Lslash;
layers = (
{
layerId = "84EF03BF-F357-4104-A115-739D7CF90CE5";
shapes = (
{
closed = 1;
nodes = (
(0,280,l),
(0,231,l),
(369,481,l),
(369,530,l)
);
},
{
alignment = -1;
ref = L;
}
);
width = 554;
}
);
leftKerningGroup = Eth;
rightKerningGroup = L;
unicode = 321;
},
{
glyphname = lslash;
layers = (
{
layerId = "84EF03BF-F357-4104-A115-739D7CF90CE5";
shapes = (
{
closed = 1;
nodes = (
(6,291,l),
(6,250,l),
(307,456,l),
(307,497,l)
);
},
{
alignment = -1;
ref = l;
}
);
width = 350;
}
);
leftKerningGroup = f;
rightKerningGroup = l;
unicode = 322;
},
{
glyphname = OE;
layers = (
{
anchors = (
{
name = top;
position = "{484, 719}";
},
{
name = bottom;
position = "{484, -20}";
}
);
layerId = "84EF03BF-F357-4104-A115-739D7CF90CE5";
shapes = (
{
closed = 1;
nodes = (
(421.365,100,ls),
(277.912,100,o),
(177,197,o),
(177,349,cs),
(177,499,o),
(274.944,600,o),
(421.365,600,cs),
(490.13,600,l,{name = sv02;}),
(490.13,100,l,{name = sv01;})
);
},
{
closed = 1;
nodes = (
(600.13,700,l),
(401,700,ls,{name = at01;}),
(195,700,o),
(53,558,o),
(53,350,cs),
(53,141,o),
(194,0,o),
(401,0,cs),
(600.13,0,l,{name = ab01;})
);
},
{
closed = 1;
nodes = (
(912.13,0,l,{name = ab01;}),
(912.13,100,l,{name = sv01;}),
(611.13,100,l),
(611.13,315,l,{name = dv01;}),
(872.13,315,l),
(872.13,415,l),
(611.13,415,l,{name = dv02;}),
(611.13,600,l,{name = sv02;}),
(897.13,600,l),
(897.13,700,l,{name = at01;}),
(501.13,700,l),
(501.13,0,l)
);
}
);
width = 968;
}
);
leftKerningGroup = C1;
rightKerningGroup = E;
unicode = 338;
},
{
glyphname = oe;
layers = (
{
anchors = (
{
name = top;
position = "{479, 520}";
},
{
name = bottom;
position = "{479, -20}";
}
);
layerId = "84EF03BF-F357-4104-A115-739D7CF90CE5";
shapes = (
{
closed = 1;
nodes = (
(59.64,79,o),
(149.88,-20,o),
(298.68,-20,cs,{name = dv01;}),
(459.96,-20,o),
(537.72,79,o),
(537.72,255,cs),
(537.72,421,o),
(459,520,o),
(298.68,520,cs,{name = at01;}),
(148.92,520,o),
(59.64,421,o),
(59.64,255,cs)
);
},
{
closed = 1;
nodes = (
(422.52,135.363,o),
(381.24,70,o),
(298.68,70,cs,{name = dv02;}),
(219,70,o),
(174.84,132.346,o),
(174.84,255.028,cs),
(174.84,373.687,o),
(216.12,430,o),
(298.68,430,cs,{name = sv01;}),
(382.2,430,o),
(422.52,369.665,o),
(422.52,253.017,cs)
);
},
{
closed = 1;
nodes = (
(542.84,307,l,{name = sv02;}),
(551.57,385.639,o),
(601.241,430,o),
(670.391,430,cs,{name = sv01;}),
(738.567,430,o),
(782.395,385.639,o),
(791.16,307,c,{name = dv04;})
);
},
{
closed = 1;
nodes = (
(772.73,-20,o),
(846.45,17,o),
(887.19,70,c),
(821.23,138,l),
(791.056,94.358,o),
(728.762,70,o),
(670.362,70,cs,{name = dv02;}),
(582.761,70,o),
(538.96,125.353,o),
(538.96,227,c,{name = sv04;}),
(910.47,227,l,{name = dv03;}),
(910.47,424,o),
(824.14,520,o),
(671.85,520,cs,{name = at01;}),
(522.47,520,o),
(422.56,427,o),
(422.56,251,cs,{name = sv03;}),
(422.56,72,o),
(525.38,-20,o),
(676.7,-20,cs,{name = dv01;})
);
}
);
width = 957;
}
);
leftKerningGroup = a;
rightKerningGroup = b1;
unicode = 339;
},
{
glyphname = dotlessj;
layers = (
{
anchors = (
{
name = top;
position = "{162, 520}";
},
{
name = bottom;
position = "{100, -217}";
}
);
layerId = "84EF03BF-F357-4104-A115-739D7CF90CE5";
shapes = (
{
closed = 1;
nodes = (
(221,500,l),
(101,500,l,{name = av01;}),
(101,-39,ls),
(101,-106,o),
(93,-128,o),
(48,-128,cs,{name = dv02;}),
(31,-128,o),
(-2,-123,o),
(-24,-114,c),
(-46,-198,l),
(-1,-212,o),
(13,-221,o),
(78,-221,cs,{name = dv01;}),
(170,-221,o),
(221,-174,o),
(221,-68,cs)
);
}
);
width = 300;
}
);
leftKerningGroup = j1;
rightKerningGroup = j;
unicode = 567;
},
{
glyphname = Thorn;
layers = (
{
layerId = "84EF03BF-F357-4104-A115-739D7CF90CE5";
shapes = (
{
closed = 1;
nodes = (
(128,458,l),
(285,458,ls),
(407,458,o),
(448,434,o),
(448,365,cs),
(448,291,o),
(401,263,o),
(285,263,cs),
(140,263,l),
(140,163,l),
(303,163,ls),
(467,163,o),
(568,219,o),
(568,363,cs),
(568,505,o),
(469,558,o),
(303,558,cs),
(128,558,l)
);
},
{
closed = 1;
nodes = (
(198,0,l),
(198,700,l),
(78,700,l),
(78,0,l)
);
}
);
width = 617;
}
);
leftKerningGroup = B;
rightKerningGroup = P;
unicode = 222;
},
{
glyphname = thorn;
layers = (
{
layerId = "84EF03BF-F357-4104-A115-739D7CF90CE5";
shapes = (
{
closed = 1;
nodes = (
(202.84,751,l),
(83.55,751,l),
(84,-200,l,{name = av01;}),
(203,-200,l),
(203,107.19,l),
(231.17,27.11,o),
(285.74,-20,o),
(363,-20,cs,{name = dv01;}),
(501,-20,o),
(585,99,o),
(585,255,cs),
(585,411,o),
(510,520,o),
(369,520,cs,{name = at01;}),
(288.93,520,o),
(232.01,476.37,o),
(203,397.73,c)
);
},
{
closed = 1;
nodes = (
(465,142.19,o),
(416,70,o),
(338,70,cs,{name = dv02;}),
(258,70,o),
(203,151.22,o),
(203,256.51,cs),
(203,357.79,o),
(260,430,o),
(339,430,cs,{name = sv01;}),
(419,430,o),
(465,366.82,o),
(465,255.51,cs)
);
}
);
width = 635;
}
);
leftKerningGroup = b;
rightKerningGroup = b1;
unicode = 254;
},
{
glyphname = Eng;
layers = (
{
anchors = (
{
name = top;
position = "{376, 719}";
},
{
name = bottom;
position = "{384, -190}";
}
);
layerId = "84EF03BF-F357-4104-A115-739D7CF90CE5";
shapes = (
{
closed = 1;
nodes = (
(207,0,l,{name = ab01;}),
(207,515,l,{name = iv01;}),
(555,0,l,{name = ab02;}),
(665,24.998,l),
(665,700,l,{name = at01;}),
(545,700,l),
(545,185,l,{name = iv02;}),
(197,700,l,{name = at02;}),
(87,700,l),
(87,0,l)
);
},
{
closed = 1;
nodes = (
(195,-78,l),
(261,-175,o),
(335,-220,o),
(440,-220,cs,{name = dv01;}),
(583,-220,o),
(665,-136,o),
(665,22,cs),
(665,500,l,{name = at01;}),
(545,500,l),
(545,30,ls),
(545,-73,o),
(511,-120,o),
(440,-120,cs,{name = dv02;}),
(380,-120,o),
(316,-86,o),
(266,-7,c)
);
}
);
width = 752;
}
);
leftKerningGroup = B;
rightKerningGroup = H;
unicode = 330;
},
{
glyphname = eng;
layers = (
{
layerId = "84EF03BF-F357-4104-A115-739D7CF90CE5";
shapes = (
{
closed = 1;
nodes = (
(197,280,l),
(204,217,l,{name = iv01;}),
(204,344,o),
(252,428,o),
(340,428,cs,{name = sv01;}),
(399,428,o),
(431,398,o),
(431,290,cs),
(431,0,l,{name = ab01;}),
(551,0,l),
(551,314,ls),
(551,458,o),
(484,520,o),
(380,520,cs,{name = at01;}),
(287,520,o),
(210,452,o),
(196,355,c)
);
},
{
closed = 1;
nodes = (
(84,0,l,{name = ab02;}),
(204,0,l),
(204,500,l,{name = av01;}),
(84,500,l)
);
},
{
closed = 1;
nodes = (
(551,220,l),
(431,220,l,{name = av01;}),
(431,-39,ls),
(431,-106,o),
(423,-128,o),
(378,-128,cs,{name = dv02;}),
(361,-128,o),
(328,-123,o),
(306,-114,c),
(284,-198,l),
(329,-212,o),
(343,-221,o),
(408,-221,cs,{name = dv01;}),
(500,-221,o),
(551,-174,o),
(551,-68,cs)
);
}
);
width = 635;
}
);
leftKerningGroup = i;
rightKerningGroup = j;
unicode = 331;
},
{
glyphname = Icyr;
layers = (
{
anchors = (
{
name = top;
position = "{376, 719}";
},
{
name = bottom;
position = "{376, -20}";
}
);
layerId = "84EF03BF-F357-4104-A115-739D7CF90CE5";
shapes = (
{
closed = 1;
nodes = (
(665,0,l),
(665,700,l,{name = at01;}),
(555,700,l),
(207,185,l,{name = iv02;}),
(207,700,l,{name = at02;}),
(87,700,l),
(87,0,l),
(197,0,l,{name = ab01;}),
(545,515,l,{name = iv01;}),
(545,0,l,{name = ab02;})
);
}
);
width = 752;
}
);
leftKerningGroup = B;
rightKerningGroup = H;
unicode = 1048;
},
{
glyphname = Yacyr;
layers = (
{
anchors = (
{
name = top;
position = "{324, 719}";
},
{
name = bottom;
position = "{324, -20}";
}
);
layerId = "84EF03BF-F357-4104-A115-739D7CF90CE5";
shapes = (
{
closed = 1;
nodes = (
(582,0,l),
(582,700,l),
(304.227,700,ls,{name = at01;}),
(143.735,700,o),
(46,617,o),
(46,479,cs),
(46,342,o),
(142.826,254,o),
(303.515,254,cs),
(560,254,l,{name = ab01;}),
(560,354,l,{name = sv01;}),
(345.847,354,ls),
(207.583,354,o),
(166,389,o),
(166,478,cs),
(166,565,o),
(206.028,600,o),
(346.128,600,cs),
(462,600,l,{name = dv02;}),
(462,0,l,{name = dv01;})
);
},
{
closed = 1;
nodes = (
(233,333,l),
(43,0,l,{name = ab02;}),
(178,0,l),
(341,281,l)
);
}
);
width = 648;
}
);
leftKerningGroup = Yacyr;
rightKerningGroup = H;
unicode = 1071;
},
{
glyphname = Zhecyr;
layers = (
{
anchors = (
{
name = top;
position = "{463, 720}";
}
);
layerId = "84EF03BF-F357-4104-A115-739D7CF90CE5";
shapes = (
{
closed = 1;
nodes = (
(403,700,l),
(403,0,l),
(523,0,l),
(523,700,l)
);
},
{
closed = 1;
nodes = (
(434,325,l),
(658,325,ls),
(761,325,o),
(812,371,o),
(824,473,c),
(845,700,l),
(724,700,l),
(709,547,l),
(700,454,o),
(681,425,o),
(626,425,cs),
(434,425,l)
);
},
{
closed = 1;
nodes = (
(636,340,l),
(760,0,l),
(888,0,l),
(755,365,l)
);
},
{
closed = 1;
nodes = (
(492,325,l),
(492,425,l),
(303,425,ls),
(235,425,o),
(224,473,o),
(217,547,c),
(202,700,l),
(81,700,l),
(102,473,l),
(115,360,o),
(176,325,o),
(268,325,cs)
);
},
{
closed = 1;
nodes = (
(290,340,l),
(171,365,l),
(38,0,l),
(166,0,l)
);
}
);
width = 925;
}
);
leftKerningGroup = X;
rightKerningGroup = K;
unicode = 1046;
},
{
glyphname = Softcyr;
layers = (
{
layerId = "84EF03BF-F357-4104-A115-739D7CF90CE5";
shapes = (
{
closed = 1;
nodes = (
(87,700,l),
(87,0,l),
(343,0,ls),
(490,0,o),
(584,85,o),
(584,217,cs),
(584,349,o),
(490,429,o),
(343,429,cs),
(207,429,l),
(207,700,l)
);
},
{
closed = 1;
nodes = (
(207,100,l),
(207,329,l),
(341,329,ls),
(431,329,o),
(464,289,o),
(464,217,cs),
(464,145,o),
(431,100,o),
(341,100,cs)
);
}
);
width = 633;
}
);
leftKerningGroup = B;
rightKerningGroup = Ljecyr;
unicode = 1068;
},
{
glyphname = zhecyr;
layers = (
{
anchors = (
{
name = bottom;
position = "{398, -20}";
},
{
name = top;
position = "{400, 520}";
}
);
layerId = "84EF03BF-F357-4104-A115-739D7CF90CE5";
shapes = (
{
closed = 1;
nodes = (
(342,500,l),
(342,0,l),
(462,0,l,{name = ab01;}),
(462,500,l,{name = av01;})
);
},
{
closed = 1;
nodes = (
(403,221,l,{name = dv01;}),
(581,221,ls),
(662,221,o),
(707,262,o),
(718,343,c),
(736,500,l,{name = av02;}),
(615,500,l),
(603,391,l),
(596,338,o),
(581,311,o),
(523,311,cs),
(403,311,l,{name = dv02;})
);
},
{
closed = 1;
nodes = (
(536,240,l,{name = iv01;}),
(643,0,l,{name = ab02;}),
(774,0,l),
(662,251,l)
);
},
{
closed = 1;
nodes = (
(397,221,l,{name = dv01;}),
(397,311,l,{name = dv02;}),
(277,311,ls),
(219,311,o),
(204,338,o),
(197,391,c),
(185,500,l),
(64,500,l,{name = av02;}),
(82,343,l),
(93,262,o),
(138,221,o),
(219,221,cs)
);
},
{
closed = 1;
nodes = (
(264,240,l,{name = iv01;}),
(138,251,l),
(26,0,l),
(157,0,l,{name = ab02;})
);
}
);
width = 800;
}
);
leftKerningGroup = x;
rightKerningGroup = k;
unicode = 1078;
},
{
glyphname = efcyr;
layers = (
{
layerId = "84EF03BF-F357-4104-A115-739D7CF90CE5";
shapes = (
{
closed = 1;
nodes = (
(481,750,l),
(361,750,l),
(361,-200,l),
(481,-200,l)
);
},
{
closed = 1;
nodes = (
(200,70,o),
(179,168,o),
(179,255,cs),
(179,373,o),
(220,429,o),
(306,429,cs,{name = sv01;}),
(361,429,o),
(419,406,o),
(451,362,c),
(451,486,l),
(411,507,o),
(361,520,o),
(303,520,cs),
(147,520,o),
(59,421,o),
(59,255,cs),
(59,79,o),
(147,-20,o),
(302,-20,cs,{name = dv01;}),
(363,-20,o),
(417,-6,o),
(459,17,c),
(457,138,l),
(427,96,o),
(359,71,o),
(308,71,cs,{name = dv02;})
);
},
{
closed = 1;
nodes = (
(485,71,o),
(417,96,o),
(387,138,c),
(387,15,l),
(429,-7,o),
(482,-20,o),
(542,-20,cs,{name = dv01;}),
(697,-20,o),
(785,79,o),
(785,255,cs),
(785,421,o),
(697,520,o),
(541,520,cs),
(483,520,o),
(433,507,o),
(393,486,c),
(393,362,l),
(425,406,o),
(483,429,o),
(538,429,cs,{name = sv01;}),
(624,429,o),
(665,373,o),
(665,255,cs),
(665,168,o),
(644,70,o),
(536,71,cs,{name = dv02;})
);
}
);
width = 844;
}
);
leftKerningGroup = a;
rightKerningGroup = b1;
unicode = 1092;
},
{
glyphname = ljecyr;
layers = (
{
layerId = "84EF03BF-F357-4104-A115-739D7CF90CE5";
shapes = (
{
closed = 1;
nodes = (
(451,305,l),
(451,215,l),
(588,215,ls),
(629,215,o),
(650,194.348,o),
(650,155.217,cs),
(650,113.913,o),
(621,90,o),
(573,90,cs),
(495,90,l),
(495,159,l),
(395,83,l),
(497,0,l),
(592,0,ls),
(702,0,o),
(770,61,o),
(770,159.22,cs),
(770,253.305,o),
(708,305,o),
(592,305,cs)
);
},
{
closed = 1;
nodes = (
(126,500,l),
(126,191,o),
(120,70,o),
(60,70,cs),
(52,70,o),
(44,71,o),
(34,73,c),
(15,-16,l),
(32,-18,o),
(49,-20,o),
(61,-20,cs),
(199,-20,o),
(246,89,o),
(246,410,c),
(377,410,l),
(377,0,l),
(497,0,l),
(497,500,l)
);
}
);
width = 820;
}
);
rightKerningGroup = hardcyr;
unicode = 1113;
},
{
glyphname = njecyr;
layers = (
{
layerId = "84EF03BF-F357-4104-A115-739D7CF90CE5";
shapes = (
{
closed = 1;
nodes = (
(200,0,l),
(200,215,l),
(387,215,l),
(387,0,l),
(507,0,l),
(507,500,l),
(387,500,l),
(387,305,l),
(200,305,l),
(200,500,l),
(80,500,l),
(80,0,l)
);
},
{
closed = 1;
nodes = (
(461,305,l),
(461,215,l),
(598,215,ls),
(639,215,o),
(660,194.348,o),
(660,155.217,cs),
(660,113.913,o),
(631,90,o),
(583,90,cs),
(505,90,l),
(505,500,l),
(395,500,l),
(395,0,l),
(602,0,ls),
(714,0,o),
(780,59.966,o),
(780,159.22,cs),
(780,254.339,o),
(719,305,o),
(602,305,cs)
);
}
);
width = 830;
}
);
leftKerningGroup = i;
rightKerningGroup = hardcyr;
unicode = 1114;
},
{
glyphname = Ucyr;
layers = (
{
anchors = (
{
name = top;
position = "{306, 719}";
},
{
name = bottom;
position = "{317, -20}";
}
);
layerId = "84EF03BF-F357-4104-A115-739D7CF90CE5";
shapes = (
{
closed = 1;
nodes = (
(584,700,l),
(455,700,l),
(253,118,ls),
(228.936,48.668,o),
(162,30,o),
(80,30,c),
(80,-70,l),
(217,-70,o),
(295,-54,o),
(329,36,cs)
);
},
{
closed = 1;
nodes = (
(339,142,l),
(157,700,l),
(28,700,l),
(233,138,l),
(310,138,l)
);
}
);
width = 612;
}
);
unicode = 1059;
},
{
glyphname = Zecyr.ss09;
layers = (
{
anchors = (
{
name = bottom;
position = "{299, -20}";
},
{
name = top;
position = "{299, 719}";
}
);
layerId = "84EF03BF-F357-4104-A115-739D7CF90CE5";
shapes = (
{
closed = 1;
nodes = (
(453.4,-21,o),
(557.5,56,o),
(557.5,179,cs),
(557.5,294,o),
(496.339,355,o),
(366,371,c),
(483,399,o),
(524,451,o),
(524,542,cs),
(524,649,o),
(439,720,o),
(302,720,cs),
(150,720,o),
(66,633,o),
(42,502,c),
(162,502,l),
(177,584,o),
(231,620,o),
(303,620,cs),
(358,620,o),
(404,593.874,o),
(404,531.575,cs),
(404,471.285,o),
(363,412,o),
(261,412,c),
(261,317,l),
(392.629,317,o),
(437.5,264.781,o),
(437.5,195.489,cs),
(437.5,116.156,o),
(379.604,79,o),
(307.731,79,cs),
(216.891,79,o),
(171.97,117,o),
(155,197,c),
(35,197,l),
(61.025,66,o),
(143.103,-21,o),
(304.257,-21,cs)
);
}
);
width = 598;
}
);
rightKerningGroup = B1;
},
{
glyphname = Ereversedcyr.ss09;
layers = (
{
anchors = (
{
name = top;
position = "{387, 719}";
}
);
layerId = "84EF03BF-F357-4104-A115-739D7CF90CE5";
shapes = (
{
closed = 1;
nodes = (
(609,310,l),
(286,310,l),
(286,410,l),
(609,410,l)
);
},
{
closed = 1;
nodes = (
(720,142,o),
(583,-20,o),
(374,-20,cs),
(207,-20,o),
(90,84,o),
(53,261,c),
(173,261,l),
(183,152,o),
(266,80,o),
(376,80,cs),
(513,80,o),
(600,192,o),
(600,354,cs),
(600,511,o),
(519,620,o),
(381,620,cs),
(289,620,o),
(212,571,o),
(183,485,c),
(63,485,l),
(110,637,o),
(216,720,o),
(372,720,cs),
(583,720,o),
(720,568,o),
(720,355,cs)
);
}
);
width = 773;
}
);
leftKerningGroup = C1;
rightKerningGroup = C;
},
{
glyphname = zecyr.ss09;
layers = (
{
anchors = (
{
name = top;
position = "{262, 520}";
},
{
name = bottom;
position = "{282, -20}";
}
);
layerId = "84EF03BF-F357-4104-A115-739D7CF90CE5";
shapes = (
{
closed = 1;
nodes = (
(458.5,472,o),
(385.587,520,o),
(272.721,520,cs),
(140.878,520,o),
(56.977,454.698,o),
(38,333,c),
(150,333,l),
(162.031,392.768,o),
(199.128,430,o),
(269.312,430,cs),
(322.45,430,o),
(341.5,408.85,o),
(341.5,377.629,cs),
(341.5,321.229,o),
(282.318,289,o),
(179,289,c),
(179,209,l),
(292,209,o),
(358,190.87,o),
(358,132.449,cs),
(358,93.167,o),
(327,70,o),
(264,70,cs),
(192,70,o),
(156,107,o),
(150,167,c),
(38,167,l),
(50,53,o),
(128,-20,o),
(263,-20,cs),
(399,-20,o),
(478,38,o),
(478,141,cs),
(478,223,o),
(419,263,o),
(307,261,c),
(417.635,271,o),
(458.5,316,o),
(458.5,383,cs)
);
}
);
width = 525;
}
);
leftKerningGroup = s1;
rightKerningGroup = s;
},
{
glyphname = ereversedcyr.ss09;
layers = (
{
anchors = (
{
name = top;
position = "{305, 520}";
},
{
name = bottom;
position = "{305, -20}";
}
);
layerId = "84EF03BF-F357-4104-A115-739D7CF90CE5";
shapes = (
{
closed = 1;
nodes = (
(527,215,l),
(253,215,l),
(253,287,l),
(527,287,l)
);
},
{
closed = 1;
nodes = (
(159,-20,o),
(71,47,o),
(61,167,c),
(176,167,l),
(179,111,o),
(223,70,o),
(287,70,cs),
(380,70,o),
(432,134.358,o),
(432,246.983,cs),
(432,361.62,o),
(385,430,o),
(294,430,cs),
(230,430,o),
(181,389.828,o),
(174,333,c),
(59,333,l),
(78,457.667,o),
(166,520,o),
(294,520,cs),
(456,520,o),
(552,417,o),
(552,255,cs),
(552,85,o),
(452,-20,o),
(289,-20,cs)
);
}
);
width = 611;
}
);
leftKerningGroup = a;
rightKerningGroup = b1;
},
{
glyphname = Zecyr.ss10;
layers = (
{
anchors = (
{
name = bottom;
position = "{299, -20}";
},
{
name = top;
position = "{299, 719}";
}
);
layerId = "84EF03BF-F357-4104-A115-739D7CF90CE5";
shapes = (
{
closed = 1;
nodes = (
(232.8,80,o),
(170.891,120.26,o),
(96,235,c),
(57,107,l),
(126.069,23,o),
(213.156,-20,o),
(320.262,-20,cs,{name = dv04;}),
(463.405,-20,o),
(557.5,57,o),
(557.5,190,cs),
(557.5,294,o),
(496.339,355,o),
(366,371,c),
(479,398,o),
(525,447,o),
(525,541,cs),
(525,650,o),
(447,720,o),
(301,720,cs,{name = dv04;}),
(213,720,o),
(126,677,o),
(57,593,c),
(96,465,l),
(171,579.74,o),
(233,620,o),
(297,620,cs,{name = dv03;}),
(363,620,o),
(405,590.86,o),
(405,535.594,cs),
(405,461.237,o),
(354,412,o),
(276,412,c),
(276,317,l),
(397.626,317,o),
(437.5,264.78,o),
(437.5,197.496,cs),
(437.5,117.157,o),
(375.592,80,o),
(305.694,80,cs,{name = dv03;})
);
}
);
width = 598;
}
);
rightKerningGroup = B1;
},
{
glyphname = Ereversedcyr.ss10;
layers = (
{
anchors = (
{
name = top;
position = "{357, 719}";
}
);
layerId = "84EF03BF-F357-4104-A115-739D7CF90CE5";
shapes = (
{
closed = 1;
nodes = (
(540,-20,o),
(682,137,o),
(682,357,cs),
(682,573,o),
(545,720,o),
(337,720,cs),
(225,720,o),
(131,677,o),
(62,593,c),
(101,465,l),
(175,579.74,o),
(244,620,o),
(334,620,cs),
(480,620,o),
(562,514.61,o),
(562,353.011,cs),
(562,191.413,o),
(479,80,o),
(324,80,cs),
(238,80,o),
(168,117.24,o),
(92,235,c),
(53,107,l),
(123,23,o),
(220,-20,o),
(330,-20,cs)
);
},
{
closed = 1;
nodes = (
(236,314,l),
(571,314,l),
(571,414,l),
(236,414,l)
);
}
);
width = 735;
}
);
leftKerningGroup = C1;
rightKerningGroup = C;
},
{
glyphname = zecyr.ss10;
layers = (
{
anchors = (
{
name = bottom;
position = "{257, -20}";
},
{
name = top;
position = "{250, 520}";
}
);
layerId = "84EF03BF-F357-4104-A115-739D7CF90CE5";
shapes = (
{
closed = 1;
nodes = (
(287,70,o),
(333,91,o),
(333,130,cs),
(333,188,o),
(301,218,o),
(170,218,c),
(170,298,l),
(281,298,o),
(318,317,o),
(318,367,cs),
(318,398,o),
(291,430,o),
(231,430,cs),
(158,430,o),
(104,394,o),
(68,322,c),
(37,430,l),
(73,485,o),
(150,520,o),
(234,520,cs),
(385,520,o),
(435,455,o),
(435,386,cs),
(435,320,o),
(385,274,o),
(258,260,c),
(382,251,o),
(453,226,o),
(453,137,cs),
(453,40,o),
(369,-20,o),
(234,-20,cs),
(150,-20,o),
(73,15,o),
(37,70,c),
(68,178,l),
(104,106,o),
(158,70,o),
(231,70,cs)
);
}
);
width = 500;
}
);
leftKerningGroup = s1;
rightKerningGroup = s;
},
{
glyphname = ereversedcyr.ss10;
layers = (
{
anchors = (
{
name = top;
position = "{293, 520}";
},
{
name = bottom;
position = "{293, -20}";
}
);
layerId = "84EF03BF-F357-4104-A115-739D7CF90CE5";
shapes = (
{
closed = 1;
nodes = (
(421,-20,o),
(526,91,o),
(526,255,cs),
(526,412,o),
(419,520,o),
(264,520,cs),
(179,520,o),
(103,485,o),
(59,426,c),
(90,318,l),
(149,402,o),
(192,430,o),
(263,430,cs),
(355,430,o),
(406,368,o),
(406,256,cs),
(406,145,o),
(355,70,o),
(265,70,cs),
(191,70,o),
(149,97,o),
(90,182,c),
(59,74,l),
(103,15,o),
(179,-20,o),
(264,-20,cs)
);
},
{
closed = 1;
nodes = (
(478,287,l),
(204,287,l),
(204,215,l),
(478,215,l)
);
}
);
width = 585;
}
);
leftKerningGroup = a;
rightKerningGroup = b1;
},
{
glyphname = efcyr.ss11;
layers = (
{
layerId = "84EF03BF-F357-4104-A115-739D7CF90CE5";
shapes = (
{
closed = 1;
nodes = (
(481,700,l),
(361,700,l),
(361,-200,l),
(481,-200,l)
);
},
{
closed = 1;
nodes = (
(200,70,o),
(179,168,o),
(179,255,cs),
(179,373,o),
(220,429,o),
(306,429,cs,{name = sv01;}),
(361,429,o),
(419,406,o),
(451,362,c),
(451,486,l),
(411,507,o),
(361,520,o),
(303,520,cs),
(147,520,o),
(59,421,o),
(59,255,cs),
(59,79,o),
(147,-20,o),
(302,-20,cs,{name = dv01;}),
(363,-20,o),
(417,-6,o),
(459,17,c),
(457,138,l),
(427,96,o),
(359,71,o),
(308,71,cs,{name = dv02;})
);
},
{
closed = 1;
nodes = (
(485,71,o),
(417,96,o),
(387,138,c),
(387,15,l),
(429,-7,o),
(482,-20,o),
(542,-20,cs,{name = dv01;}),
(697,-20,o),
(785,79,o),
(785,255,cs),
(785,421,o),
(697,520,o),
(541,520,cs),
(483,520,o),
(433,507,o),
(393,486,c),
(393,362,l),
(425,406,o),
(483,429,o),
(538,429,cs,{name = sv01;}),
(624,429,o),
(665,373,o),
(665,255,cs),
(665,168,o),
(644,70,o),
(536,71,cs,{name = dv02;})
);
}
);
width = 844;
}
);
leftKerningGroup = a;
rightKerningGroup = b1;
},
{
glyphname = djecyr.ss11;
layers = (
{
layerId = "84EF03BF-F357-4104-A115-739D7CF90CE5";
shapes = (
{
closed = 1;
nodes = (
(96,0,l),
(216,0,l),
(216,700,l),
(96,700,l)
);
},
{
closed = 1;
nodes = (
(209,260,l),
(216,197,l,{name = iv01;}),
(216,325.204,o),
(264,410,o),
(352,410,cs,{name = sv01;}),
(411,410,o),
(443,379.853,o),
(443,271.324,cs),
(443,0,l,{name = ab01;}),
(563,0,l),
(563,294,ls),
(563,438,o),
(496,500,o),
(392,500,cs,{name = at01;}),
(299,500,o),
(222,432,o),
(208,335,c)
);
},
{
closed = 1;
nodes = (
(15,580,l),
(393,580,l),
(393,616,l),
(15,616,l)
);
},
{
closed = 1;
nodes = (
(563,259,l),
(443,259,l,{name = av01;}),
(443,-39,ls),
(443,-106,o),
(435,-128,o),
(390,-128,cs,{name = dv02;}),
(373,-128,o),
(340,-123,o),
(318,-114,c),
(296,-198,l),
(341,-212,o),
(355,-221,o),
(420,-221,cs,{name = dv01;}),
(512,-221,o),
(563,-174,o),
(563,-68,cs)
);
}
);
width = 647;
}
);
leftKerningGroup = f;
rightKerningGroup = h;
},
{
glyphname = tshecyr.ss11;
layers = (
{
layerId = "84EF03BF-F357-4104-A115-739D7CF90CE5";
shapes = (
{
closed = 1;
nodes = (
(114,0,l,{name = ab03;}),
(234,0,l),
(234,700,l,{name = ab01;}),
(114,700,l)
);
},
{
closed = 1;
nodes = (
(227,260,l),
(234,197,l,{name = iv01;}),
(234,324,o),
(282,408,o),
(370,408,cs,{name = sv01;}),
(429,408,o),
(461,378,o),
(461,270,cs),
(461,0,l,{name = ab01;}),
(581,0,l),
(581,294,ls),
(581,438,o),
(514,500,o),
(410,500,cs,{name = at01;}),
(317,500,o),
(240,432,o),
(226,335,c)
);
},
{
closed = 1;
nodes = (
(15,580,l),
(415,580,l),
(415,616,l),
(15,616,l)
);
}
);
width = 665;
}
);
leftKerningGroup = f;
},
{
glyphname = thorn.ss11;
layers = (
{
layerId = "84EF03BF-F357-4104-A115-739D7CF90CE5";
shapes = (
{
closed = 1;
nodes = (
(83,-200,l,{name = av01;}),
(203,-200,l),
(203.3,106.34,l),
(231.55,26.78,o),
(286.01,-20,o),
(363,-20,cs,{name = dv01;}),
(501,-20,o),
(585,99,o),
(585,255,cs),
(585,411,o),
(510,520,o),
(369,520,cs,{name = at01;}),
(289.2,520,o),
(232.41,476.67,o),
(203.3,398.53,c),
(203.3,700,l),
(83.3,700,l)
);
},
{
closed = 1;
nodes = (
(465,142.19,o),
(416,70,o),
(338,70,cs,{name = dv02;}),
(261.36,70,o),
(203.3,148.471,o),
(203.3,247.37,cs),
(203.3,331.976,o),
(236.157,430,o),
(339,430,cs,{name = sv01;}),
(419,430,o),
(465,366.82,o),
(465,255.51,cs)
);
}
);
width = 635;
}
);
leftKerningGroup = b;
rightKerningGroup = b1;
},
{
glyphname = hbar.ss11;
layers = (
{
layerId = "84EF03BF-F357-4104-A115-739D7CF90CE5";
shapes = (
{
closed = 1;
nodes = (
(84,0,l),
(204,0,l),
(204,700,l),
(84,700,l)
);
},
{
closed = 1;
nodes = (
(197,260,l),
(204,197,l,{name = iv01;}),
(204,325.204,o),
(252,410,o),
(340,410,cs,{name = sv01;}),
(399,410,o),
(431,379.86,o),
(431,271.355,cs),
(431,0,l,{name = ab01;}),
(551,0,l),
(551,294,ls),
(551,438,o),
(484,500,o),
(380,500,cs,{name = at01;}),
(287,500,o),
(210,432,o),
(196,335,c)
);
},
{
closed = 1;
nodes = (
(5.795,601,l),
(368.303,601,l),
(368.303,635,l),
(5.795,635,l)
);
}
);
width = 635;
}
);
leftKerningGroup = f;
rightKerningGroup = h;
},
{
glyphname = lslash.ss11;
layers = (
{
layerId = "84EF03BF-F357-4104-A115-739D7CF90CE5";
shapes = (
{
closed = 1;
nodes = (
(18,335,l),
(18,249,l),
(254,410,l),
(254,496,l)
);
},
{
alignment = -1;
ref = l.ss11;
}
);
width = 272;
}
);
leftKerningGroup = f;
},
{
glyphname = Yacyr.ss08;
layers = (
{
anchors = (
{
name = top;
position = "{322, 719}";
},
{
name = bottom;
position = "{322, -20}";
}
);
layerId = "84EF03BF-F357-4104-A115-739D7CF90CE5";
shapes = (
{
closed = 1;
nodes = (
(566,0,l),
(566,700,l),
(303.93,700,ls),
(154.176,700,o),
(58.5,611,o),
(58.5,474,cs),
(58.5,341,o),
(154.322,244,o),
(313.323,244,cs),
(446,244,l),
(446,0,l)
);
},
{
closed = 1;
nodes = (
(342.032,344,ls),
(233.733,344,o),
(178.5,383,o),
(178.5,469,cs),
(178.5,555,o),
(233.733,600,o),
(342.032,600,cs),
(446,600,l),
(446,344,l)
);
},
{
closed = 1;
nodes = (
(262,305,l),
(166,279,o),
(124,273,o),
(99,222,cs),
(74,171,o),
(94,56,o),
(74,0,c),
(197,0,l),
(212,60,o),
(195,143,o),
(212,183,cs),
(233,232,o),
(285,242,o),
(338,244,c)
);
}
);
width = 645;
}
);
leftKerningGroup = Yacyr;
rightKerningGroup = H;
},
{
glyphname = Ljecyr.ss08;
layers = (
{
layerId = "84EF03BF-F357-4104-A115-739D7CF90CE5";
shapes = (
{
closed = 1;
nodes = (
(517,0,l),
(627,0,ls),
(789,0,o),
(871,65,o),
(871,193,cs),
(871,322,o),
(787,390,o),
(626,390,cs),
(414,390,l),
(429,290,l),
(578,290,ls),
(717,290,o),
(751,266,o),
(751,193,cs),
(751,120,o),
(714,100,o),
(577,100,cs),
(569,100,l),
(516,3,l)
);
},
{
alignment = -1;
ref = Elcyr.ss08;
}
);
width = 920;
}
);
leftKerningGroup = A1;
rightKerningGroup = Ljecyr;
},
{
glyphname = Decyr.ss08;
layers = (
{
layerId = "84EF03BF-F357-4104-A115-739D7CF90CE5";
shapes = (
{
closed = 1;
nodes = (
(348,700,l),
(144,73,l),
(273,73,l),
(464,700,l)
);
},
{
closed = 1;
nodes = (
(399,700,l),
(590,73,l),
(719,73,l),
(515,700,l)
);
},
{
closed = 1;
nodes = (
(166,100,ls),
(71,100,o),
(29,83,o),
(29,-140,c),
(129,-140,l),
(129,-37,o),
(126,0,o),
(185,0,cs),
(670,0,ls),
(741,0,o),
(733,-32,o),
(733,-140,c),
(833,-140,l),
(833,83,o),
(799,100,o),
(703,100,cs)
);
}
);
width = 863;
}
);
leftKerningGroup = A1;
rightKerningGroup = A;
},
{
glyphname = decyr.ss08;
layers = (
{
layerId = "84EF03BF-F357-4104-A115-739D7CF90CE5";
shapes = (
{
closed = 1;
nodes = (
(508,86,l),
(633,86,l),
(464,500,l),
(317,500,l),
(148,86,l),
(274,86,l),
(391,406,l)
);
},
{
closed = 1;
nodes = (
(142,-140,l),
(143,-107,o),
(128,0,o),
(188,0,cs),
(588,0,ls),
(655,0,o),
(640,-102,o),
(640,-140,c),
(736,-140,l),
(736,34,o),
(715,91,o),
(617,91,cs),
(164,91,ls),
(66,91,o),
(45,34,o),
(45,-140,c)
);
}
);
width = 781;
}
);
leftKerningGroup = decyr.ss08;
rightKerningGroup = decyr.ss081;
},
{
glyphname = elcyr.ss08;
layers = (
{
layerId = "84EF03BF-F357-4104-A115-739D7CF90CE5";
shapes = (
{
closed = 1;
nodes = (
(275,352,l),
(396,0,l),
(525,0,l),
(333,500,l),
(217,500,l),
(25,0,l),
(154,0,l)
);
}
);
width = 550;
}
);
leftKerningGroup = decyr.ss08;
rightKerningGroup = decyr.ss081;
},
{
glyphname = ljecyr.ss08;
layers = (
{
layerId = "84EF03BF-F357-4104-A115-739D7CF90CE5";
shapes = (
{
closed = 1;
nodes = (
(368,305,l),
(368,215,l),
(546,215,ls),
(593,215,o),
(620,192,o),
(620,153,cs),
(620,114,o),
(595,91,o),
(553,91,cs),
(467,91,l),
(422,0,l),
(571,0,ls),
(694,0,o),
(740,64,o),
(740,154,cs),
(740,244,o),
(690,305,o),
(559,305,cs)
);
},
{
alignment = -1;
ref = elcyr.ss08;
}
);
width = 790;
}
);
leftKerningGroup = decyr.ss08;
rightKerningGroup = hardcyr;
},
{
glyphname = oe.ss09;
layers = (
{
layerId = "84EF03BF-F357-4104-A115-739D7CF90CE5";
shapes = (
{
closed = 1;
nodes = (
(54.23,79,o),
(145.41,-20,o),
(295.76,-20,cs,{name = dv01;}),
(458.72,-20,o),
(537.29,79,o),
(537.29,255,cs),
(537.29,421,o),
(457.75,520,o),
(295.76,520,cs,{name = at01;}),
(144.44,520,o),
(54.23,421,o),
(54.23,255,cs)
);
},
{
closed = 1;
nodes = (
(420.89,135.363,o),
(379.18,70,o),
(295.76,70,cs,{name = dv02;}),
(215.25,70,o),
(170.63,132.346,o),
(170.63,255.028,cs),
(170.63,373.687,o),
(212.34,430,o),
(295.76,430,cs,{name = sv01;}),
(380.15,430,o),
(420.89,369.665,o),
(420.89,253.017,cs)
);
},
{
closed = 1;
nodes = (
(537.24,310,l),
(537.24,377.869,o),
(592.92,430,o),
(663,430,cs),
(730.2,430,o),
(780.12,378.852,o),
(780.12,310,c)
);
},
{
closed = 1;
nodes = (
(585.24,70,o),
(537.24,135.389,o),
(537.24,238,c),
(901.08,238,l),
(901.08,397,o),
(821.4,520,o),
(663,520,cs),
(504.6,520,o),
(421.08,401,o),
(421.08,255,cs),
(421.08,95,o),
(512.28,-20,o),
(663,-20,cs),
(800.28,-20,o),
(875.16,50,o),
(895.32,167,c),
(776.28,167,l),
(772.44,100,o),
(719.64,70,o),
(662.04,70,cs)
);
}
);
width = 954;
}
);
leftKerningGroup = a;
rightKerningGroup = b1;
},
{
glyphname = oe.ss10;
layers = (
{
layerId = "84EF03BF-F357-4104-A115-739D7CF90CE5";
shapes = (
{
closed = 1;
nodes = (
(53.64,79,o),
(143.88,-20,o),
(292.68,-20,cs,{name = dv01;}),
(453.96,-20,o),
(531.72,79,o),
(531.72,255,cs),
(531.72,421,o),
(453,520,o),
(292.68,520,cs,{name = at01;}),
(142.92,520,o),
(53.64,421,o),
(53.64,255,cs)
);
},
{
closed = 1;
nodes = (
(416.52,135.363,o),
(375.24,70,o),
(292.68,70,cs,{name = dv02;}),
(213,70,o),
(168.84,132.346,o),
(168.84,255.028,cs),
(168.84,373.687,o),
(210.12,430,o),
(292.68,430,cs,{name = sv01;}),
(376.2,430,o),
(416.52,369.665,o),
(416.52,253.017,cs)
);
},
{
closed = 1;
nodes = (
(536.24,308,l),
(536.24,378,o),
(586.911,430,o),
(655.748,430,cs),
(724.585,430,o),
(769.52,378,o),
(769.52,308,c)
);
},
{
closed = 1;
nodes = (
(597.487,70,o),
(535.28,118,o),
(535.28,228,c),
(890.48,228,l),
(900.48,410,o),
(804.256,520,o),
(658.633,520,cs),
(512.052,520,o),
(420.08,410,o),
(420.08,255,cs),
(420.08,90,o),
(513.962,-20,o),
(670.758,-20,cs),
(759.203,-20,o),
(832.009,15,o),
(874.16,74,c),
(844.4,182,l),
(800.185,93.415,o),
(743.912,70,o),
(673.092,70,cs)
);
}
);
width = 944;
}
);
leftKerningGroup = a;
rightKerningGroup = b1;
},
{
glyphname = ae.ss13;
layers = (
{
layerId = "84EF03BF-F357-4104-A115-739D7CF90CE5";
shapes = (
{
closed = 1;
nodes = (
(354.03,520,o),
(409.66,499.9,o),
(443.61,462.48,c),
(482.98,498.46,o),
(536.45,520,o),
(603.4,520,cs),
(760.81,520,o),
(840,397,o),
(840,238,c),
(483,238,l),
(483,135.38,o),
(528.58,70,o),
(601.51,70,cs),
(656.21,70,o),
(706.35,100,o),
(710,167,c),
(834,167,l),
(813.97,50,o),
(739.6,-20,o),
(603.26,-20,cs),
(517.29,-20,o),
(450.85,17.95,o),
(409.84,80.54,c),
(365.439,11.404,o),
(302.303,-20,o),
(221.529,-20,cs),
(108.498,-20,o),
(36,41.494,o),
(36,146,cs),
(36,243,o),
(110,312,o),
(217,312,cs),
(285.1,312,o),
(336.5,283.76,o),
(363,233.97,c),
(363,356.82,ls),
(363,400.93,o),
(332.84,430,o),
(279.56,430,cs),
(225.27,430,o),
(179.03,399,o),
(172,341,c),
(57,341,l),
(65.27,455.16,o),
(142.79,520,o),
(280,520,cs)
);
},
{
closed = 1;
nodes = (
(156,99,o),
(196,70,o),
(249,70,cs),
(310.2,70,o),
(353.31,107.77,o),
(362.27,164.47,c),
(343.91,199.79,o),
(303.39,222,o),
(249,222,cs),
(194,222,o),
(156,199,o),
(156,150,cs)
);
},
{
closed = 1;
nodes = (
(714,310,l),
(714,378.85,o),
(666.52,430,o),
(602.6,430,cs),
(535.95,430,o),
(483,377.86,o),
(483,310,c)
);
}
);
width = 887;
}
);
leftKerningGroup = a.ss02;
},
{
glyphname = ae.ss14;
layers = (
{
layerId = "84EF03BF-F357-4104-A115-739D7CF90CE5";
shapes = (
{
closed = 1;
nodes = (
(350.885,253,l),
(332.448,222,o),
(283.041,202,o),
(233.633,202,cs),
(176.476,202,o),
(149.35,175,o),
(149.35,137,cs),
(149.35,96,o),
(179.386,70,o),
(224.926,70,cs),
(294.688,70,o),
(350.885,129,o),
(350.885,186,cs)
);
},
{
closed = 1;
nodes = (
(701.99,308,l),
(701.99,378,o),
(656.901,430,o),
(587.818,430,cs),
(518.744,430,o),
(467.885,378,o),
(467.885,308,c)
);
},
{
closed = 1;
nodes = (
(189.226,430,o),
(143.185,410,o),
(78.91,318,c),
(48.84,426,l),
(81.038,472,o),
(145.427,520,o),
(255.669,520,cs),
(330.548,520,o),
(387.334,498.44,o),
(422.36,460.06,c),
(462.7,498.09,o),
(520.867,520,o),
(590.63,520,cs),
(736.25,520,o),
(834.639,406.57,o),
(821.99,228,c),
(467.54,228,l),
(467.54,118,o),
(529.696,70,o),
(605.24,70,cs),
(675.998,70,o),
(732.219,93.41,o),
(776.39,182,c),
(806.15,74,l),
(764,15,o),
(691.2,-20,o),
(602.75,-20,cs),
(504.02,-20,o),
(430.24,23.62,o),
(389.13,97.12,c),
(352.177,25.482,o),
(276.92,-20,o),
(196.822,-20,cs),
(106.205,-20,o),
(32.35,38.193,o),
(32.35,135.515,cs),
(32.35,232.837,o),
(106.381,282,o),
(221.325,282,cs),
(313.864,282,o),
(350.88,313.785,o),
(350.88,361.463,cs),
(350.88,405.168,o),
(317.117,430,o),
(249.59,430,cs)
);
}
);
width = 867;
}
);
leftKerningGroup = a.ss02;
},
{
glyphname = germandbls;
layers = (
{
layerId = "84EF03BF-F357-4104-A115-739D7CF90CE5";
shapes = (
{
closed = 1;
nodes = (
(667,48,o),
(586,-20,o),
(466,-20,cs),
(385,-20,o),
(312,11,o),
(268,74,c),
(332,138,l),
(369,92.328,o),
(400,70,o),
(454,70,cs),
(507,70,o),
(550,91.036,o),
(550,140.119,cs),
(550,249.304,o),
(331,244.296,o),
(331,367.505,cs),
(331,455.655,o),
(443,495.723,o),
(443,581.869,cs),
(443,637.964,o),
(396,659,o),
(340,659,cs),
(252,659,o),
(204,607,o),
(204,515,cs),
(204,0,l),
(84,0,l),
(84,545,ls),
(84,680,o),
(191,749,o),
(335,749,cs),
(472,749,o),
(563,687,o),
(563,585,cs),
(563,472,o),
(451,445,o),
(451,383,cs),
(451,297,o),
(667,306,o),
(667,146,cs)
);
}
);
width = 725;
}
);
leftKerningGroup = b;
rightKerningGroup = germandbls;
unicode = 223;
},
{
glyphname = germandbls.ss09;
layers = (
{
layerId = "84EF03BF-F357-4104-A115-739D7CF90CE5";
shapes = (
{
closed = 1;
nodes = (
(457,263,o),
(652,271,o),
(652,122,cs),
(652,28,o),
(574,-20,o),
(466,-20,cs),
(344,-20,o),
(268,20,o),
(257,127,c),
(377,127,l),
(387,84,o),
(410,72,o),
(460,72,cs),
(512,72,o),
(532,97,o),
(532,129,cs),
(532,227,o),
(337,223,o),
(337,351,cs),
(337,437,o),
(428,476,o),
(428,563,cs),
(428,622,o),
(387,661,o),
(321,661,cs),
(243,661,o),
(204,605,o),
(204,497,cs),
(204,0,l),
(84,0,l),
(84,535,ls),
(84,685,o),
(185,751,o),
(321,751,cs),
(449,751,o),
(548,692,o),
(548,569,cs),
(548,452,o),
(457,443,o),
(457,370,cs)
);
}
);
width = 710;
}
);
leftKerningGroup = b;
rightKerningGroup = germandbls;
},
{
glyphname = germandbls.ss10;
layers = (
{
layerId = "84EF03BF-F357-4104-A115-739D7CF90CE5";
shapes = (
{
closed = 1;
nodes = (
(374,-20,o),
(303,23,o),
(260,87,c),
(291,195,l),
(342,112,o),
(397,70,o),
(470,70,cs),
(522,70,o),
(553,92,o),
(553,128,cs),
(553,227,o),
(325,248,o),
(325,370,cs),
(325,454,o),
(431,478,o),
(431,568,cs),
(431,630,o),
(388,660,o),
(317,660,cs),
(239,660,o),
(204,602,o),
(204,518,cs),
(204,0,l),
(84,0,l),
(84,535,ls),
(84,686,o),
(187,751,o),
(321,751,cs),
(460,751,o),
(551,682,o),
(551,564,cs),
(551,446,o),
(444,432,o),
(444,377,cs),
(444,296,o),
(672,283,o),
(672,131,cs),
(672,43,o),
(595,-20,o),
(474,-20,cs)
);
}
);
width = 730;
}
);
leftKerningGroup = b;
rightKerningGroup = germandbls;
},
{
glyphname = eth;
layers = (
{
layerId = "84EF03BF-F357-4104-A115-739D7CF90CE5";
shapes = (
{
closed = 1;
nodes = (
(152,631,l),
(266,581,o),
(422,469,o),
(473,381,c),
(443,433,o),
(383,471,o),
(298,471,cs),
(167,471,o),
(59,377,o),
(59,230,cs),
(59,85,o),
(163,-20,o),
(318,-20,cs),
(470,-20,o),
(577,82,o),
(577,257,cs),
(577,415,o),
(511,553,o),
(193,708,c)
);
},
{
closed = 1;
nodes = (
(400,381,o),
(457,327,o),
(457,231,cs),
(457,138,o),
(403,71,o),
(315,71,cs),
(234,71,o),
(179,127,o),
(179,225,cs),
(179,321,o),
(231,381,o),
(318,381,cs)
);
},
{
closed = 1;
nodes = (
(315,600,l),
(156,539,l),
(174,497,l),
(349,574,l)
);
},
{
closed = 1;
nodes = (
(349,574,l),
(506,634,l),
(488,677,l),
(315,600,l)
);
}
);
width = 636;
}
);
leftKerningGroup = a;
rightKerningGroup = b1;
unicode = 240;
},
{
glyphname = Germandbls;
layers = (
{
layerId = "84EF03BF-F357-4104-A115-739D7CF90CE5";
shapes = (
{
closed = 1;
nodes = (
(667,645,l),
(614,688,o),
(506,720,o),
(384,720,cs),
(195,720,o),
(96,643,o),
(96,489,cs),
(96,0,l),
(216,0,l),
(216,477.897,ls),
(216,580.232,o),
(275,616,o),
(374,616,cs),
(423,616,o),
(461,607,o),
(487,599,c),
(426,536,ls),
(378.286,486.722,o),
(356,445.16,o),
(356,395.682,cs),
(356,236.362,o),
(597,261.101,o),
(597,151.259,cs),
(597,106.729,o),
(555.2,81,o),
(502.95,81,cs),
(450.7,81,o),
(407,107,o),
(382,154,c),
(303,75,l),
(341,18,o),
(402.364,-20,o),
(497.818,-20,cs),
(630.286,-20,o),
(716,54,o),
(716,160,cs),
(716,340,o),
(473,316,o),
(473,426,cs),
(473,453,o),
(492,479,o),
(519,505,cs)
);
}
);
width = 765;
}
);
unicode = 7838;
},
{
glyphname = Germandbls.ss10;
layers = (
{
layerId = "84EF03BF-F357-4104-A115-739D7CF90CE5";
shapes = (
{
closed = 1;
nodes = (
(674,321,o),
(413,309,o),
(413,405,cs),
(413,435,o),
(438,457,o),
(468,484,cs),
(638,635,l),
(575,688,o),
(461,720,o),
(347,720,cs),
(156,720,o),
(84,631,o),
(84,499,cs),
(84,0,l),
(204,0,l),
(204,494,ls),
(204,577,o),
(253,619,o),
(350,619,cs),
(399,619,o),
(434,608,o),
(469,594,c),
(374,515,ls),
(307,460,o),
(292,430,o),
(292,395,cs),
(292,249,o),
(554,267,o),
(554,151,cs),
(554,109,o),
(522,80,o),
(476,80,cs),
(414,80,o),
(366,133,o),
(315,216,c),
(277,87,l),
(318,27,o),
(392,-20,o),
(486,-20,cs),
(621,-20,o),
(674,77,o),
(674,153,cs)
);
}
);
width = 723;
}
);
},
{
glyphname = Germandbls.ss09;
layers = (
{
layerId = "84EF03BF-F357-4104-A115-739D7CF90CE5";
shapes = (
{
closed = 1;
nodes = (
(392,553,ls),
(317,504,o),
(288,455,o),
(288,396,cs),
(288,218,o),
(554,282,o),
(554,150,cs),
(554,102,o),
(518,81,o),
(466,81,cs),
(411,81,o),
(384,105,o),
(382,157,c),
(262,157,l),
(280,38,o),
(346,-20,o),
(467,-20,cs),
(597,-20,o),
(674,47,o),
(674,156,cs),
(674,358,o),
(407,306,o),
(407,416,cs),
(407,461,o),
(452,492,o),
(475,512,cs),
(624,644,l),
(563,695,o),
(457,720,o),
(355,720,cs),
(154,720,o),
(84,624,o),
(84,489,cs),
(84,0,l),
(204,0,l),
(204,452,ls),
(204,576,o),
(255,619,o),
(358,619,cs),
(400,619,o),
(435,612,o),
(463,600,c)
);
}
);
width = 723;
}
);
},
{
glyphname = rho;
layers = (
{
anchors = (
{
name = topgr;
position = "{322, 520}";
}
);
layerId = "84EF03BF-F357-4104-A115-739D7CF90CE5";
shapes = (
{
closed = 1;
nodes = (
(203,-200,l),
(203,274,l),
(83,251,l),
(83,-200,l)
);
},
{
closed = 1;
nodes = (
(93,250,l),
(121,231,o),
(148,207,o),
(175,192,c),
(165,70,o),
(232,-20,o),
(353,-20,cs),
(486,-20,o),
(580,90,o),
(580,257,cs),
(580,423,o),
(488,520,o),
(326,520,cs),
(159,520,o),
(83,417,o),
(83,247,c)
);
},
{
closed = 1;
nodes = (
(461,135.363,o),
(414,70,o),
(328,70,cs,{name = dv02;}),
(245,70,o),
(203,132.346,o),
(203,255.028,cs),
(203,373.687,o),
(244,430,o),
(330,430,cs,{name = sv01;}),
(417,430,o),
(461,369.665,o),
(461,253.017,cs)
);
}
);
width = 630;
}
);
rightKerningGroup = b1;
unicode = 961;
},
{
glyphname = tonos.case;
layers = (
{
anchors = (
{
name = _topgr;
position = "{58, 500}";
},
{
name = topgr;
position = "{58, 699}";
}
);
layerId = "84EF03BF-F357-4104-A115-739D7CF90CE5";
shapes = (
{
closed = 1;
nodes = (
(58,700,l),
(18,549.462,l),
(91,549.462,l),
(151,700,l)
);
}
);
width = 167;
}
);
},
{
glyphname = eta;
layers = (
{
anchors = (
{
name = topgr;
position = "{300, 520}";
}
);
layerId = "84EF03BF-F357-4104-A115-739D7CF90CE5";
shapes = (
{
closed = 1;
nodes = (
(23,430,l),
(60,430,o),
(89,416,o),
(89,356,cs),
(89,0,l),
(209,0,l),
(209,384,ls),
(209,482,o),
(160,520,o),
(23,520,c)
);
},
{
closed = 1;
nodes = (
(202,287,l),
(209,217,l,{name = iv01;}),
(209,345.204,o),
(255,430,o),
(343,430,cs,{name = sv01;}),
(405,430,o),
(426,388.869,o),
(426,279.522,cs),
(426,-200,l,{name = ab01;}),
(546,-200,l),
(546,304,ls),
(546,448,o),
(496,520,o),
(388,520,cs,{name = at01;}),
(288,520,o),
(221,459,o),
(201,370,c)
);
}
);
width = 630;
}
);
leftKerningGroup = i;
rightKerningGroup = j;
unicode = 951;
},
{
glyphname = epsilon;
layers = (
{
anchors = (
{
name = topgr;
position = "{253, 520}";
}
);
layerId = "84EF03BF-F357-4104-A115-739D7CF90CE5";
shapes = (
{
closed = 1;
nodes = (
(69,312.908,o),
(106,266,o),
(235,254,c),
(102,248,o),
(50,198.909,o),
(50,126.591,cs),
(50,34.727,o),
(135,-20,o),
(250,-20,cs),
(345,-20,o),
(408,17,o),
(458,82,c),
(385,155,l),
(359,106,o),
(315,70,o),
(257,70,cs),
(209,70,o),
(170,94,o),
(170,133,cs),
(170,181,o),
(225,213,o),
(362,213,c),
(362,293,l),
(224,293,o),
(189,322.213,o),
(189,366.537,cs),
(189,407.838,o),
(221,430,o),
(261,430,cs),
(300,430,o),
(338,407.694,o),
(377,357,c),
(450,430,l),
(398,489,o),
(330,520,o),
(244,520,cs),
(137,520,o),
(69,470.79,o),
(69,384.672,cs)
);
}
);
width = 505;
}
);
leftKerningGroup = s1;
rightKerningGroup = s;
unicode = 949;
},
{
glyphname = lownumeralsign;
layers = (
{
layerId = "84EF03BF-F357-4104-A115-739D7CF90CE5";
shapes = (
{
closed = 1;
nodes = (
(212,68,l),
(145,68,l),
(24,-149,l),
(133,-149,l)
);
}
);
width = 241;
}
);
unicode = 885;
},
{
glyphname = alpha;
layers = (
{
anchors = (
{
name = topgr;
position = "{310, 520}";
}
);
layerId = "84EF03BF-F357-4104-A115-739D7CF90CE5";
shapes = (
{
closed = 1;
nodes = (
(140,-20,o),
(50,90,o),
(50,255,cs),
(50,423,o),
(144,520,o),
(273,520,cs),
(392.226,520,o),
(480.369,436.657,o),
(533.037,312.292,cs),
(570.486,223.863,o),
(590,114.695,o),
(590,0,c),
(471,0,l),
(471,89.614,o),
(471.275,203.396,o),
(447.356,291.404,cs),
(425.634,371.331,o),
(383.958,430,o),
(304,430,cs),
(219,430,o),
(170,363,o),
(170,253,cs),
(170,140,o),
(222,70,o),
(308,70,cs),
(405.848,70,o),
(444.605,161.841,o),
(459.951,272.463,cs),
(470.325,347.25,o),
(470,430.621,o),
(470,500,c),
(590,500,l),
(590,416.598,o),
(575.445,331.902,o),
(549.096,255.754,cs),
(495.199,99.994,o),
(391.956,-20,o),
(263,-20,cs)
);
}
);
width = 673;
}
);
leftKerningGroup = a;
rightKerningGroup = a1;
unicode = 945;
},
{
glyphname = beta;
layers = (
{
anchors = (
{
name = topgr;
position = "{315, 721}";
}
);
layerId = "84EF03BF-F357-4104-A115-739D7CF90CE5";
shapes = (
{
closed = 1;
nodes = (
(84,-200,l),
(204,-200,l),
(204,483,ls),
(204,588,o),
(246,629,o),
(321,629,cs),
(396,629,o),
(439,599,o),
(439,525,cs),
(439,442,o),
(406,398,o),
(335,398,cs),
(268,398,l),
(268,318,l),
(346,318,ls),
(423,318,o),
(470,272,o),
(470,198,cs),
(470,116,o),
(414,70,o),
(335.133,70,cs),
(258,70,o),
(204,114,o),
(204,179,c),
(182,90,l),
(209,24,o),
(280,-20,o),
(368.172,-20,cs),
(490,-20,o),
(590,63.31,o),
(590,187.282,cs),
(590,282.493,o),
(532,342,o),
(415,363,c),
(510,382,o),
(559,437.494,o),
(559,529.311,cs),
(559,647.362,o),
(478,719,o),
(326,719,cs),
(174,719,o),
(84,648,o),
(84,516,cs)
);
}
);
width = 630;
}
);
leftKerningGroup = b;
rightKerningGroup = germandbls;
unicode = 946;
},
{
glyphname = omega;
layers = (
{
anchors = (
{
name = topgr;
position = "{416, 520}";
}
);
layerId = "84EF03BF-F357-4104-A115-739D7CF90CE5";
shapes = (
{
closed = 1;
nodes = (
(127,500,l),
(82,422,o),
(59,342,o),
(59,253,cs),
(59,84,o),
(139,-20,o),
(268,-20,cs),
(337,-20,o),
(384,10,o),
(416,71,c),
(448,10,o),
(495,-20,o),
(564,-20,cs),
(693,-20,o),
(773,84,o),
(773,251,cs),
(773,342,o),
(749,429,o),
(709,500,c),
(579,500,l),
(622,430,o),
(653,353,o),
(653,249,cs),
(653,143,o),
(623,70,o),
(555,70,cs),
(504,70,o),
(476,106,o),
(476,170,cs),
(476,361,l),
(356,361,l),
(356,170,ls),
(356,106,o),
(327,70,o),
(277,70,cs),
(210,70,o),
(179,144,o),
(179,252,cs),
(179,342,o),
(202,411,o),
(253,500,c)
);
}
);
width = 832;
}
);
leftKerningGroup = a;
rightKerningGroup = b1;
unicode = 969;
},
{
glyphname = nu;
layers = (
{
layerId = "84EF03BF-F357-4104-A115-739D7CF90CE5";
shapes = (
{
closed = 1;
nodes = (
(301,71,l),
(371,71,o),
(415,137,o),
(415,256,cs),
(415,352,o),
(386,435,o),
(352,500,c),
(482,500,l),
(514,444,o),
(536,352,o),
(536,259,cs),
(536,78,o),
(454,-19,o),
(297,-19,cs),
(214,-19,l),
(25,500,l),
(153,500,l)
);
}
);
width = 595;
}
);
leftKerningGroup = v;
unicode = 957;
},
{
glyphname = phi;
layers = (
{
anchors = (
{
name = topgr;
position = "{375, 520}";
}
);
layerId = "84EF03BF-F357-4104-A115-739D7CF90CE5";
shapes = (
{
closed = 1;
nodes = (
(175,500,l),
(109,460,o),
(59,382,o),
(59,251,cs),
(59,94,o),
(130,-20,o),
(313,-20,c),
(313,-200,l),
(433,-200,l),
(433,-20,l),
(605,-20,o),
(690.5,84,o),
(690.5,250,cs),
(690.5,421,o),
(598.622,520,o),
(442.828,520,cs),
(360.937,520,o),
(313,475.902,o),
(313,399.733,cs),
(313,70,l),
(204,70,o),
(179,155.243,o),
(179,253.523,cs),
(179,328.737,o),
(190,390.914,o),
(254,421,c)
);
},
{
closed = 1;
nodes = (
(433,392.793,ls),
(433,421.955,o),
(439.022,430,o),
(460.099,430,cs),
(542.398,430,o),
(570.5,337.486,o),
(570.5,252.011,cs),
(570.5,131.341,o),
(524.332,70,o),
(433,70,c)
);
}
);
width = 750;
}
);
leftKerningGroup = a;
rightKerningGroup = b1;
unicode = 966;
},
{
glyphname = psi;
layers = (
{
anchors = (
{
name = topgr;
position = "{387, 656}";
}
);
layerId = "84EF03BF-F357-4104-A115-739D7CF90CE5";
shapes = (
{
closed = 1;
nodes = (
(76,500,l),
(76,206,ls),
(76,70,o),
(203,-20,o),
(387,-20,cs),
(569,-20,o),
(697,70,o),
(697,206,cs),
(697,500,l),
(577,500,l),
(577,219,ls),
(577,132,o),
(495,71,o),
(388,71,cs),
(286,71,o),
(196,125,o),
(196,219,cs),
(196,500,l)
);
},
{
closed = 1;
nodes = (
(326,-200,l),
(446,-200,l),
(446,656,l),
(326,656,l)
);
}
);
width = 774;
}
);
unicode = 968;
},
{
glyphname = questiongreek;
layers = (
{
layerId = "84EF03BF-F357-4104-A115-739D7CF90CE5";
shapes = (
{
closed = 1;
nodes = (
(168,119,l),
(100,119,l),
(-9,-149,l),
(96,-149,l)
);
},
{
alignment = -1;
pos = (7,381);
ref = period;
}
);
width = 277;
}
);
unicode = 894;
},
{
glyphname = "numeral-greek";
layers = (
{
layerId = "84EF03BF-F357-4104-A115-739D7CF90CE5";
shapes = (
{
closed = 1;
nodes = (
(213,715,l),
(146,715,l),
(25,498,l),
(134,498,l)
);
}
);
width = 243;
}
);
unicode = 884;
},
{
glyphname = epsilon.ss09;
layers = (
{
anchors = (
{
name = topgr;
position = "{267, 519}";
}
);
layerId = "84EF03BF-F357-4104-A115-739D7CF90CE5";
shapes = (
{
closed = 1;
nodes = (
(69,314,o),
(116,273,o),
(224,261,c),
(112,263,o),
(50,225,o),
(50,135,cs),
(50,12,o),
(164.736,-20,o),
(259.517,-20,cs),
(402.189,-20,o),
(484,53,o),
(493,167,c),
(381,167,l),
(376,108,o),
(342.164,70,o),
(271.507,70,cs),
(232.696,70,o),
(170,81.08,o),
(170,136.478,cs),
(170,184.826,o),
(219,209,o),
(343,209,c),
(343,289,l),
(216,289,o),
(187,336.336,o),
(187,371.586,cs),
(187,411.871,o),
(223.805,430,o),
(268.568,430,cs),
(333.226,430,o),
(376,392.755,o),
(381,333,c),
(493,333,l),
(477,454.698,o),
(390.213,520,o),
(263.523,520,cs),
(164.765,520,o),
(69,480,o),
(69,382,cs)
);
}
);
width = 540;
}
);
leftKerningGroup = a;
rightKerningGroup = b1;
},
{
glyphname = sigmafinal.ss09;
layers = (
{
anchors = (
{
name = topgr;
position = "{305, 519}";
}
);
layerId = "84EF03BF-F357-4104-A115-739D7CF90CE5";
shapes = (
{
closed = 1;
nodes = (
(443,-143,o),
(426,-166,o),
(401,-200,c),
(521,-200,l),
(541,-181,o),
(563,-143,o),
(563,-91,cs),
(563,9,o),
(485.198,70,o),
(356.525,70,cs),
(214.886,70,o),
(170,143.203,o),
(170,256.518,cs),
(170,372.841,o),
(223,430,o),
(307,430,cs),
(378,430,o),
(421,389.592,o),
(427,331,c),
(542,331,l),
(521,457,o),
(430,520,o),
(304,520,cs),
(144,520,o),
(50,417,o),
(50,252,cs),
(50,81,o),
(149.746,-20,o),
(314.327,-20,cs),
(370.185,-20,o),
(443,-22,o),
(443,-104,cs)
);
}
);
width = 610;
}
);
leftKerningGroup = a;
},
{
glyphname = epsilon.ss10;
layers = (
{
anchors = (
{
name = topgr;
position = "{250, 519}";
}
);
layerId = "84EF03BF-F357-4104-A115-739D7CF90CE5";
shapes = (
{
closed = 1;
nodes = (
(337.287,-20,o),
(409.109,15,o),
(453,74,c),
(422,182,l),
(363.233,98,o),
(324.387,70,o),
(267.613,70,cs),
(217.81,70,o),
(170,91,o),
(170,146,cs),
(170,188,o),
(196.87,218,o),
(377,218,c),
(377,298,l),
(216.834,298,o),
(185,322,o),
(185,364,cs),
(185,403,o),
(211.887,430,o),
(267.651,430,cs),
(324.412,430,o),
(363.248,402,o),
(422,318,c),
(453,426,l),
(409.114,485,o),
(337.301,520,o),
(245.539,520,cs),
(120.863,520,o),
(68,455,o),
(68,387,cs),
(68,320,o),
(117.718,274,o),
(244,260,c),
(120.636,251,o),
(50,226,o),
(50,134,cs),
(50,40,o),
(123.817,-20,o),
(244.517,-20,cs)
);
}
);
width = 500;
}
);
leftKerningGroup = a;
rightKerningGroup = b1;
},
{
glyphname = sigmafinal.ss10;
layers = (
{
anchors = (
{
name = topgr;
position = "{297, 519}";
}
);
layerId = "84EF03BF-F357-4104-A115-739D7CF90CE5";
shapes = (
{
closed = 1;
nodes = (
(220,430,o),
(170,362,o),
(170,256,cs),
(170,139,o),
(217.873,70,o),
(344.538,70,cs),
(471.203,70,o),
(548,2,o),
(548,-92,cs),
(548,-133,o),
(533,-170,o),
(507,-200,c),
(390,-200,l),
(414,-167,o),
(428,-142,o),
(428,-107,cs),
(428,-50,o),
(393.092,-20,o),
(308.317,-20,cs),
(126.797,-20,o),
(50,118,o),
(50,253,cs),
(50,411,o),
(155,520,o),
(312,520,cs),
(401,520,o),
(473,485,o),
(517,426,c),
(486,318,l),
(420,402,o),
(374,430,o),
(310,430,cs)
);
}
);
width = 595;
}
);
leftKerningGroup = a;
},
{
glyphname = c.ss12;
layers = (
{
anchors = (
{
name = top;
position = "{310, 520}";
},
{
name = bottom;
position = "{310, -20}";
}
);
layerId = "84EF03BF-F357-4104-A115-739D7CF90CE5";
shapes = (
{
closed = 1;
nodes = (
(503,154,l),
(444,97,o),
(385,70,o),
(320,70,cs),
(224,70,o),
(179,143,o),
(179,255,cs),
(179,365,o),
(220,430,o),
(319,430,cs),
(379,430,o),
(427,411,o),
(504,357,c),
(511,431,l),
(459,490,o),
(391,520,o),
(311,520,cs),
(151,520,o),
(59,411,o),
(59,255,cs),
(59,91,o),
(157,-20,o),
(312.057,-20,cs),
(394,-20,o),
(452,11,o),
(510,80,c)
);
}
);
width = 570;
}
);
leftKerningGroup = a;
rightKerningGroup = b1;
},
